G04 #@! TF.GenerationSoftware,KiCad,Pcbnew,10.0.0*
G04 #@! TF.CreationDate,2026-04-14T11:26:31+08:00*
G04 #@! TF.ProjectId,insole,696e736f-6c65-42e6-9b69-6361645f7063,rev?*
G04 #@! TF.SameCoordinates,Original*
G04 #@! TF.FileFunction,Soldermask,Top*
G04 #@! TF.FilePolarity,Negative*
%FSLAX46Y46*%
G04 Gerber Fmt 4.6, Leading zero omitted, Abs format (unit mm)*
G04 Created by KiCad (PCBNEW 10.0.0) date 2026-04-14 11:26:31*
%MOMM*%
%LPD*%
G01*
G04 APERTURE LIST*
%ADD10C,1.600000*%
%ADD11R,1.700000X1.700000*%
%ADD12C,1.700000*%
G04 APERTURE END LIST*
D10*
X155829000Y-115697000D03*
X163449000Y-115697000D03*
D11*
X143764000Y-118491000D03*
D12*
X143764000Y-115951000D03*
X141224000Y-118491000D03*
X141224000Y-115951000D03*
X138684001Y-118491000D03*
X138684000Y-115951000D03*
X136144000Y-118491000D03*
X136144000Y-115951000D03*
X162813999Y-112395000D03*
X160274000Y-112395000D03*
X157734000Y-112395000D03*
X155194000Y-112395000D03*
X152654001Y-112395000D03*
X150114000Y-112395000D03*
X147574000Y-112395000D03*
X145034000Y-112395000D03*
X142494000Y-112395000D03*
X139953999Y-112395000D03*
X137414000Y-112395000D03*
D11*
X134874000Y-112395000D03*
D12*
X157734000Y-107061000D03*
X157734000Y-104521000D03*
X155194000Y-107061000D03*
X155194000Y-104521000D03*
X152654000Y-107061000D03*
X152654000Y-104521000D03*
X150114000Y-107061000D03*
X150114000Y-104521000D03*
X147574000Y-107061000D03*
X147574000Y-104521000D03*
X145034000Y-107061000D03*
X145034000Y-104521000D03*
X142494000Y-107061000D03*
X142494000Y-104521000D03*
X139954000Y-107061000D03*
X139954000Y-104521000D03*
X137414000Y-107061000D03*
X137414000Y-104521000D03*
X134874000Y-107061000D03*
D11*
X134874000Y-104521000D03*
M02*
