M48
; DRILL file KiCad 10.0.0 date 2026-04-14T11:26:43
; FORMAT={-:-/ absolute / metric / decimal}
; #@! TF.CreationDate,2026-04-14T11:26:43+08:00
; #@! TF.GenerationSoftware,Kicad,Pcbnew,10.0.0
; #@! TF.FileFunction,Plated,1,2,PTH
FMAT,2
METRIC
; #@! TA.AperFunction,Plated,PTH,ComponentDrill
T1C0.800
; #@! TA.AperFunction,Plated,PTH,ComponentDrill
T2C1.000
%
G90
G05
T1
X155.829Y-115.697
X163.449Y-115.697
T2
X134.874Y-104.521
X134.874Y-107.061
X134.874Y-112.395
X136.144Y-115.951
X136.144Y-118.491
X137.414Y-104.521
X137.414Y-107.061
X137.414Y-112.395
X138.684Y-115.951
X138.684Y-118.491
X139.954Y-112.395
X139.954Y-104.521
X139.954Y-107.061
X141.224Y-115.951
X141.224Y-118.491
X142.494Y-104.521
X142.494Y-107.061
X142.494Y-112.395
X143.764Y-115.951
X143.764Y-118.491
X145.034Y-104.521
X145.034Y-107.061
X145.034Y-112.395
X147.574Y-104.521
X147.574Y-107.061
X147.574Y-112.395
X150.114Y-104.521
X150.114Y-107.061
X150.114Y-112.395
X152.654Y-104.521
X152.654Y-107.061
X152.654Y-112.395
X155.194Y-104.521
X155.194Y-107.061
X155.194Y-112.395
X157.734Y-104.521
X157.734Y-107.061
X157.734Y-112.395
X160.274Y-112.395
X162.814Y-112.395
M30
