G04 #@! TF.GenerationSoftware,KiCad,Pcbnew,10.0.0*
G04 #@! TF.CreationDate,2026-04-13T19:07:52+08:00*
G04 #@! TF.ProjectId,EPD 3D G6,45504420-3344-4204-9736-2e6b69636164,rev?*
G04 #@! TF.SameCoordinates,Original*
G04 #@! TF.FileFunction,Legend,Top*
G04 #@! TF.FilePolarity,Positive*
%FSLAX46Y46*%
G04 Gerber Fmt 4.6, Leading zero omitted, Abs format (unit mm)*
G04 Created by KiCad (PCBNEW 10.0.0) date 2026-04-13 19:07:52*
%MOMM*%
%LPD*%
G01*
G04 APERTURE LIST*
%ADD10C,0.150000*%
%ADD11C,0.120000*%
G04 APERTURE END LIST*
D10*
X125831597Y-79712299D02*
X125259178Y-79611284D01*
X125427536Y-80116360D02*
X124720430Y-79409253D01*
X124720430Y-79409253D02*
X124989804Y-79139879D01*
X124989804Y-79139879D02*
X125090819Y-79106207D01*
X125090819Y-79106207D02*
X125158162Y-79106207D01*
X125158162Y-79106207D02*
X125259178Y-79139879D01*
X125259178Y-79139879D02*
X125360193Y-79240894D01*
X125360193Y-79240894D02*
X125393865Y-79341910D01*
X125393865Y-79341910D02*
X125393865Y-79409253D01*
X125393865Y-79409253D02*
X125360193Y-79510268D01*
X125360193Y-79510268D02*
X125090819Y-79779642D01*
X126168315Y-79375581D02*
X126303002Y-79240894D01*
X126303002Y-79240894D02*
X126336674Y-79139879D01*
X126336674Y-79139879D02*
X126336674Y-79072536D01*
X126336674Y-79072536D02*
X126303002Y-78904177D01*
X126303002Y-78904177D02*
X126201987Y-78735818D01*
X126201987Y-78735818D02*
X125932613Y-78466444D01*
X125932613Y-78466444D02*
X125831597Y-78432772D01*
X125831597Y-78432772D02*
X125764254Y-78432772D01*
X125764254Y-78432772D02*
X125663239Y-78466444D01*
X125663239Y-78466444D02*
X125528552Y-78601131D01*
X125528552Y-78601131D02*
X125494880Y-78702146D01*
X125494880Y-78702146D02*
X125494880Y-78769490D01*
X125494880Y-78769490D02*
X125528552Y-78870505D01*
X125528552Y-78870505D02*
X125696910Y-79038864D01*
X125696910Y-79038864D02*
X125797926Y-79072536D01*
X125797926Y-79072536D02*
X125865269Y-79072536D01*
X125865269Y-79072536D02*
X125966284Y-79038864D01*
X125966284Y-79038864D02*
X126100971Y-78904177D01*
X126100971Y-78904177D02*
X126134643Y-78803162D01*
X126134643Y-78803162D02*
X126134643Y-78735818D01*
X126134643Y-78735818D02*
X126100971Y-78634803D01*
X157204580Y-72683666D02*
X157252200Y-72731285D01*
X157252200Y-72731285D02*
X157299819Y-72874142D01*
X157299819Y-72874142D02*
X157299819Y-72969380D01*
X157299819Y-72969380D02*
X157252200Y-73112237D01*
X157252200Y-73112237D02*
X157156961Y-73207475D01*
X157156961Y-73207475D02*
X157061723Y-73255094D01*
X157061723Y-73255094D02*
X156871247Y-73302713D01*
X156871247Y-73302713D02*
X156728390Y-73302713D01*
X156728390Y-73302713D02*
X156537914Y-73255094D01*
X156537914Y-73255094D02*
X156442676Y-73207475D01*
X156442676Y-73207475D02*
X156347438Y-73112237D01*
X156347438Y-73112237D02*
X156299819Y-72969380D01*
X156299819Y-72969380D02*
X156299819Y-72874142D01*
X156299819Y-72874142D02*
X156347438Y-72731285D01*
X156347438Y-72731285D02*
X156395057Y-72683666D01*
X156633152Y-71826523D02*
X157299819Y-71826523D01*
X156252200Y-72064618D02*
X156966485Y-72302713D01*
X156966485Y-72302713D02*
X156966485Y-71683666D01*
X161322142Y-93156580D02*
X161274523Y-93204200D01*
X161274523Y-93204200D02*
X161131666Y-93251819D01*
X161131666Y-93251819D02*
X161036428Y-93251819D01*
X161036428Y-93251819D02*
X160893571Y-93204200D01*
X160893571Y-93204200D02*
X160798333Y-93108961D01*
X160798333Y-93108961D02*
X160750714Y-93013723D01*
X160750714Y-93013723D02*
X160703095Y-92823247D01*
X160703095Y-92823247D02*
X160703095Y-92680390D01*
X160703095Y-92680390D02*
X160750714Y-92489914D01*
X160750714Y-92489914D02*
X160798333Y-92394676D01*
X160798333Y-92394676D02*
X160893571Y-92299438D01*
X160893571Y-92299438D02*
X161036428Y-92251819D01*
X161036428Y-92251819D02*
X161131666Y-92251819D01*
X161131666Y-92251819D02*
X161274523Y-92299438D01*
X161274523Y-92299438D02*
X161322142Y-92347057D01*
X162274523Y-93251819D02*
X161703095Y-93251819D01*
X161988809Y-93251819D02*
X161988809Y-92251819D01*
X161988809Y-92251819D02*
X161893571Y-92394676D01*
X161893571Y-92394676D02*
X161798333Y-92489914D01*
X161798333Y-92489914D02*
X161703095Y-92537533D01*
X162845952Y-92680390D02*
X162750714Y-92632771D01*
X162750714Y-92632771D02*
X162703095Y-92585152D01*
X162703095Y-92585152D02*
X162655476Y-92489914D01*
X162655476Y-92489914D02*
X162655476Y-92442295D01*
X162655476Y-92442295D02*
X162703095Y-92347057D01*
X162703095Y-92347057D02*
X162750714Y-92299438D01*
X162750714Y-92299438D02*
X162845952Y-92251819D01*
X162845952Y-92251819D02*
X163036428Y-92251819D01*
X163036428Y-92251819D02*
X163131666Y-92299438D01*
X163131666Y-92299438D02*
X163179285Y-92347057D01*
X163179285Y-92347057D02*
X163226904Y-92442295D01*
X163226904Y-92442295D02*
X163226904Y-92489914D01*
X163226904Y-92489914D02*
X163179285Y-92585152D01*
X163179285Y-92585152D02*
X163131666Y-92632771D01*
X163131666Y-92632771D02*
X163036428Y-92680390D01*
X163036428Y-92680390D02*
X162845952Y-92680390D01*
X162845952Y-92680390D02*
X162750714Y-92728009D01*
X162750714Y-92728009D02*
X162703095Y-92775628D01*
X162703095Y-92775628D02*
X162655476Y-92870866D01*
X162655476Y-92870866D02*
X162655476Y-93061342D01*
X162655476Y-93061342D02*
X162703095Y-93156580D01*
X162703095Y-93156580D02*
X162750714Y-93204200D01*
X162750714Y-93204200D02*
X162845952Y-93251819D01*
X162845952Y-93251819D02*
X163036428Y-93251819D01*
X163036428Y-93251819D02*
X163131666Y-93204200D01*
X163131666Y-93204200D02*
X163179285Y-93156580D01*
X163179285Y-93156580D02*
X163226904Y-93061342D01*
X163226904Y-93061342D02*
X163226904Y-92870866D01*
X163226904Y-92870866D02*
X163179285Y-92775628D01*
X163179285Y-92775628D02*
X163131666Y-92728009D01*
X163131666Y-92728009D02*
X163036428Y-92680390D01*
X112061666Y-97776819D02*
X112061666Y-98491104D01*
X112061666Y-98491104D02*
X112014047Y-98633961D01*
X112014047Y-98633961D02*
X111918809Y-98729200D01*
X111918809Y-98729200D02*
X111775952Y-98776819D01*
X111775952Y-98776819D02*
X111680714Y-98776819D01*
X112966428Y-97776819D02*
X112775952Y-97776819D01*
X112775952Y-97776819D02*
X112680714Y-97824438D01*
X112680714Y-97824438D02*
X112633095Y-97872057D01*
X112633095Y-97872057D02*
X112537857Y-98014914D01*
X112537857Y-98014914D02*
X112490238Y-98205390D01*
X112490238Y-98205390D02*
X112490238Y-98586342D01*
X112490238Y-98586342D02*
X112537857Y-98681580D01*
X112537857Y-98681580D02*
X112585476Y-98729200D01*
X112585476Y-98729200D02*
X112680714Y-98776819D01*
X112680714Y-98776819D02*
X112871190Y-98776819D01*
X112871190Y-98776819D02*
X112966428Y-98729200D01*
X112966428Y-98729200D02*
X113014047Y-98681580D01*
X113014047Y-98681580D02*
X113061666Y-98586342D01*
X113061666Y-98586342D02*
X113061666Y-98348247D01*
X113061666Y-98348247D02*
X113014047Y-98253009D01*
X113014047Y-98253009D02*
X112966428Y-98205390D01*
X112966428Y-98205390D02*
X112871190Y-98157771D01*
X112871190Y-98157771D02*
X112680714Y-98157771D01*
X112680714Y-98157771D02*
X112585476Y-98205390D01*
X112585476Y-98205390D02*
X112537857Y-98253009D01*
X112537857Y-98253009D02*
X112490238Y-98348247D01*
X166049580Y-103659857D02*
X166097200Y-103707476D01*
X166097200Y-103707476D02*
X166144819Y-103850333D01*
X166144819Y-103850333D02*
X166144819Y-103945571D01*
X166144819Y-103945571D02*
X166097200Y-104088428D01*
X166097200Y-104088428D02*
X166001961Y-104183666D01*
X166001961Y-104183666D02*
X165906723Y-104231285D01*
X165906723Y-104231285D02*
X165716247Y-104278904D01*
X165716247Y-104278904D02*
X165573390Y-104278904D01*
X165573390Y-104278904D02*
X165382914Y-104231285D01*
X165382914Y-104231285D02*
X165287676Y-104183666D01*
X165287676Y-104183666D02*
X165192438Y-104088428D01*
X165192438Y-104088428D02*
X165144819Y-103945571D01*
X165144819Y-103945571D02*
X165144819Y-103850333D01*
X165144819Y-103850333D02*
X165192438Y-103707476D01*
X165192438Y-103707476D02*
X165240057Y-103659857D01*
X166144819Y-102707476D02*
X166144819Y-103278904D01*
X166144819Y-102993190D02*
X165144819Y-102993190D01*
X165144819Y-102993190D02*
X165287676Y-103088428D01*
X165287676Y-103088428D02*
X165382914Y-103183666D01*
X165382914Y-103183666D02*
X165430533Y-103278904D01*
X165144819Y-102374142D02*
X165144819Y-101755095D01*
X165144819Y-101755095D02*
X165525771Y-102088428D01*
X165525771Y-102088428D02*
X165525771Y-101945571D01*
X165525771Y-101945571D02*
X165573390Y-101850333D01*
X165573390Y-101850333D02*
X165621009Y-101802714D01*
X165621009Y-101802714D02*
X165716247Y-101755095D01*
X165716247Y-101755095D02*
X165954342Y-101755095D01*
X165954342Y-101755095D02*
X166049580Y-101802714D01*
X166049580Y-101802714D02*
X166097200Y-101850333D01*
X166097200Y-101850333D02*
X166144819Y-101945571D01*
X166144819Y-101945571D02*
X166144819Y-102231285D01*
X166144819Y-102231285D02*
X166097200Y-102326523D01*
X166097200Y-102326523D02*
X166049580Y-102374142D01*
X125621879Y-84240017D02*
X125049460Y-84139002D01*
X125217818Y-84644078D02*
X124510712Y-83936971D01*
X124510712Y-83936971D02*
X124780086Y-83667597D01*
X124780086Y-83667597D02*
X124881101Y-83633925D01*
X124881101Y-83633925D02*
X124948444Y-83633925D01*
X124948444Y-83633925D02*
X125049460Y-83667597D01*
X125049460Y-83667597D02*
X125150475Y-83768612D01*
X125150475Y-83768612D02*
X125184147Y-83869628D01*
X125184147Y-83869628D02*
X125184147Y-83936971D01*
X125184147Y-83936971D02*
X125150475Y-84037986D01*
X125150475Y-84037986D02*
X124881101Y-84307360D01*
X126295314Y-83566582D02*
X125891253Y-83970643D01*
X126093284Y-83768612D02*
X125386177Y-83061506D01*
X125386177Y-83061506D02*
X125419849Y-83229864D01*
X125419849Y-83229864D02*
X125419849Y-83364551D01*
X125419849Y-83364551D02*
X125386177Y-83465567D01*
X126025941Y-82421742D02*
X126093284Y-82354399D01*
X126093284Y-82354399D02*
X126194299Y-82320727D01*
X126194299Y-82320727D02*
X126261643Y-82320727D01*
X126261643Y-82320727D02*
X126362658Y-82354399D01*
X126362658Y-82354399D02*
X126531017Y-82455414D01*
X126531017Y-82455414D02*
X126699376Y-82623773D01*
X126699376Y-82623773D02*
X126800391Y-82792131D01*
X126800391Y-82792131D02*
X126834063Y-82893147D01*
X126834063Y-82893147D02*
X126834063Y-82960490D01*
X126834063Y-82960490D02*
X126800391Y-83061505D01*
X126800391Y-83061505D02*
X126733047Y-83128849D01*
X126733047Y-83128849D02*
X126632032Y-83162521D01*
X126632032Y-83162521D02*
X126564689Y-83162521D01*
X126564689Y-83162521D02*
X126463673Y-83128849D01*
X126463673Y-83128849D02*
X126295315Y-83027834D01*
X126295315Y-83027834D02*
X126126956Y-82859475D01*
X126126956Y-82859475D02*
X126025941Y-82691116D01*
X126025941Y-82691116D02*
X125992269Y-82590101D01*
X125992269Y-82590101D02*
X125992269Y-82522757D01*
X125992269Y-82522757D02*
X126025941Y-82421742D01*
X170648333Y-93461819D02*
X170315000Y-92985628D01*
X170076905Y-93461819D02*
X170076905Y-92461819D01*
X170076905Y-92461819D02*
X170457857Y-92461819D01*
X170457857Y-92461819D02*
X170553095Y-92509438D01*
X170553095Y-92509438D02*
X170600714Y-92557057D01*
X170600714Y-92557057D02*
X170648333Y-92652295D01*
X170648333Y-92652295D02*
X170648333Y-92795152D01*
X170648333Y-92795152D02*
X170600714Y-92890390D01*
X170600714Y-92890390D02*
X170553095Y-92938009D01*
X170553095Y-92938009D02*
X170457857Y-92985628D01*
X170457857Y-92985628D02*
X170076905Y-92985628D01*
X170981667Y-92461819D02*
X171648333Y-92461819D01*
X171648333Y-92461819D02*
X171219762Y-93461819D01*
X147814819Y-70151523D02*
X148529104Y-70151523D01*
X148529104Y-70151523D02*
X148671961Y-70199142D01*
X148671961Y-70199142D02*
X148767200Y-70294380D01*
X148767200Y-70294380D02*
X148814819Y-70437237D01*
X148814819Y-70437237D02*
X148814819Y-70532475D01*
X148814819Y-69151523D02*
X148814819Y-69722951D01*
X148814819Y-69437237D02*
X147814819Y-69437237D01*
X147814819Y-69437237D02*
X147957676Y-69532475D01*
X147957676Y-69532475D02*
X148052914Y-69627713D01*
X148052914Y-69627713D02*
X148100533Y-69722951D01*
X147814819Y-68818189D02*
X147814819Y-68151523D01*
X147814819Y-68151523D02*
X148814819Y-68580094D01*
X160488333Y-93461819D02*
X160155000Y-92985628D01*
X159916905Y-93461819D02*
X159916905Y-92461819D01*
X159916905Y-92461819D02*
X160297857Y-92461819D01*
X160297857Y-92461819D02*
X160393095Y-92509438D01*
X160393095Y-92509438D02*
X160440714Y-92557057D01*
X160440714Y-92557057D02*
X160488333Y-92652295D01*
X160488333Y-92652295D02*
X160488333Y-92795152D01*
X160488333Y-92795152D02*
X160440714Y-92890390D01*
X160440714Y-92890390D02*
X160393095Y-92938009D01*
X160393095Y-92938009D02*
X160297857Y-92985628D01*
X160297857Y-92985628D02*
X159916905Y-92985628D01*
X161393095Y-92461819D02*
X160916905Y-92461819D01*
X160916905Y-92461819D02*
X160869286Y-92938009D01*
X160869286Y-92938009D02*
X160916905Y-92890390D01*
X160916905Y-92890390D02*
X161012143Y-92842771D01*
X161012143Y-92842771D02*
X161250238Y-92842771D01*
X161250238Y-92842771D02*
X161345476Y-92890390D01*
X161345476Y-92890390D02*
X161393095Y-92938009D01*
X161393095Y-92938009D02*
X161440714Y-93033247D01*
X161440714Y-93033247D02*
X161440714Y-93271342D01*
X161440714Y-93271342D02*
X161393095Y-93366580D01*
X161393095Y-93366580D02*
X161345476Y-93414200D01*
X161345476Y-93414200D02*
X161250238Y-93461819D01*
X161250238Y-93461819D02*
X161012143Y-93461819D01*
X161012143Y-93461819D02*
X160916905Y-93414200D01*
X160916905Y-93414200D02*
X160869286Y-93366580D01*
X164544476Y-122414819D02*
X164544476Y-123129104D01*
X164544476Y-123129104D02*
X164496857Y-123271961D01*
X164496857Y-123271961D02*
X164401619Y-123367200D01*
X164401619Y-123367200D02*
X164258762Y-123414819D01*
X164258762Y-123414819D02*
X164163524Y-123414819D01*
X164973048Y-122510057D02*
X165020667Y-122462438D01*
X165020667Y-122462438D02*
X165115905Y-122414819D01*
X165115905Y-122414819D02*
X165354000Y-122414819D01*
X165354000Y-122414819D02*
X165449238Y-122462438D01*
X165449238Y-122462438D02*
X165496857Y-122510057D01*
X165496857Y-122510057D02*
X165544476Y-122605295D01*
X165544476Y-122605295D02*
X165544476Y-122700533D01*
X165544476Y-122700533D02*
X165496857Y-122843390D01*
X165496857Y-122843390D02*
X164925429Y-123414819D01*
X164925429Y-123414819D02*
X165544476Y-123414819D01*
X166401619Y-122748152D02*
X166401619Y-123414819D01*
X166163524Y-122367200D02*
X165925429Y-123081485D01*
X165925429Y-123081485D02*
X166544476Y-123081485D01*
X122745926Y-84412063D02*
X122745926Y-84479407D01*
X122745926Y-84479407D02*
X122678582Y-84614094D01*
X122678582Y-84614094D02*
X122611239Y-84681437D01*
X122611239Y-84681437D02*
X122476552Y-84748781D01*
X122476552Y-84748781D02*
X122341865Y-84748781D01*
X122341865Y-84748781D02*
X122240850Y-84715109D01*
X122240850Y-84715109D02*
X122072491Y-84614094D01*
X122072491Y-84614094D02*
X121971476Y-84513079D01*
X121971476Y-84513079D02*
X121870460Y-84344720D01*
X121870460Y-84344720D02*
X121836789Y-84243705D01*
X121836789Y-84243705D02*
X121836789Y-84109018D01*
X121836789Y-84109018D02*
X121904132Y-83974331D01*
X121904132Y-83974331D02*
X121971476Y-83906987D01*
X121971476Y-83906987D02*
X122106163Y-83839644D01*
X122106163Y-83839644D02*
X122173506Y-83839644D01*
X122442880Y-83570270D02*
X122442880Y-83502926D01*
X122442880Y-83502926D02*
X122476552Y-83401911D01*
X122476552Y-83401911D02*
X122644911Y-83233552D01*
X122644911Y-83233552D02*
X122745926Y-83199880D01*
X122745926Y-83199880D02*
X122813269Y-83199880D01*
X122813269Y-83199880D02*
X122914285Y-83233552D01*
X122914285Y-83233552D02*
X122981628Y-83300896D01*
X122981628Y-83300896D02*
X123048972Y-83435583D01*
X123048972Y-83435583D02*
X123048972Y-84243705D01*
X123048972Y-84243705D02*
X123486704Y-83805972D01*
X123217331Y-82661132D02*
X123284674Y-82593789D01*
X123284674Y-82593789D02*
X123385689Y-82560117D01*
X123385689Y-82560117D02*
X123453033Y-82560117D01*
X123453033Y-82560117D02*
X123554048Y-82593789D01*
X123554048Y-82593789D02*
X123722407Y-82694804D01*
X123722407Y-82694804D02*
X123890766Y-82863163D01*
X123890766Y-82863163D02*
X123991781Y-83031521D01*
X123991781Y-83031521D02*
X124025453Y-83132537D01*
X124025453Y-83132537D02*
X124025453Y-83199880D01*
X124025453Y-83199880D02*
X123991781Y-83300895D01*
X123991781Y-83300895D02*
X123924437Y-83368239D01*
X123924437Y-83368239D02*
X123823422Y-83401911D01*
X123823422Y-83401911D02*
X123756079Y-83401911D01*
X123756079Y-83401911D02*
X123655063Y-83368239D01*
X123655063Y-83368239D02*
X123486705Y-83267224D01*
X123486705Y-83267224D02*
X123318346Y-83098865D01*
X123318346Y-83098865D02*
X123217331Y-82930506D01*
X123217331Y-82930506D02*
X123183659Y-82829491D01*
X123183659Y-82829491D02*
X123183659Y-82762147D01*
X123183659Y-82762147D02*
X123217331Y-82661132D01*
X174450476Y-82131819D02*
X174450476Y-82846104D01*
X174450476Y-82846104D02*
X174402857Y-82988961D01*
X174402857Y-82988961D02*
X174307619Y-83084200D01*
X174307619Y-83084200D02*
X174164762Y-83131819D01*
X174164762Y-83131819D02*
X174069524Y-83131819D01*
X175450476Y-83131819D02*
X174879048Y-83131819D01*
X175164762Y-83131819D02*
X175164762Y-82131819D01*
X175164762Y-82131819D02*
X175069524Y-82274676D01*
X175069524Y-82274676D02*
X174974286Y-82369914D01*
X174974286Y-82369914D02*
X174879048Y-82417533D01*
X176307619Y-82131819D02*
X176117143Y-82131819D01*
X176117143Y-82131819D02*
X176021905Y-82179438D01*
X176021905Y-82179438D02*
X175974286Y-82227057D01*
X175974286Y-82227057D02*
X175879048Y-82369914D01*
X175879048Y-82369914D02*
X175831429Y-82560390D01*
X175831429Y-82560390D02*
X175831429Y-82941342D01*
X175831429Y-82941342D02*
X175879048Y-83036580D01*
X175879048Y-83036580D02*
X175926667Y-83084200D01*
X175926667Y-83084200D02*
X176021905Y-83131819D01*
X176021905Y-83131819D02*
X176212381Y-83131819D01*
X176212381Y-83131819D02*
X176307619Y-83084200D01*
X176307619Y-83084200D02*
X176355238Y-83036580D01*
X176355238Y-83036580D02*
X176402857Y-82941342D01*
X176402857Y-82941342D02*
X176402857Y-82703247D01*
X176402857Y-82703247D02*
X176355238Y-82608009D01*
X176355238Y-82608009D02*
X176307619Y-82560390D01*
X176307619Y-82560390D02*
X176212381Y-82512771D01*
X176212381Y-82512771D02*
X176021905Y-82512771D01*
X176021905Y-82512771D02*
X175926667Y-82560390D01*
X175926667Y-82560390D02*
X175879048Y-82608009D01*
X175879048Y-82608009D02*
X175831429Y-82703247D01*
X117141666Y-97601819D02*
X117141666Y-98316104D01*
X117141666Y-98316104D02*
X117094047Y-98458961D01*
X117094047Y-98458961D02*
X116998809Y-98554200D01*
X116998809Y-98554200D02*
X116855952Y-98601819D01*
X116855952Y-98601819D02*
X116760714Y-98601819D01*
X117570238Y-97697057D02*
X117617857Y-97649438D01*
X117617857Y-97649438D02*
X117713095Y-97601819D01*
X117713095Y-97601819D02*
X117951190Y-97601819D01*
X117951190Y-97601819D02*
X118046428Y-97649438D01*
X118046428Y-97649438D02*
X118094047Y-97697057D01*
X118094047Y-97697057D02*
X118141666Y-97792295D01*
X118141666Y-97792295D02*
X118141666Y-97887533D01*
X118141666Y-97887533D02*
X118094047Y-98030390D01*
X118094047Y-98030390D02*
X117522619Y-98601819D01*
X117522619Y-98601819D02*
X118141666Y-98601819D01*
X170751666Y-67281819D02*
X170418333Y-66805628D01*
X170180238Y-67281819D02*
X170180238Y-66281819D01*
X170180238Y-66281819D02*
X170561190Y-66281819D01*
X170561190Y-66281819D02*
X170656428Y-66329438D01*
X170656428Y-66329438D02*
X170704047Y-66377057D01*
X170704047Y-66377057D02*
X170751666Y-66472295D01*
X170751666Y-66472295D02*
X170751666Y-66615152D01*
X170751666Y-66615152D02*
X170704047Y-66710390D01*
X170704047Y-66710390D02*
X170656428Y-66758009D01*
X170656428Y-66758009D02*
X170561190Y-66805628D01*
X170561190Y-66805628D02*
X170180238Y-66805628D01*
X171180238Y-66758009D02*
X171513571Y-66758009D01*
X171656428Y-67281819D02*
X171180238Y-67281819D01*
X171180238Y-67281819D02*
X171180238Y-66281819D01*
X171180238Y-66281819D02*
X171656428Y-66281819D01*
X172418333Y-66758009D02*
X172085000Y-66758009D01*
X172085000Y-67281819D02*
X172085000Y-66281819D01*
X172085000Y-66281819D02*
X172561190Y-66281819D01*
X173085000Y-66281819D02*
X173085000Y-66519914D01*
X172846905Y-66424676D02*
X173085000Y-66519914D01*
X173085000Y-66519914D02*
X173323095Y-66424676D01*
X172942143Y-66710390D02*
X173085000Y-66519914D01*
X173085000Y-66519914D02*
X173227857Y-66710390D01*
X173846905Y-66281819D02*
X173846905Y-66519914D01*
X173608810Y-66424676D02*
X173846905Y-66519914D01*
X173846905Y-66519914D02*
X174085000Y-66424676D01*
X173704048Y-66710390D02*
X173846905Y-66519914D01*
X173846905Y-66519914D02*
X173989762Y-66710390D01*
X145729580Y-103659857D02*
X145777200Y-103707476D01*
X145777200Y-103707476D02*
X145824819Y-103850333D01*
X145824819Y-103850333D02*
X145824819Y-103945571D01*
X145824819Y-103945571D02*
X145777200Y-104088428D01*
X145777200Y-104088428D02*
X145681961Y-104183666D01*
X145681961Y-104183666D02*
X145586723Y-104231285D01*
X145586723Y-104231285D02*
X145396247Y-104278904D01*
X145396247Y-104278904D02*
X145253390Y-104278904D01*
X145253390Y-104278904D02*
X145062914Y-104231285D01*
X145062914Y-104231285D02*
X144967676Y-104183666D01*
X144967676Y-104183666D02*
X144872438Y-104088428D01*
X144872438Y-104088428D02*
X144824819Y-103945571D01*
X144824819Y-103945571D02*
X144824819Y-103850333D01*
X144824819Y-103850333D02*
X144872438Y-103707476D01*
X144872438Y-103707476D02*
X144920057Y-103659857D01*
X145824819Y-102707476D02*
X145824819Y-103278904D01*
X145824819Y-102993190D02*
X144824819Y-102993190D01*
X144824819Y-102993190D02*
X144967676Y-103088428D01*
X144967676Y-103088428D02*
X145062914Y-103183666D01*
X145062914Y-103183666D02*
X145110533Y-103278904D01*
X144824819Y-102088428D02*
X144824819Y-101993190D01*
X144824819Y-101993190D02*
X144872438Y-101897952D01*
X144872438Y-101897952D02*
X144920057Y-101850333D01*
X144920057Y-101850333D02*
X145015295Y-101802714D01*
X145015295Y-101802714D02*
X145205771Y-101755095D01*
X145205771Y-101755095D02*
X145443866Y-101755095D01*
X145443866Y-101755095D02*
X145634342Y-101802714D01*
X145634342Y-101802714D02*
X145729580Y-101850333D01*
X145729580Y-101850333D02*
X145777200Y-101897952D01*
X145777200Y-101897952D02*
X145824819Y-101993190D01*
X145824819Y-101993190D02*
X145824819Y-102088428D01*
X145824819Y-102088428D02*
X145777200Y-102183666D01*
X145777200Y-102183666D02*
X145729580Y-102231285D01*
X145729580Y-102231285D02*
X145634342Y-102278904D01*
X145634342Y-102278904D02*
X145443866Y-102326523D01*
X145443866Y-102326523D02*
X145205771Y-102326523D01*
X145205771Y-102326523D02*
X145015295Y-102278904D01*
X145015295Y-102278904D02*
X144920057Y-102231285D01*
X144920057Y-102231285D02*
X144872438Y-102183666D01*
X144872438Y-102183666D02*
X144824819Y-102088428D01*
X174309580Y-104909857D02*
X174357200Y-104957476D01*
X174357200Y-104957476D02*
X174404819Y-105100333D01*
X174404819Y-105100333D02*
X174404819Y-105195571D01*
X174404819Y-105195571D02*
X174357200Y-105338428D01*
X174357200Y-105338428D02*
X174261961Y-105433666D01*
X174261961Y-105433666D02*
X174166723Y-105481285D01*
X174166723Y-105481285D02*
X173976247Y-105528904D01*
X173976247Y-105528904D02*
X173833390Y-105528904D01*
X173833390Y-105528904D02*
X173642914Y-105481285D01*
X173642914Y-105481285D02*
X173547676Y-105433666D01*
X173547676Y-105433666D02*
X173452438Y-105338428D01*
X173452438Y-105338428D02*
X173404819Y-105195571D01*
X173404819Y-105195571D02*
X173404819Y-105100333D01*
X173404819Y-105100333D02*
X173452438Y-104957476D01*
X173452438Y-104957476D02*
X173500057Y-104909857D01*
X174404819Y-103957476D02*
X174404819Y-104528904D01*
X174404819Y-104243190D02*
X173404819Y-104243190D01*
X173404819Y-104243190D02*
X173547676Y-104338428D01*
X173547676Y-104338428D02*
X173642914Y-104433666D01*
X173642914Y-104433666D02*
X173690533Y-104528904D01*
X173738152Y-103100333D02*
X174404819Y-103100333D01*
X173357200Y-103338428D02*
X174071485Y-103576523D01*
X174071485Y-103576523D02*
X174071485Y-102957476D01*
X135715476Y-75551819D02*
X135715476Y-76266104D01*
X135715476Y-76266104D02*
X135667857Y-76408961D01*
X135667857Y-76408961D02*
X135572619Y-76504200D01*
X135572619Y-76504200D02*
X135429762Y-76551819D01*
X135429762Y-76551819D02*
X135334524Y-76551819D01*
X136096429Y-75551819D02*
X136715476Y-75551819D01*
X136715476Y-75551819D02*
X136382143Y-75932771D01*
X136382143Y-75932771D02*
X136525000Y-75932771D01*
X136525000Y-75932771D02*
X136620238Y-75980390D01*
X136620238Y-75980390D02*
X136667857Y-76028009D01*
X136667857Y-76028009D02*
X136715476Y-76123247D01*
X136715476Y-76123247D02*
X136715476Y-76361342D01*
X136715476Y-76361342D02*
X136667857Y-76456580D01*
X136667857Y-76456580D02*
X136620238Y-76504200D01*
X136620238Y-76504200D02*
X136525000Y-76551819D01*
X136525000Y-76551819D02*
X136239286Y-76551819D01*
X136239286Y-76551819D02*
X136144048Y-76504200D01*
X136144048Y-76504200D02*
X136096429Y-76456580D01*
X137667857Y-76551819D02*
X137096429Y-76551819D01*
X137382143Y-76551819D02*
X137382143Y-75551819D01*
X137382143Y-75551819D02*
X137286905Y-75694676D01*
X137286905Y-75694676D02*
X137191667Y-75789914D01*
X137191667Y-75789914D02*
X137096429Y-75837533D01*
X153989580Y-104869857D02*
X154037200Y-104917476D01*
X154037200Y-104917476D02*
X154084819Y-105060333D01*
X154084819Y-105060333D02*
X154084819Y-105155571D01*
X154084819Y-105155571D02*
X154037200Y-105298428D01*
X154037200Y-105298428D02*
X153941961Y-105393666D01*
X153941961Y-105393666D02*
X153846723Y-105441285D01*
X153846723Y-105441285D02*
X153656247Y-105488904D01*
X153656247Y-105488904D02*
X153513390Y-105488904D01*
X153513390Y-105488904D02*
X153322914Y-105441285D01*
X153322914Y-105441285D02*
X153227676Y-105393666D01*
X153227676Y-105393666D02*
X153132438Y-105298428D01*
X153132438Y-105298428D02*
X153084819Y-105155571D01*
X153084819Y-105155571D02*
X153084819Y-105060333D01*
X153084819Y-105060333D02*
X153132438Y-104917476D01*
X153132438Y-104917476D02*
X153180057Y-104869857D01*
X154084819Y-103917476D02*
X154084819Y-104488904D01*
X154084819Y-104203190D02*
X153084819Y-104203190D01*
X153084819Y-104203190D02*
X153227676Y-104298428D01*
X153227676Y-104298428D02*
X153322914Y-104393666D01*
X153322914Y-104393666D02*
X153370533Y-104488904D01*
X154084819Y-102965095D02*
X154084819Y-103536523D01*
X154084819Y-103250809D02*
X153084819Y-103250809D01*
X153084819Y-103250809D02*
X153227676Y-103346047D01*
X153227676Y-103346047D02*
X153322914Y-103441285D01*
X153322914Y-103441285D02*
X153370533Y-103536523D01*
X148415476Y-75551819D02*
X148415476Y-76266104D01*
X148415476Y-76266104D02*
X148367857Y-76408961D01*
X148367857Y-76408961D02*
X148272619Y-76504200D01*
X148272619Y-76504200D02*
X148129762Y-76551819D01*
X148129762Y-76551819D02*
X148034524Y-76551819D01*
X148844048Y-75647057D02*
X148891667Y-75599438D01*
X148891667Y-75599438D02*
X148986905Y-75551819D01*
X148986905Y-75551819D02*
X149225000Y-75551819D01*
X149225000Y-75551819D02*
X149320238Y-75599438D01*
X149320238Y-75599438D02*
X149367857Y-75647057D01*
X149367857Y-75647057D02*
X149415476Y-75742295D01*
X149415476Y-75742295D02*
X149415476Y-75837533D01*
X149415476Y-75837533D02*
X149367857Y-75980390D01*
X149367857Y-75980390D02*
X148796429Y-76551819D01*
X148796429Y-76551819D02*
X149415476Y-76551819D01*
X149796429Y-75647057D02*
X149844048Y-75599438D01*
X149844048Y-75599438D02*
X149939286Y-75551819D01*
X149939286Y-75551819D02*
X150177381Y-75551819D01*
X150177381Y-75551819D02*
X150272619Y-75599438D01*
X150272619Y-75599438D02*
X150320238Y-75647057D01*
X150320238Y-75647057D02*
X150367857Y-75742295D01*
X150367857Y-75742295D02*
X150367857Y-75837533D01*
X150367857Y-75837533D02*
X150320238Y-75980390D01*
X150320238Y-75980390D02*
X149748810Y-76551819D01*
X149748810Y-76551819D02*
X150367857Y-76551819D01*
X141541666Y-73631819D02*
X141208333Y-73155628D01*
X140970238Y-73631819D02*
X140970238Y-72631819D01*
X140970238Y-72631819D02*
X141351190Y-72631819D01*
X141351190Y-72631819D02*
X141446428Y-72679438D01*
X141446428Y-72679438D02*
X141494047Y-72727057D01*
X141494047Y-72727057D02*
X141541666Y-72822295D01*
X141541666Y-72822295D02*
X141541666Y-72965152D01*
X141541666Y-72965152D02*
X141494047Y-73060390D01*
X141494047Y-73060390D02*
X141446428Y-73108009D01*
X141446428Y-73108009D02*
X141351190Y-73155628D01*
X141351190Y-73155628D02*
X140970238Y-73155628D01*
X141970238Y-73108009D02*
X142303571Y-73108009D01*
X142446428Y-73631819D02*
X141970238Y-73631819D01*
X141970238Y-73631819D02*
X141970238Y-72631819D01*
X141970238Y-72631819D02*
X142446428Y-72631819D01*
X143208333Y-73108009D02*
X142875000Y-73108009D01*
X142875000Y-73631819D02*
X142875000Y-72631819D01*
X142875000Y-72631819D02*
X143351190Y-72631819D01*
X143875000Y-72631819D02*
X143875000Y-72869914D01*
X143636905Y-72774676D02*
X143875000Y-72869914D01*
X143875000Y-72869914D02*
X144113095Y-72774676D01*
X143732143Y-73060390D02*
X143875000Y-72869914D01*
X143875000Y-72869914D02*
X144017857Y-73060390D01*
X144636905Y-72631819D02*
X144636905Y-72869914D01*
X144398810Y-72774676D02*
X144636905Y-72869914D01*
X144636905Y-72869914D02*
X144875000Y-72774676D01*
X144494048Y-73060390D02*
X144636905Y-72869914D01*
X144636905Y-72869914D02*
X144779762Y-73060390D01*
X119681666Y-97776819D02*
X119681666Y-98491104D01*
X119681666Y-98491104D02*
X119634047Y-98633961D01*
X119634047Y-98633961D02*
X119538809Y-98729200D01*
X119538809Y-98729200D02*
X119395952Y-98776819D01*
X119395952Y-98776819D02*
X119300714Y-98776819D01*
X120062619Y-97776819D02*
X120729285Y-97776819D01*
X120729285Y-97776819D02*
X120300714Y-98776819D01*
X126666666Y-98411819D02*
X126666666Y-99126104D01*
X126666666Y-99126104D02*
X126619047Y-99268961D01*
X126619047Y-99268961D02*
X126523809Y-99364200D01*
X126523809Y-99364200D02*
X126380952Y-99411819D01*
X126380952Y-99411819D02*
X126285714Y-99411819D01*
X127571428Y-98745152D02*
X127571428Y-99411819D01*
X127333333Y-98364200D02*
X127095238Y-99078485D01*
X127095238Y-99078485D02*
X127714285Y-99078485D01*
X140168333Y-93461819D02*
X139835000Y-92985628D01*
X139596905Y-93461819D02*
X139596905Y-92461819D01*
X139596905Y-92461819D02*
X139977857Y-92461819D01*
X139977857Y-92461819D02*
X140073095Y-92509438D01*
X140073095Y-92509438D02*
X140120714Y-92557057D01*
X140120714Y-92557057D02*
X140168333Y-92652295D01*
X140168333Y-92652295D02*
X140168333Y-92795152D01*
X140168333Y-92795152D02*
X140120714Y-92890390D01*
X140120714Y-92890390D02*
X140073095Y-92938009D01*
X140073095Y-92938009D02*
X139977857Y-92985628D01*
X139977857Y-92985628D02*
X139596905Y-92985628D01*
X140549286Y-92557057D02*
X140596905Y-92509438D01*
X140596905Y-92509438D02*
X140692143Y-92461819D01*
X140692143Y-92461819D02*
X140930238Y-92461819D01*
X140930238Y-92461819D02*
X141025476Y-92509438D01*
X141025476Y-92509438D02*
X141073095Y-92557057D01*
X141073095Y-92557057D02*
X141120714Y-92652295D01*
X141120714Y-92652295D02*
X141120714Y-92747533D01*
X141120714Y-92747533D02*
X141073095Y-92890390D01*
X141073095Y-92890390D02*
X140501667Y-93461819D01*
X140501667Y-93461819D02*
X141120714Y-93461819D01*
X128669580Y-114593666D02*
X128717200Y-114641285D01*
X128717200Y-114641285D02*
X128764819Y-114784142D01*
X128764819Y-114784142D02*
X128764819Y-114879380D01*
X128764819Y-114879380D02*
X128717200Y-115022237D01*
X128717200Y-115022237D02*
X128621961Y-115117475D01*
X128621961Y-115117475D02*
X128526723Y-115165094D01*
X128526723Y-115165094D02*
X128336247Y-115212713D01*
X128336247Y-115212713D02*
X128193390Y-115212713D01*
X128193390Y-115212713D02*
X128002914Y-115165094D01*
X128002914Y-115165094D02*
X127907676Y-115117475D01*
X127907676Y-115117475D02*
X127812438Y-115022237D01*
X127812438Y-115022237D02*
X127764819Y-114879380D01*
X127764819Y-114879380D02*
X127764819Y-114784142D01*
X127764819Y-114784142D02*
X127812438Y-114641285D01*
X127812438Y-114641285D02*
X127860057Y-114593666D01*
X128764819Y-114117475D02*
X128764819Y-113926999D01*
X128764819Y-113926999D02*
X128717200Y-113831761D01*
X128717200Y-113831761D02*
X128669580Y-113784142D01*
X128669580Y-113784142D02*
X128526723Y-113688904D01*
X128526723Y-113688904D02*
X128336247Y-113641285D01*
X128336247Y-113641285D02*
X127955295Y-113641285D01*
X127955295Y-113641285D02*
X127860057Y-113688904D01*
X127860057Y-113688904D02*
X127812438Y-113736523D01*
X127812438Y-113736523D02*
X127764819Y-113831761D01*
X127764819Y-113831761D02*
X127764819Y-114022237D01*
X127764819Y-114022237D02*
X127812438Y-114117475D01*
X127812438Y-114117475D02*
X127860057Y-114165094D01*
X127860057Y-114165094D02*
X127955295Y-114212713D01*
X127955295Y-114212713D02*
X128193390Y-114212713D01*
X128193390Y-114212713D02*
X128288628Y-114165094D01*
X128288628Y-114165094D02*
X128336247Y-114117475D01*
X128336247Y-114117475D02*
X128383866Y-114022237D01*
X128383866Y-114022237D02*
X128383866Y-113831761D01*
X128383866Y-113831761D02*
X128336247Y-113736523D01*
X128336247Y-113736523D02*
X128288628Y-113688904D01*
X128288628Y-113688904D02*
X128193390Y-113641285D01*
X150328333Y-83301819D02*
X149995000Y-82825628D01*
X149756905Y-83301819D02*
X149756905Y-82301819D01*
X149756905Y-82301819D02*
X150137857Y-82301819D01*
X150137857Y-82301819D02*
X150233095Y-82349438D01*
X150233095Y-82349438D02*
X150280714Y-82397057D01*
X150280714Y-82397057D02*
X150328333Y-82492295D01*
X150328333Y-82492295D02*
X150328333Y-82635152D01*
X150328333Y-82635152D02*
X150280714Y-82730390D01*
X150280714Y-82730390D02*
X150233095Y-82778009D01*
X150233095Y-82778009D02*
X150137857Y-82825628D01*
X150137857Y-82825628D02*
X149756905Y-82825628D01*
X151185476Y-82635152D02*
X151185476Y-83301819D01*
X150947381Y-82254200D02*
X150709286Y-82968485D01*
X150709286Y-82968485D02*
X151328333Y-82968485D01*
X152894819Y-70151523D02*
X153609104Y-70151523D01*
X153609104Y-70151523D02*
X153751961Y-70199142D01*
X153751961Y-70199142D02*
X153847200Y-70294380D01*
X153847200Y-70294380D02*
X153894819Y-70437237D01*
X153894819Y-70437237D02*
X153894819Y-70532475D01*
X153894819Y-69151523D02*
X153894819Y-69722951D01*
X153894819Y-69437237D02*
X152894819Y-69437237D01*
X152894819Y-69437237D02*
X153037676Y-69532475D01*
X153037676Y-69532475D02*
X153132914Y-69627713D01*
X153132914Y-69627713D02*
X153180533Y-69722951D01*
X153323390Y-68580094D02*
X153275771Y-68675332D01*
X153275771Y-68675332D02*
X153228152Y-68722951D01*
X153228152Y-68722951D02*
X153132914Y-68770570D01*
X153132914Y-68770570D02*
X153085295Y-68770570D01*
X153085295Y-68770570D02*
X152990057Y-68722951D01*
X152990057Y-68722951D02*
X152942438Y-68675332D01*
X152942438Y-68675332D02*
X152894819Y-68580094D01*
X152894819Y-68580094D02*
X152894819Y-68389618D01*
X152894819Y-68389618D02*
X152942438Y-68294380D01*
X152942438Y-68294380D02*
X152990057Y-68246761D01*
X152990057Y-68246761D02*
X153085295Y-68199142D01*
X153085295Y-68199142D02*
X153132914Y-68199142D01*
X153132914Y-68199142D02*
X153228152Y-68246761D01*
X153228152Y-68246761D02*
X153275771Y-68294380D01*
X153275771Y-68294380D02*
X153323390Y-68389618D01*
X153323390Y-68389618D02*
X153323390Y-68580094D01*
X153323390Y-68580094D02*
X153371009Y-68675332D01*
X153371009Y-68675332D02*
X153418628Y-68722951D01*
X153418628Y-68722951D02*
X153513866Y-68770570D01*
X153513866Y-68770570D02*
X153704342Y-68770570D01*
X153704342Y-68770570D02*
X153799580Y-68722951D01*
X153799580Y-68722951D02*
X153847200Y-68675332D01*
X153847200Y-68675332D02*
X153894819Y-68580094D01*
X153894819Y-68580094D02*
X153894819Y-68389618D01*
X153894819Y-68389618D02*
X153847200Y-68294380D01*
X153847200Y-68294380D02*
X153799580Y-68246761D01*
X153799580Y-68246761D02*
X153704342Y-68199142D01*
X153704342Y-68199142D02*
X153513866Y-68199142D01*
X153513866Y-68199142D02*
X153418628Y-68246761D01*
X153418628Y-68246761D02*
X153371009Y-68294380D01*
X153371009Y-68294380D02*
X153323390Y-68389618D01*
X148415476Y-70471819D02*
X148415476Y-71186104D01*
X148415476Y-71186104D02*
X148367857Y-71328961D01*
X148367857Y-71328961D02*
X148272619Y-71424200D01*
X148272619Y-71424200D02*
X148129762Y-71471819D01*
X148129762Y-71471819D02*
X148034524Y-71471819D01*
X148844048Y-70567057D02*
X148891667Y-70519438D01*
X148891667Y-70519438D02*
X148986905Y-70471819D01*
X148986905Y-70471819D02*
X149225000Y-70471819D01*
X149225000Y-70471819D02*
X149320238Y-70519438D01*
X149320238Y-70519438D02*
X149367857Y-70567057D01*
X149367857Y-70567057D02*
X149415476Y-70662295D01*
X149415476Y-70662295D02*
X149415476Y-70757533D01*
X149415476Y-70757533D02*
X149367857Y-70900390D01*
X149367857Y-70900390D02*
X148796429Y-71471819D01*
X148796429Y-71471819D02*
X149415476Y-71471819D01*
X150367857Y-71471819D02*
X149796429Y-71471819D01*
X150082143Y-71471819D02*
X150082143Y-70471819D01*
X150082143Y-70471819D02*
X149986905Y-70614676D01*
X149986905Y-70614676D02*
X149891667Y-70709914D01*
X149891667Y-70709914D02*
X149796429Y-70757533D01*
X157974819Y-70151523D02*
X158689104Y-70151523D01*
X158689104Y-70151523D02*
X158831961Y-70199142D01*
X158831961Y-70199142D02*
X158927200Y-70294380D01*
X158927200Y-70294380D02*
X158974819Y-70437237D01*
X158974819Y-70437237D02*
X158974819Y-70532475D01*
X158974819Y-69151523D02*
X158974819Y-69722951D01*
X158974819Y-69437237D02*
X157974819Y-69437237D01*
X157974819Y-69437237D02*
X158117676Y-69532475D01*
X158117676Y-69532475D02*
X158212914Y-69627713D01*
X158212914Y-69627713D02*
X158260533Y-69722951D01*
X158403390Y-68580094D02*
X158355771Y-68675332D01*
X158355771Y-68675332D02*
X158308152Y-68722951D01*
X158308152Y-68722951D02*
X158212914Y-68770570D01*
X158212914Y-68770570D02*
X158165295Y-68770570D01*
X158165295Y-68770570D02*
X158070057Y-68722951D01*
X158070057Y-68722951D02*
X158022438Y-68675332D01*
X158022438Y-68675332D02*
X157974819Y-68580094D01*
X157974819Y-68580094D02*
X157974819Y-68389618D01*
X157974819Y-68389618D02*
X158022438Y-68294380D01*
X158022438Y-68294380D02*
X158070057Y-68246761D01*
X158070057Y-68246761D02*
X158165295Y-68199142D01*
X158165295Y-68199142D02*
X158212914Y-68199142D01*
X158212914Y-68199142D02*
X158308152Y-68246761D01*
X158308152Y-68246761D02*
X158355771Y-68294380D01*
X158355771Y-68294380D02*
X158403390Y-68389618D01*
X158403390Y-68389618D02*
X158403390Y-68580094D01*
X158403390Y-68580094D02*
X158451009Y-68675332D01*
X158451009Y-68675332D02*
X158498628Y-68722951D01*
X158498628Y-68722951D02*
X158593866Y-68770570D01*
X158593866Y-68770570D02*
X158784342Y-68770570D01*
X158784342Y-68770570D02*
X158879580Y-68722951D01*
X158879580Y-68722951D02*
X158927200Y-68675332D01*
X158927200Y-68675332D02*
X158974819Y-68580094D01*
X158974819Y-68580094D02*
X158974819Y-68389618D01*
X158974819Y-68389618D02*
X158927200Y-68294380D01*
X158927200Y-68294380D02*
X158879580Y-68246761D01*
X158879580Y-68246761D02*
X158784342Y-68199142D01*
X158784342Y-68199142D02*
X158593866Y-68199142D01*
X158593866Y-68199142D02*
X158498628Y-68246761D01*
X158498628Y-68246761D02*
X158451009Y-68294380D01*
X158451009Y-68294380D02*
X158403390Y-68389618D01*
X151162142Y-93156580D02*
X151114523Y-93204200D01*
X151114523Y-93204200D02*
X150971666Y-93251819D01*
X150971666Y-93251819D02*
X150876428Y-93251819D01*
X150876428Y-93251819D02*
X150733571Y-93204200D01*
X150733571Y-93204200D02*
X150638333Y-93108961D01*
X150638333Y-93108961D02*
X150590714Y-93013723D01*
X150590714Y-93013723D02*
X150543095Y-92823247D01*
X150543095Y-92823247D02*
X150543095Y-92680390D01*
X150543095Y-92680390D02*
X150590714Y-92489914D01*
X150590714Y-92489914D02*
X150638333Y-92394676D01*
X150638333Y-92394676D02*
X150733571Y-92299438D01*
X150733571Y-92299438D02*
X150876428Y-92251819D01*
X150876428Y-92251819D02*
X150971666Y-92251819D01*
X150971666Y-92251819D02*
X151114523Y-92299438D01*
X151114523Y-92299438D02*
X151162142Y-92347057D01*
X152114523Y-93251819D02*
X151543095Y-93251819D01*
X151828809Y-93251819D02*
X151828809Y-92251819D01*
X151828809Y-92251819D02*
X151733571Y-92394676D01*
X151733571Y-92394676D02*
X151638333Y-92489914D01*
X151638333Y-92489914D02*
X151543095Y-92537533D01*
X152447857Y-92251819D02*
X153114523Y-92251819D01*
X153114523Y-92251819D02*
X152685952Y-93251819D01*
X133669580Y-104433666D02*
X133717200Y-104481285D01*
X133717200Y-104481285D02*
X133764819Y-104624142D01*
X133764819Y-104624142D02*
X133764819Y-104719380D01*
X133764819Y-104719380D02*
X133717200Y-104862237D01*
X133717200Y-104862237D02*
X133621961Y-104957475D01*
X133621961Y-104957475D02*
X133526723Y-105005094D01*
X133526723Y-105005094D02*
X133336247Y-105052713D01*
X133336247Y-105052713D02*
X133193390Y-105052713D01*
X133193390Y-105052713D02*
X133002914Y-105005094D01*
X133002914Y-105005094D02*
X132907676Y-104957475D01*
X132907676Y-104957475D02*
X132812438Y-104862237D01*
X132812438Y-104862237D02*
X132764819Y-104719380D01*
X132764819Y-104719380D02*
X132764819Y-104624142D01*
X132764819Y-104624142D02*
X132812438Y-104481285D01*
X132812438Y-104481285D02*
X132860057Y-104433666D01*
X133193390Y-103862237D02*
X133145771Y-103957475D01*
X133145771Y-103957475D02*
X133098152Y-104005094D01*
X133098152Y-104005094D02*
X133002914Y-104052713D01*
X133002914Y-104052713D02*
X132955295Y-104052713D01*
X132955295Y-104052713D02*
X132860057Y-104005094D01*
X132860057Y-104005094D02*
X132812438Y-103957475D01*
X132812438Y-103957475D02*
X132764819Y-103862237D01*
X132764819Y-103862237D02*
X132764819Y-103671761D01*
X132764819Y-103671761D02*
X132812438Y-103576523D01*
X132812438Y-103576523D02*
X132860057Y-103528904D01*
X132860057Y-103528904D02*
X132955295Y-103481285D01*
X132955295Y-103481285D02*
X133002914Y-103481285D01*
X133002914Y-103481285D02*
X133098152Y-103528904D01*
X133098152Y-103528904D02*
X133145771Y-103576523D01*
X133145771Y-103576523D02*
X133193390Y-103671761D01*
X133193390Y-103671761D02*
X133193390Y-103862237D01*
X133193390Y-103862237D02*
X133241009Y-103957475D01*
X133241009Y-103957475D02*
X133288628Y-104005094D01*
X133288628Y-104005094D02*
X133383866Y-104052713D01*
X133383866Y-104052713D02*
X133574342Y-104052713D01*
X133574342Y-104052713D02*
X133669580Y-104005094D01*
X133669580Y-104005094D02*
X133717200Y-103957475D01*
X133717200Y-103957475D02*
X133764819Y-103862237D01*
X133764819Y-103862237D02*
X133764819Y-103671761D01*
X133764819Y-103671761D02*
X133717200Y-103576523D01*
X133717200Y-103576523D02*
X133669580Y-103528904D01*
X133669580Y-103528904D02*
X133574342Y-103481285D01*
X133574342Y-103481285D02*
X133383866Y-103481285D01*
X133383866Y-103481285D02*
X133288628Y-103528904D01*
X133288628Y-103528904D02*
X133241009Y-103576523D01*
X133241009Y-103576523D02*
X133193390Y-103671761D01*
X160488333Y-83301819D02*
X160155000Y-82825628D01*
X159916905Y-83301819D02*
X159916905Y-82301819D01*
X159916905Y-82301819D02*
X160297857Y-82301819D01*
X160297857Y-82301819D02*
X160393095Y-82349438D01*
X160393095Y-82349438D02*
X160440714Y-82397057D01*
X160440714Y-82397057D02*
X160488333Y-82492295D01*
X160488333Y-82492295D02*
X160488333Y-82635152D01*
X160488333Y-82635152D02*
X160440714Y-82730390D01*
X160440714Y-82730390D02*
X160393095Y-82778009D01*
X160393095Y-82778009D02*
X160297857Y-82825628D01*
X160297857Y-82825628D02*
X159916905Y-82825628D01*
X161345476Y-82301819D02*
X161155000Y-82301819D01*
X161155000Y-82301819D02*
X161059762Y-82349438D01*
X161059762Y-82349438D02*
X161012143Y-82397057D01*
X161012143Y-82397057D02*
X160916905Y-82539914D01*
X160916905Y-82539914D02*
X160869286Y-82730390D01*
X160869286Y-82730390D02*
X160869286Y-83111342D01*
X160869286Y-83111342D02*
X160916905Y-83206580D01*
X160916905Y-83206580D02*
X160964524Y-83254200D01*
X160964524Y-83254200D02*
X161059762Y-83301819D01*
X161059762Y-83301819D02*
X161250238Y-83301819D01*
X161250238Y-83301819D02*
X161345476Y-83254200D01*
X161345476Y-83254200D02*
X161393095Y-83206580D01*
X161393095Y-83206580D02*
X161440714Y-83111342D01*
X161440714Y-83111342D02*
X161440714Y-82873247D01*
X161440714Y-82873247D02*
X161393095Y-82778009D01*
X161393095Y-82778009D02*
X161345476Y-82730390D01*
X161345476Y-82730390D02*
X161250238Y-82682771D01*
X161250238Y-82682771D02*
X161059762Y-82682771D01*
X161059762Y-82682771D02*
X160964524Y-82730390D01*
X160964524Y-82730390D02*
X160916905Y-82778009D01*
X160916905Y-82778009D02*
X160869286Y-82873247D01*
X124928333Y-94506580D02*
X124880714Y-94554200D01*
X124880714Y-94554200D02*
X124737857Y-94601819D01*
X124737857Y-94601819D02*
X124642619Y-94601819D01*
X124642619Y-94601819D02*
X124499762Y-94554200D01*
X124499762Y-94554200D02*
X124404524Y-94458961D01*
X124404524Y-94458961D02*
X124356905Y-94363723D01*
X124356905Y-94363723D02*
X124309286Y-94173247D01*
X124309286Y-94173247D02*
X124309286Y-94030390D01*
X124309286Y-94030390D02*
X124356905Y-93839914D01*
X124356905Y-93839914D02*
X124404524Y-93744676D01*
X124404524Y-93744676D02*
X124499762Y-93649438D01*
X124499762Y-93649438D02*
X124642619Y-93601819D01*
X124642619Y-93601819D02*
X124737857Y-93601819D01*
X124737857Y-93601819D02*
X124880714Y-93649438D01*
X124880714Y-93649438D02*
X124928333Y-93697057D01*
X125785476Y-93601819D02*
X125595000Y-93601819D01*
X125595000Y-93601819D02*
X125499762Y-93649438D01*
X125499762Y-93649438D02*
X125452143Y-93697057D01*
X125452143Y-93697057D02*
X125356905Y-93839914D01*
X125356905Y-93839914D02*
X125309286Y-94030390D01*
X125309286Y-94030390D02*
X125309286Y-94411342D01*
X125309286Y-94411342D02*
X125356905Y-94506580D01*
X125356905Y-94506580D02*
X125404524Y-94554200D01*
X125404524Y-94554200D02*
X125499762Y-94601819D01*
X125499762Y-94601819D02*
X125690238Y-94601819D01*
X125690238Y-94601819D02*
X125785476Y-94554200D01*
X125785476Y-94554200D02*
X125833095Y-94506580D01*
X125833095Y-94506580D02*
X125880714Y-94411342D01*
X125880714Y-94411342D02*
X125880714Y-94173247D01*
X125880714Y-94173247D02*
X125833095Y-94078009D01*
X125833095Y-94078009D02*
X125785476Y-94030390D01*
X125785476Y-94030390D02*
X125690238Y-93982771D01*
X125690238Y-93982771D02*
X125499762Y-93982771D01*
X125499762Y-93982771D02*
X125404524Y-94030390D01*
X125404524Y-94030390D02*
X125356905Y-94078009D01*
X125356905Y-94078009D02*
X125309286Y-94173247D01*
X167973476Y-122414819D02*
X167973476Y-123129104D01*
X167973476Y-123129104D02*
X167925857Y-123271961D01*
X167925857Y-123271961D02*
X167830619Y-123367200D01*
X167830619Y-123367200D02*
X167687762Y-123414819D01*
X167687762Y-123414819D02*
X167592524Y-123414819D01*
X168402048Y-122510057D02*
X168449667Y-122462438D01*
X168449667Y-122462438D02*
X168544905Y-122414819D01*
X168544905Y-122414819D02*
X168783000Y-122414819D01*
X168783000Y-122414819D02*
X168878238Y-122462438D01*
X168878238Y-122462438D02*
X168925857Y-122510057D01*
X168925857Y-122510057D02*
X168973476Y-122605295D01*
X168973476Y-122605295D02*
X168973476Y-122700533D01*
X168973476Y-122700533D02*
X168925857Y-122843390D01*
X168925857Y-122843390D02*
X168354429Y-123414819D01*
X168354429Y-123414819D02*
X168973476Y-123414819D01*
X169878238Y-122414819D02*
X169402048Y-122414819D01*
X169402048Y-122414819D02*
X169354429Y-122891009D01*
X169354429Y-122891009D02*
X169402048Y-122843390D01*
X169402048Y-122843390D02*
X169497286Y-122795771D01*
X169497286Y-122795771D02*
X169735381Y-122795771D01*
X169735381Y-122795771D02*
X169830619Y-122843390D01*
X169830619Y-122843390D02*
X169878238Y-122891009D01*
X169878238Y-122891009D02*
X169925857Y-122986247D01*
X169925857Y-122986247D02*
X169925857Y-123224342D01*
X169925857Y-123224342D02*
X169878238Y-123319580D01*
X169878238Y-123319580D02*
X169830619Y-123367200D01*
X169830619Y-123367200D02*
X169735381Y-123414819D01*
X169735381Y-123414819D02*
X169497286Y-123414819D01*
X169497286Y-123414819D02*
X169402048Y-123367200D01*
X169402048Y-123367200D02*
X169354429Y-123319580D01*
X174450476Y-78551819D02*
X174450476Y-79266104D01*
X174450476Y-79266104D02*
X174402857Y-79408961D01*
X174402857Y-79408961D02*
X174307619Y-79504200D01*
X174307619Y-79504200D02*
X174164762Y-79551819D01*
X174164762Y-79551819D02*
X174069524Y-79551819D01*
X175450476Y-79551819D02*
X174879048Y-79551819D01*
X175164762Y-79551819D02*
X175164762Y-78551819D01*
X175164762Y-78551819D02*
X175069524Y-78694676D01*
X175069524Y-78694676D02*
X174974286Y-78789914D01*
X174974286Y-78789914D02*
X174879048Y-78837533D01*
X176355238Y-78551819D02*
X175879048Y-78551819D01*
X175879048Y-78551819D02*
X175831429Y-79028009D01*
X175831429Y-79028009D02*
X175879048Y-78980390D01*
X175879048Y-78980390D02*
X175974286Y-78932771D01*
X175974286Y-78932771D02*
X176212381Y-78932771D01*
X176212381Y-78932771D02*
X176307619Y-78980390D01*
X176307619Y-78980390D02*
X176355238Y-79028009D01*
X176355238Y-79028009D02*
X176402857Y-79123247D01*
X176402857Y-79123247D02*
X176402857Y-79361342D01*
X176402857Y-79361342D02*
X176355238Y-79456580D01*
X176355238Y-79456580D02*
X176307619Y-79504200D01*
X176307619Y-79504200D02*
X176212381Y-79551819D01*
X176212381Y-79551819D02*
X175974286Y-79551819D01*
X175974286Y-79551819D02*
X175879048Y-79504200D01*
X175879048Y-79504200D02*
X175831429Y-79456580D01*
X158051666Y-106651819D02*
X157718333Y-106175628D01*
X157480238Y-106651819D02*
X157480238Y-105651819D01*
X157480238Y-105651819D02*
X157861190Y-105651819D01*
X157861190Y-105651819D02*
X157956428Y-105699438D01*
X157956428Y-105699438D02*
X158004047Y-105747057D01*
X158004047Y-105747057D02*
X158051666Y-105842295D01*
X158051666Y-105842295D02*
X158051666Y-105985152D01*
X158051666Y-105985152D02*
X158004047Y-106080390D01*
X158004047Y-106080390D02*
X157956428Y-106128009D01*
X157956428Y-106128009D02*
X157861190Y-106175628D01*
X157861190Y-106175628D02*
X157480238Y-106175628D01*
X158480238Y-106128009D02*
X158813571Y-106128009D01*
X158956428Y-106651819D02*
X158480238Y-106651819D01*
X158480238Y-106651819D02*
X158480238Y-105651819D01*
X158480238Y-105651819D02*
X158956428Y-105651819D01*
X159718333Y-106128009D02*
X159385000Y-106128009D01*
X159385000Y-106651819D02*
X159385000Y-105651819D01*
X159385000Y-105651819D02*
X159861190Y-105651819D01*
X160385000Y-105651819D02*
X160385000Y-105889914D01*
X160146905Y-105794676D02*
X160385000Y-105889914D01*
X160385000Y-105889914D02*
X160623095Y-105794676D01*
X160242143Y-106080390D02*
X160385000Y-105889914D01*
X160385000Y-105889914D02*
X160527857Y-106080390D01*
X161146905Y-105651819D02*
X161146905Y-105889914D01*
X160908810Y-105794676D02*
X161146905Y-105889914D01*
X161146905Y-105889914D02*
X161385000Y-105794676D01*
X161004048Y-106080390D02*
X161146905Y-105889914D01*
X161146905Y-105889914D02*
X161289762Y-106080390D01*
X171442142Y-91251580D02*
X171394523Y-91299200D01*
X171394523Y-91299200D02*
X171251666Y-91346819D01*
X171251666Y-91346819D02*
X171156428Y-91346819D01*
X171156428Y-91346819D02*
X171013571Y-91299200D01*
X171013571Y-91299200D02*
X170918333Y-91203961D01*
X170918333Y-91203961D02*
X170870714Y-91108723D01*
X170870714Y-91108723D02*
X170823095Y-90918247D01*
X170823095Y-90918247D02*
X170823095Y-90775390D01*
X170823095Y-90775390D02*
X170870714Y-90584914D01*
X170870714Y-90584914D02*
X170918333Y-90489676D01*
X170918333Y-90489676D02*
X171013571Y-90394438D01*
X171013571Y-90394438D02*
X171156428Y-90346819D01*
X171156428Y-90346819D02*
X171251666Y-90346819D01*
X171251666Y-90346819D02*
X171394523Y-90394438D01*
X171394523Y-90394438D02*
X171442142Y-90442057D01*
X172394523Y-91346819D02*
X171823095Y-91346819D01*
X172108809Y-91346819D02*
X172108809Y-90346819D01*
X172108809Y-90346819D02*
X172013571Y-90489676D01*
X172013571Y-90489676D02*
X171918333Y-90584914D01*
X171918333Y-90584914D02*
X171823095Y-90632533D01*
X172870714Y-91346819D02*
X173061190Y-91346819D01*
X173061190Y-91346819D02*
X173156428Y-91299200D01*
X173156428Y-91299200D02*
X173204047Y-91251580D01*
X173204047Y-91251580D02*
X173299285Y-91108723D01*
X173299285Y-91108723D02*
X173346904Y-90918247D01*
X173346904Y-90918247D02*
X173346904Y-90537295D01*
X173346904Y-90537295D02*
X173299285Y-90442057D01*
X173299285Y-90442057D02*
X173251666Y-90394438D01*
X173251666Y-90394438D02*
X173156428Y-90346819D01*
X173156428Y-90346819D02*
X172965952Y-90346819D01*
X172965952Y-90346819D02*
X172870714Y-90394438D01*
X172870714Y-90394438D02*
X172823095Y-90442057D01*
X172823095Y-90442057D02*
X172775476Y-90537295D01*
X172775476Y-90537295D02*
X172775476Y-90775390D01*
X172775476Y-90775390D02*
X172823095Y-90870628D01*
X172823095Y-90870628D02*
X172870714Y-90918247D01*
X172870714Y-90918247D02*
X172965952Y-90965866D01*
X172965952Y-90965866D02*
X173156428Y-90965866D01*
X173156428Y-90965866D02*
X173251666Y-90918247D01*
X173251666Y-90918247D02*
X173299285Y-90870628D01*
X173299285Y-90870628D02*
X173346904Y-90775390D01*
X113966666Y-98411819D02*
X113966666Y-99126104D01*
X113966666Y-99126104D02*
X113919047Y-99268961D01*
X113919047Y-99268961D02*
X113823809Y-99364200D01*
X113823809Y-99364200D02*
X113680952Y-99411819D01*
X113680952Y-99411819D02*
X113585714Y-99411819D01*
X114347619Y-98411819D02*
X114966666Y-98411819D01*
X114966666Y-98411819D02*
X114633333Y-98792771D01*
X114633333Y-98792771D02*
X114776190Y-98792771D01*
X114776190Y-98792771D02*
X114871428Y-98840390D01*
X114871428Y-98840390D02*
X114919047Y-98888009D01*
X114919047Y-98888009D02*
X114966666Y-98983247D01*
X114966666Y-98983247D02*
X114966666Y-99221342D01*
X114966666Y-99221342D02*
X114919047Y-99316580D01*
X114919047Y-99316580D02*
X114871428Y-99364200D01*
X114871428Y-99364200D02*
X114776190Y-99411819D01*
X114776190Y-99411819D02*
X114490476Y-99411819D01*
X114490476Y-99411819D02*
X114395238Y-99364200D01*
X114395238Y-99364200D02*
X114347619Y-99316580D01*
X117411666Y-106651819D02*
X117078333Y-106175628D01*
X116840238Y-106651819D02*
X116840238Y-105651819D01*
X116840238Y-105651819D02*
X117221190Y-105651819D01*
X117221190Y-105651819D02*
X117316428Y-105699438D01*
X117316428Y-105699438D02*
X117364047Y-105747057D01*
X117364047Y-105747057D02*
X117411666Y-105842295D01*
X117411666Y-105842295D02*
X117411666Y-105985152D01*
X117411666Y-105985152D02*
X117364047Y-106080390D01*
X117364047Y-106080390D02*
X117316428Y-106128009D01*
X117316428Y-106128009D02*
X117221190Y-106175628D01*
X117221190Y-106175628D02*
X116840238Y-106175628D01*
X117840238Y-106128009D02*
X118173571Y-106128009D01*
X118316428Y-106651819D02*
X117840238Y-106651819D01*
X117840238Y-106651819D02*
X117840238Y-105651819D01*
X117840238Y-105651819D02*
X118316428Y-105651819D01*
X119078333Y-106128009D02*
X118745000Y-106128009D01*
X118745000Y-106651819D02*
X118745000Y-105651819D01*
X118745000Y-105651819D02*
X119221190Y-105651819D01*
X119745000Y-105651819D02*
X119745000Y-105889914D01*
X119506905Y-105794676D02*
X119745000Y-105889914D01*
X119745000Y-105889914D02*
X119983095Y-105794676D01*
X119602143Y-106080390D02*
X119745000Y-105889914D01*
X119745000Y-105889914D02*
X119887857Y-106080390D01*
X120506905Y-105651819D02*
X120506905Y-105889914D01*
X120268810Y-105794676D02*
X120506905Y-105889914D01*
X120506905Y-105889914D02*
X120745000Y-105794676D01*
X120364048Y-106080390D02*
X120506905Y-105889914D01*
X120506905Y-105889914D02*
X120649762Y-106080390D01*
X135715476Y-70471819D02*
X135715476Y-71186104D01*
X135715476Y-71186104D02*
X135667857Y-71328961D01*
X135667857Y-71328961D02*
X135572619Y-71424200D01*
X135572619Y-71424200D02*
X135429762Y-71471819D01*
X135429762Y-71471819D02*
X135334524Y-71471819D01*
X136096429Y-70471819D02*
X136715476Y-70471819D01*
X136715476Y-70471819D02*
X136382143Y-70852771D01*
X136382143Y-70852771D02*
X136525000Y-70852771D01*
X136525000Y-70852771D02*
X136620238Y-70900390D01*
X136620238Y-70900390D02*
X136667857Y-70948009D01*
X136667857Y-70948009D02*
X136715476Y-71043247D01*
X136715476Y-71043247D02*
X136715476Y-71281342D01*
X136715476Y-71281342D02*
X136667857Y-71376580D01*
X136667857Y-71376580D02*
X136620238Y-71424200D01*
X136620238Y-71424200D02*
X136525000Y-71471819D01*
X136525000Y-71471819D02*
X136239286Y-71471819D01*
X136239286Y-71471819D02*
X136144048Y-71424200D01*
X136144048Y-71424200D02*
X136096429Y-71376580D01*
X137334524Y-70471819D02*
X137429762Y-70471819D01*
X137429762Y-70471819D02*
X137525000Y-70519438D01*
X137525000Y-70519438D02*
X137572619Y-70567057D01*
X137572619Y-70567057D02*
X137620238Y-70662295D01*
X137620238Y-70662295D02*
X137667857Y-70852771D01*
X137667857Y-70852771D02*
X137667857Y-71090866D01*
X137667857Y-71090866D02*
X137620238Y-71281342D01*
X137620238Y-71281342D02*
X137572619Y-71376580D01*
X137572619Y-71376580D02*
X137525000Y-71424200D01*
X137525000Y-71424200D02*
X137429762Y-71471819D01*
X137429762Y-71471819D02*
X137334524Y-71471819D01*
X137334524Y-71471819D02*
X137239286Y-71424200D01*
X137239286Y-71424200D02*
X137191667Y-71376580D01*
X137191667Y-71376580D02*
X137144048Y-71281342D01*
X137144048Y-71281342D02*
X137096429Y-71090866D01*
X137096429Y-71090866D02*
X137096429Y-70852771D01*
X137096429Y-70852771D02*
X137144048Y-70662295D01*
X137144048Y-70662295D02*
X137191667Y-70567057D01*
X137191667Y-70567057D02*
X137239286Y-70519438D01*
X137239286Y-70519438D02*
X137334524Y-70471819D01*
X117141666Y-69661819D02*
X117141666Y-70376104D01*
X117141666Y-70376104D02*
X117094047Y-70518961D01*
X117094047Y-70518961D02*
X116998809Y-70614200D01*
X116998809Y-70614200D02*
X116855952Y-70661819D01*
X116855952Y-70661819D02*
X116760714Y-70661819D01*
X117760714Y-70090390D02*
X117665476Y-70042771D01*
X117665476Y-70042771D02*
X117617857Y-69995152D01*
X117617857Y-69995152D02*
X117570238Y-69899914D01*
X117570238Y-69899914D02*
X117570238Y-69852295D01*
X117570238Y-69852295D02*
X117617857Y-69757057D01*
X117617857Y-69757057D02*
X117665476Y-69709438D01*
X117665476Y-69709438D02*
X117760714Y-69661819D01*
X117760714Y-69661819D02*
X117951190Y-69661819D01*
X117951190Y-69661819D02*
X118046428Y-69709438D01*
X118046428Y-69709438D02*
X118094047Y-69757057D01*
X118094047Y-69757057D02*
X118141666Y-69852295D01*
X118141666Y-69852295D02*
X118141666Y-69899914D01*
X118141666Y-69899914D02*
X118094047Y-69995152D01*
X118094047Y-69995152D02*
X118046428Y-70042771D01*
X118046428Y-70042771D02*
X117951190Y-70090390D01*
X117951190Y-70090390D02*
X117760714Y-70090390D01*
X117760714Y-70090390D02*
X117665476Y-70138009D01*
X117665476Y-70138009D02*
X117617857Y-70185628D01*
X117617857Y-70185628D02*
X117570238Y-70280866D01*
X117570238Y-70280866D02*
X117570238Y-70471342D01*
X117570238Y-70471342D02*
X117617857Y-70566580D01*
X117617857Y-70566580D02*
X117665476Y-70614200D01*
X117665476Y-70614200D02*
X117760714Y-70661819D01*
X117760714Y-70661819D02*
X117951190Y-70661819D01*
X117951190Y-70661819D02*
X118046428Y-70614200D01*
X118046428Y-70614200D02*
X118094047Y-70566580D01*
X118094047Y-70566580D02*
X118141666Y-70471342D01*
X118141666Y-70471342D02*
X118141666Y-70280866D01*
X118141666Y-70280866D02*
X118094047Y-70185628D01*
X118094047Y-70185628D02*
X118046428Y-70138009D01*
X118046428Y-70138009D02*
X117951190Y-70090390D01*
X132381666Y-97601819D02*
X132381666Y-98316104D01*
X132381666Y-98316104D02*
X132334047Y-98458961D01*
X132334047Y-98458961D02*
X132238809Y-98554200D01*
X132238809Y-98554200D02*
X132095952Y-98601819D01*
X132095952Y-98601819D02*
X132000714Y-98601819D01*
X133381666Y-98601819D02*
X132810238Y-98601819D01*
X133095952Y-98601819D02*
X133095952Y-97601819D01*
X133095952Y-97601819D02*
X133000714Y-97744676D01*
X133000714Y-97744676D02*
X132905476Y-97839914D01*
X132905476Y-97839914D02*
X132810238Y-97887533D01*
X174519580Y-77283666D02*
X174567200Y-77331285D01*
X174567200Y-77331285D02*
X174614819Y-77474142D01*
X174614819Y-77474142D02*
X174614819Y-77569380D01*
X174614819Y-77569380D02*
X174567200Y-77712237D01*
X174567200Y-77712237D02*
X174471961Y-77807475D01*
X174471961Y-77807475D02*
X174376723Y-77855094D01*
X174376723Y-77855094D02*
X174186247Y-77902713D01*
X174186247Y-77902713D02*
X174043390Y-77902713D01*
X174043390Y-77902713D02*
X173852914Y-77855094D01*
X173852914Y-77855094D02*
X173757676Y-77807475D01*
X173757676Y-77807475D02*
X173662438Y-77712237D01*
X173662438Y-77712237D02*
X173614819Y-77569380D01*
X173614819Y-77569380D02*
X173614819Y-77474142D01*
X173614819Y-77474142D02*
X173662438Y-77331285D01*
X173662438Y-77331285D02*
X173710057Y-77283666D01*
X173710057Y-76902713D02*
X173662438Y-76855094D01*
X173662438Y-76855094D02*
X173614819Y-76759856D01*
X173614819Y-76759856D02*
X173614819Y-76521761D01*
X173614819Y-76521761D02*
X173662438Y-76426523D01*
X173662438Y-76426523D02*
X173710057Y-76378904D01*
X173710057Y-76378904D02*
X173805295Y-76331285D01*
X173805295Y-76331285D02*
X173900533Y-76331285D01*
X173900533Y-76331285D02*
X174043390Y-76378904D01*
X174043390Y-76378904D02*
X174614819Y-76950332D01*
X174614819Y-76950332D02*
X174614819Y-76331285D01*
X150328333Y-93461819D02*
X149995000Y-92985628D01*
X149756905Y-93461819D02*
X149756905Y-92461819D01*
X149756905Y-92461819D02*
X150137857Y-92461819D01*
X150137857Y-92461819D02*
X150233095Y-92509438D01*
X150233095Y-92509438D02*
X150280714Y-92557057D01*
X150280714Y-92557057D02*
X150328333Y-92652295D01*
X150328333Y-92652295D02*
X150328333Y-92795152D01*
X150328333Y-92795152D02*
X150280714Y-92890390D01*
X150280714Y-92890390D02*
X150233095Y-92938009D01*
X150233095Y-92938009D02*
X150137857Y-92985628D01*
X150137857Y-92985628D02*
X149756905Y-92985628D01*
X150661667Y-92461819D02*
X151280714Y-92461819D01*
X151280714Y-92461819D02*
X150947381Y-92842771D01*
X150947381Y-92842771D02*
X151090238Y-92842771D01*
X151090238Y-92842771D02*
X151185476Y-92890390D01*
X151185476Y-92890390D02*
X151233095Y-92938009D01*
X151233095Y-92938009D02*
X151280714Y-93033247D01*
X151280714Y-93033247D02*
X151280714Y-93271342D01*
X151280714Y-93271342D02*
X151233095Y-93366580D01*
X151233095Y-93366580D02*
X151185476Y-93414200D01*
X151185476Y-93414200D02*
X151090238Y-93461819D01*
X151090238Y-93461819D02*
X150804524Y-93461819D01*
X150804524Y-93461819D02*
X150709286Y-93414200D01*
X150709286Y-93414200D02*
X150661667Y-93366580D01*
X126224819Y-129365333D02*
X126939104Y-129365333D01*
X126939104Y-129365333D02*
X127081961Y-129412952D01*
X127081961Y-129412952D02*
X127177200Y-129508190D01*
X127177200Y-129508190D02*
X127224819Y-129651047D01*
X127224819Y-129651047D02*
X127224819Y-129746285D01*
X127224819Y-128841523D02*
X127224819Y-128651047D01*
X127224819Y-128651047D02*
X127177200Y-128555809D01*
X127177200Y-128555809D02*
X127129580Y-128508190D01*
X127129580Y-128508190D02*
X126986723Y-128412952D01*
X126986723Y-128412952D02*
X126796247Y-128365333D01*
X126796247Y-128365333D02*
X126415295Y-128365333D01*
X126415295Y-128365333D02*
X126320057Y-128412952D01*
X126320057Y-128412952D02*
X126272438Y-128460571D01*
X126272438Y-128460571D02*
X126224819Y-128555809D01*
X126224819Y-128555809D02*
X126224819Y-128746285D01*
X126224819Y-128746285D02*
X126272438Y-128841523D01*
X126272438Y-128841523D02*
X126320057Y-128889142D01*
X126320057Y-128889142D02*
X126415295Y-128936761D01*
X126415295Y-128936761D02*
X126653390Y-128936761D01*
X126653390Y-128936761D02*
X126748628Y-128889142D01*
X126748628Y-128889142D02*
X126796247Y-128841523D01*
X126796247Y-128841523D02*
X126843866Y-128746285D01*
X126843866Y-128746285D02*
X126843866Y-128555809D01*
X126843866Y-128555809D02*
X126796247Y-128460571D01*
X126796247Y-128460571D02*
X126748628Y-128412952D01*
X126748628Y-128412952D02*
X126653390Y-128365333D01*
X148989580Y-115069857D02*
X149037200Y-115117476D01*
X149037200Y-115117476D02*
X149084819Y-115260333D01*
X149084819Y-115260333D02*
X149084819Y-115355571D01*
X149084819Y-115355571D02*
X149037200Y-115498428D01*
X149037200Y-115498428D02*
X148941961Y-115593666D01*
X148941961Y-115593666D02*
X148846723Y-115641285D01*
X148846723Y-115641285D02*
X148656247Y-115688904D01*
X148656247Y-115688904D02*
X148513390Y-115688904D01*
X148513390Y-115688904D02*
X148322914Y-115641285D01*
X148322914Y-115641285D02*
X148227676Y-115593666D01*
X148227676Y-115593666D02*
X148132438Y-115498428D01*
X148132438Y-115498428D02*
X148084819Y-115355571D01*
X148084819Y-115355571D02*
X148084819Y-115260333D01*
X148084819Y-115260333D02*
X148132438Y-115117476D01*
X148132438Y-115117476D02*
X148180057Y-115069857D01*
X149084819Y-114117476D02*
X149084819Y-114688904D01*
X149084819Y-114403190D02*
X148084819Y-114403190D01*
X148084819Y-114403190D02*
X148227676Y-114498428D01*
X148227676Y-114498428D02*
X148322914Y-114593666D01*
X148322914Y-114593666D02*
X148370533Y-114688904D01*
X148180057Y-113736523D02*
X148132438Y-113688904D01*
X148132438Y-113688904D02*
X148084819Y-113593666D01*
X148084819Y-113593666D02*
X148084819Y-113355571D01*
X148084819Y-113355571D02*
X148132438Y-113260333D01*
X148132438Y-113260333D02*
X148180057Y-113212714D01*
X148180057Y-113212714D02*
X148275295Y-113165095D01*
X148275295Y-113165095D02*
X148370533Y-113165095D01*
X148370533Y-113165095D02*
X148513390Y-113212714D01*
X148513390Y-113212714D02*
X149084819Y-113784142D01*
X149084819Y-113784142D02*
X149084819Y-113165095D01*
X134921666Y-98411819D02*
X134921666Y-99126104D01*
X134921666Y-99126104D02*
X134874047Y-99268961D01*
X134874047Y-99268961D02*
X134778809Y-99364200D01*
X134778809Y-99364200D02*
X134635952Y-99411819D01*
X134635952Y-99411819D02*
X134540714Y-99411819D01*
X135874047Y-98411819D02*
X135397857Y-98411819D01*
X135397857Y-98411819D02*
X135350238Y-98888009D01*
X135350238Y-98888009D02*
X135397857Y-98840390D01*
X135397857Y-98840390D02*
X135493095Y-98792771D01*
X135493095Y-98792771D02*
X135731190Y-98792771D01*
X135731190Y-98792771D02*
X135826428Y-98840390D01*
X135826428Y-98840390D02*
X135874047Y-98888009D01*
X135874047Y-98888009D02*
X135921666Y-98983247D01*
X135921666Y-98983247D02*
X135921666Y-99221342D01*
X135921666Y-99221342D02*
X135874047Y-99316580D01*
X135874047Y-99316580D02*
X135826428Y-99364200D01*
X135826428Y-99364200D02*
X135731190Y-99411819D01*
X135731190Y-99411819D02*
X135493095Y-99411819D01*
X135493095Y-99411819D02*
X135397857Y-99364200D01*
X135397857Y-99364200D02*
X135350238Y-99316580D01*
X165419580Y-77763666D02*
X165467200Y-77811285D01*
X165467200Y-77811285D02*
X165514819Y-77954142D01*
X165514819Y-77954142D02*
X165514819Y-78049380D01*
X165514819Y-78049380D02*
X165467200Y-78192237D01*
X165467200Y-78192237D02*
X165371961Y-78287475D01*
X165371961Y-78287475D02*
X165276723Y-78335094D01*
X165276723Y-78335094D02*
X165086247Y-78382713D01*
X165086247Y-78382713D02*
X164943390Y-78382713D01*
X164943390Y-78382713D02*
X164752914Y-78335094D01*
X164752914Y-78335094D02*
X164657676Y-78287475D01*
X164657676Y-78287475D02*
X164562438Y-78192237D01*
X164562438Y-78192237D02*
X164514819Y-78049380D01*
X164514819Y-78049380D02*
X164514819Y-77954142D01*
X164514819Y-77954142D02*
X164562438Y-77811285D01*
X164562438Y-77811285D02*
X164610057Y-77763666D01*
X164514819Y-77430332D02*
X164514819Y-76811285D01*
X164514819Y-76811285D02*
X164895771Y-77144618D01*
X164895771Y-77144618D02*
X164895771Y-77001761D01*
X164895771Y-77001761D02*
X164943390Y-76906523D01*
X164943390Y-76906523D02*
X164991009Y-76858904D01*
X164991009Y-76858904D02*
X165086247Y-76811285D01*
X165086247Y-76811285D02*
X165324342Y-76811285D01*
X165324342Y-76811285D02*
X165419580Y-76858904D01*
X165419580Y-76858904D02*
X165467200Y-76906523D01*
X165467200Y-76906523D02*
X165514819Y-77001761D01*
X165514819Y-77001761D02*
X165514819Y-77287475D01*
X165514819Y-77287475D02*
X165467200Y-77382713D01*
X165467200Y-77382713D02*
X165419580Y-77430332D01*
X114159819Y-69770523D02*
X114874104Y-69770523D01*
X114874104Y-69770523D02*
X115016961Y-69818142D01*
X115016961Y-69818142D02*
X115112200Y-69913380D01*
X115112200Y-69913380D02*
X115159819Y-70056237D01*
X115159819Y-70056237D02*
X115159819Y-70151475D01*
X115159819Y-68770523D02*
X115159819Y-69341951D01*
X115159819Y-69056237D02*
X114159819Y-69056237D01*
X114159819Y-69056237D02*
X114302676Y-69151475D01*
X114302676Y-69151475D02*
X114397914Y-69246713D01*
X114397914Y-69246713D02*
X114445533Y-69341951D01*
X114159819Y-68151475D02*
X114159819Y-68056237D01*
X114159819Y-68056237D02*
X114207438Y-67960999D01*
X114207438Y-67960999D02*
X114255057Y-67913380D01*
X114255057Y-67913380D02*
X114350295Y-67865761D01*
X114350295Y-67865761D02*
X114540771Y-67818142D01*
X114540771Y-67818142D02*
X114778866Y-67818142D01*
X114778866Y-67818142D02*
X114969342Y-67865761D01*
X114969342Y-67865761D02*
X115064580Y-67913380D01*
X115064580Y-67913380D02*
X115112200Y-67960999D01*
X115112200Y-67960999D02*
X115159819Y-68056237D01*
X115159819Y-68056237D02*
X115159819Y-68151475D01*
X115159819Y-68151475D02*
X115112200Y-68246713D01*
X115112200Y-68246713D02*
X115064580Y-68294332D01*
X115064580Y-68294332D02*
X114969342Y-68341951D01*
X114969342Y-68341951D02*
X114778866Y-68389570D01*
X114778866Y-68389570D02*
X114540771Y-68389570D01*
X114540771Y-68389570D02*
X114350295Y-68341951D01*
X114350295Y-68341951D02*
X114255057Y-68294332D01*
X114255057Y-68294332D02*
X114207438Y-68246713D01*
X114207438Y-68246713D02*
X114159819Y-68151475D01*
X169309580Y-109354857D02*
X169357200Y-109402476D01*
X169357200Y-109402476D02*
X169404819Y-109545333D01*
X169404819Y-109545333D02*
X169404819Y-109640571D01*
X169404819Y-109640571D02*
X169357200Y-109783428D01*
X169357200Y-109783428D02*
X169261961Y-109878666D01*
X169261961Y-109878666D02*
X169166723Y-109926285D01*
X169166723Y-109926285D02*
X168976247Y-109973904D01*
X168976247Y-109973904D02*
X168833390Y-109973904D01*
X168833390Y-109973904D02*
X168642914Y-109926285D01*
X168642914Y-109926285D02*
X168547676Y-109878666D01*
X168547676Y-109878666D02*
X168452438Y-109783428D01*
X168452438Y-109783428D02*
X168404819Y-109640571D01*
X168404819Y-109640571D02*
X168404819Y-109545333D01*
X168404819Y-109545333D02*
X168452438Y-109402476D01*
X168452438Y-109402476D02*
X168500057Y-109354857D01*
X169404819Y-108402476D02*
X169404819Y-108973904D01*
X169404819Y-108688190D02*
X168404819Y-108688190D01*
X168404819Y-108688190D02*
X168547676Y-108783428D01*
X168547676Y-108783428D02*
X168642914Y-108878666D01*
X168642914Y-108878666D02*
X168690533Y-108973904D01*
X168404819Y-107497714D02*
X168404819Y-107973904D01*
X168404819Y-107973904D02*
X168881009Y-108021523D01*
X168881009Y-108021523D02*
X168833390Y-107973904D01*
X168833390Y-107973904D02*
X168785771Y-107878666D01*
X168785771Y-107878666D02*
X168785771Y-107640571D01*
X168785771Y-107640571D02*
X168833390Y-107545333D01*
X168833390Y-107545333D02*
X168881009Y-107497714D01*
X168881009Y-107497714D02*
X168976247Y-107450095D01*
X168976247Y-107450095D02*
X169214342Y-107450095D01*
X169214342Y-107450095D02*
X169309580Y-107497714D01*
X169309580Y-107497714D02*
X169357200Y-107545333D01*
X169357200Y-107545333D02*
X169404819Y-107640571D01*
X169404819Y-107640571D02*
X169404819Y-107878666D01*
X169404819Y-107878666D02*
X169357200Y-107973904D01*
X169357200Y-107973904D02*
X169309580Y-108021523D01*
X141002142Y-93156580D02*
X140954523Y-93204200D01*
X140954523Y-93204200D02*
X140811666Y-93251819D01*
X140811666Y-93251819D02*
X140716428Y-93251819D01*
X140716428Y-93251819D02*
X140573571Y-93204200D01*
X140573571Y-93204200D02*
X140478333Y-93108961D01*
X140478333Y-93108961D02*
X140430714Y-93013723D01*
X140430714Y-93013723D02*
X140383095Y-92823247D01*
X140383095Y-92823247D02*
X140383095Y-92680390D01*
X140383095Y-92680390D02*
X140430714Y-92489914D01*
X140430714Y-92489914D02*
X140478333Y-92394676D01*
X140478333Y-92394676D02*
X140573571Y-92299438D01*
X140573571Y-92299438D02*
X140716428Y-92251819D01*
X140716428Y-92251819D02*
X140811666Y-92251819D01*
X140811666Y-92251819D02*
X140954523Y-92299438D01*
X140954523Y-92299438D02*
X141002142Y-92347057D01*
X141954523Y-93251819D02*
X141383095Y-93251819D01*
X141668809Y-93251819D02*
X141668809Y-92251819D01*
X141668809Y-92251819D02*
X141573571Y-92394676D01*
X141573571Y-92394676D02*
X141478333Y-92489914D01*
X141478333Y-92489914D02*
X141383095Y-92537533D01*
X142811666Y-92251819D02*
X142621190Y-92251819D01*
X142621190Y-92251819D02*
X142525952Y-92299438D01*
X142525952Y-92299438D02*
X142478333Y-92347057D01*
X142478333Y-92347057D02*
X142383095Y-92489914D01*
X142383095Y-92489914D02*
X142335476Y-92680390D01*
X142335476Y-92680390D02*
X142335476Y-93061342D01*
X142335476Y-93061342D02*
X142383095Y-93156580D01*
X142383095Y-93156580D02*
X142430714Y-93204200D01*
X142430714Y-93204200D02*
X142525952Y-93251819D01*
X142525952Y-93251819D02*
X142716428Y-93251819D01*
X142716428Y-93251819D02*
X142811666Y-93204200D01*
X142811666Y-93204200D02*
X142859285Y-93156580D01*
X142859285Y-93156580D02*
X142906904Y-93061342D01*
X142906904Y-93061342D02*
X142906904Y-92823247D01*
X142906904Y-92823247D02*
X142859285Y-92728009D01*
X142859285Y-92728009D02*
X142811666Y-92680390D01*
X142811666Y-92680390D02*
X142716428Y-92632771D01*
X142716428Y-92632771D02*
X142525952Y-92632771D01*
X142525952Y-92632771D02*
X142430714Y-92680390D01*
X142430714Y-92680390D02*
X142383095Y-92728009D01*
X142383095Y-92728009D02*
X142335476Y-92823247D01*
X170648333Y-83301819D02*
X170315000Y-82825628D01*
X170076905Y-83301819D02*
X170076905Y-82301819D01*
X170076905Y-82301819D02*
X170457857Y-82301819D01*
X170457857Y-82301819D02*
X170553095Y-82349438D01*
X170553095Y-82349438D02*
X170600714Y-82397057D01*
X170600714Y-82397057D02*
X170648333Y-82492295D01*
X170648333Y-82492295D02*
X170648333Y-82635152D01*
X170648333Y-82635152D02*
X170600714Y-82730390D01*
X170600714Y-82730390D02*
X170553095Y-82778009D01*
X170553095Y-82778009D02*
X170457857Y-82825628D01*
X170457857Y-82825628D02*
X170076905Y-82825628D01*
X171219762Y-82730390D02*
X171124524Y-82682771D01*
X171124524Y-82682771D02*
X171076905Y-82635152D01*
X171076905Y-82635152D02*
X171029286Y-82539914D01*
X171029286Y-82539914D02*
X171029286Y-82492295D01*
X171029286Y-82492295D02*
X171076905Y-82397057D01*
X171076905Y-82397057D02*
X171124524Y-82349438D01*
X171124524Y-82349438D02*
X171219762Y-82301819D01*
X171219762Y-82301819D02*
X171410238Y-82301819D01*
X171410238Y-82301819D02*
X171505476Y-82349438D01*
X171505476Y-82349438D02*
X171553095Y-82397057D01*
X171553095Y-82397057D02*
X171600714Y-82492295D01*
X171600714Y-82492295D02*
X171600714Y-82539914D01*
X171600714Y-82539914D02*
X171553095Y-82635152D01*
X171553095Y-82635152D02*
X171505476Y-82682771D01*
X171505476Y-82682771D02*
X171410238Y-82730390D01*
X171410238Y-82730390D02*
X171219762Y-82730390D01*
X171219762Y-82730390D02*
X171124524Y-82778009D01*
X171124524Y-82778009D02*
X171076905Y-82825628D01*
X171076905Y-82825628D02*
X171029286Y-82920866D01*
X171029286Y-82920866D02*
X171029286Y-83111342D01*
X171029286Y-83111342D02*
X171076905Y-83206580D01*
X171076905Y-83206580D02*
X171124524Y-83254200D01*
X171124524Y-83254200D02*
X171219762Y-83301819D01*
X171219762Y-83301819D02*
X171410238Y-83301819D01*
X171410238Y-83301819D02*
X171505476Y-83254200D01*
X171505476Y-83254200D02*
X171553095Y-83206580D01*
X171553095Y-83206580D02*
X171600714Y-83111342D01*
X171600714Y-83111342D02*
X171600714Y-82920866D01*
X171600714Y-82920866D02*
X171553095Y-82825628D01*
X171553095Y-82825628D02*
X171505476Y-82778009D01*
X171505476Y-82778009D02*
X171410238Y-82730390D01*
X125409580Y-103183666D02*
X125457200Y-103231285D01*
X125457200Y-103231285D02*
X125504819Y-103374142D01*
X125504819Y-103374142D02*
X125504819Y-103469380D01*
X125504819Y-103469380D02*
X125457200Y-103612237D01*
X125457200Y-103612237D02*
X125361961Y-103707475D01*
X125361961Y-103707475D02*
X125266723Y-103755094D01*
X125266723Y-103755094D02*
X125076247Y-103802713D01*
X125076247Y-103802713D02*
X124933390Y-103802713D01*
X124933390Y-103802713D02*
X124742914Y-103755094D01*
X124742914Y-103755094D02*
X124647676Y-103707475D01*
X124647676Y-103707475D02*
X124552438Y-103612237D01*
X124552438Y-103612237D02*
X124504819Y-103469380D01*
X124504819Y-103469380D02*
X124504819Y-103374142D01*
X124504819Y-103374142D02*
X124552438Y-103231285D01*
X124552438Y-103231285D02*
X124600057Y-103183666D01*
X124504819Y-102850332D02*
X124504819Y-102183666D01*
X124504819Y-102183666D02*
X125504819Y-102612237D01*
D11*
X127232976Y-76253497D02*
X122608497Y-80877975D01*
X126999630Y-76020152D02*
X127232976Y-76253497D01*
X125528848Y-74549370D02*
X125295503Y-74316024D01*
X125295503Y-74316024D02*
X120671025Y-78940503D01*
X122608497Y-80877975D02*
X122375152Y-80644630D01*
X120671025Y-78940503D02*
X120904370Y-79173848D01*
X155169999Y-78237000D02*
X152284999Y-78237000D01*
X155169999Y-78397000D02*
X152334001Y-78397000D01*
X155169999Y-78837000D02*
X152506000Y-78837000D01*
X155169999Y-79277000D02*
X152742000Y-79277000D01*
X155169999Y-79717000D02*
X153054000Y-79716999D01*
X155170000Y-77837000D02*
X152193000Y-77837000D01*
X155170000Y-77877000D02*
X152201000Y-77877000D01*
X155170000Y-77917000D02*
X152208000Y-77917000D01*
X155170000Y-77957001D02*
X152217000Y-77957000D01*
X155170000Y-77997000D02*
X152225000Y-77997000D01*
X155170000Y-78037000D02*
X152234000Y-78037001D01*
X155170000Y-78076999D02*
X152243000Y-78077000D01*
X155170000Y-78117000D02*
X152253000Y-78117000D01*
X155170000Y-78157000D02*
X152263000Y-78156999D01*
X155170000Y-78197000D02*
X152274000Y-78197000D01*
X155170000Y-78277000D02*
X152297000Y-78277000D01*
X155170000Y-78317000D02*
X152308999Y-78317000D01*
X155170000Y-78357000D02*
X152321000Y-78357000D01*
X155170000Y-78437000D02*
X152347000Y-78437000D01*
X155170000Y-78477000D02*
X152361000Y-78477000D01*
X155170000Y-78516999D02*
X152375000Y-78517000D01*
X155170000Y-78557001D02*
X152390000Y-78557001D01*
X155170000Y-78597000D02*
X152405000Y-78597000D01*
X155170000Y-78637000D02*
X152421000Y-78637000D01*
X155170000Y-78676999D02*
X152437001Y-78677000D01*
X155170000Y-78717000D02*
X152453000Y-78717000D01*
X155170000Y-78757000D02*
X152470001Y-78757000D01*
X155170000Y-78797000D02*
X152488000Y-78797000D01*
X155170000Y-78877000D02*
X152525000Y-78877000D01*
X155170000Y-78917000D02*
X152544000Y-78917001D01*
X155170000Y-78957000D02*
X152564000Y-78957000D01*
X155170000Y-78997001D02*
X152584000Y-78997000D01*
X155170000Y-79037000D02*
X152605000Y-79037000D01*
X155170000Y-79077000D02*
X152626000Y-79077000D01*
X155170000Y-79116999D02*
X152648000Y-79117000D01*
X155170000Y-79157000D02*
X152671000Y-79157000D01*
X155170000Y-79197000D02*
X152694001Y-79197000D01*
X155170000Y-79237000D02*
X152717000Y-79237000D01*
X155170000Y-79317000D02*
X152767000Y-79317000D01*
X155170000Y-79357000D02*
X152792000Y-79357000D01*
X155170000Y-79397000D02*
X152818000Y-79397000D01*
X155170000Y-79437001D02*
X152845000Y-79437000D01*
X155170000Y-79477000D02*
X152873000Y-79477000D01*
X155170000Y-79517000D02*
X152901000Y-79517000D01*
X155170000Y-79556999D02*
X152930000Y-79557000D01*
X155170000Y-79597000D02*
X152960000Y-79597000D01*
X155170000Y-79637000D02*
X152991000Y-79637000D01*
X155170000Y-79677000D02*
X153022000Y-79677000D01*
X155170000Y-79757000D02*
X153087000Y-79757000D01*
X155170000Y-79797000D02*
X153121000Y-79797000D01*
X155170000Y-79837000D02*
X153155000Y-79837000D01*
X155170000Y-79877001D02*
X153191000Y-79877000D01*
X156742999Y-81197000D02*
X155677001Y-81197000D01*
X156978000Y-81157000D02*
X155442000Y-81157000D01*
X157157000Y-81117000D02*
X155263000Y-81117000D01*
X157307000Y-81077000D02*
X155113000Y-81077000D01*
X157438001Y-81037000D02*
X154981999Y-81037000D01*
X157556000Y-80997000D02*
X154864000Y-80997000D01*
X157663000Y-80957000D02*
X154757000Y-80957000D01*
X157762000Y-80917000D02*
X154658000Y-80917000D01*
X157854000Y-80877000D02*
X154566000Y-80877000D01*
X157941000Y-80837000D02*
X154479000Y-80837000D01*
X158023000Y-80797000D02*
X154397000Y-80797000D01*
X158100000Y-80757000D02*
X154320000Y-80757000D01*
X158174000Y-80717000D02*
X154246000Y-80717000D01*
X158244000Y-80677000D02*
X154176000Y-80677000D01*
X158311000Y-80637000D02*
X154109000Y-80637000D01*
X158375000Y-80597000D02*
X154045000Y-80597000D01*
X158437000Y-80557000D02*
X153983000Y-80557000D01*
X158497000Y-80517000D02*
X153923000Y-80517000D01*
X158525000Y-72707302D02*
X158525000Y-73507302D01*
X158554000Y-80477000D02*
X153866000Y-80477000D01*
X158610000Y-80437000D02*
X153810000Y-80437000D01*
X158663000Y-80397000D02*
X153757000Y-80397000D01*
X158715000Y-80357000D02*
X153705000Y-80357000D01*
X158765000Y-80317000D02*
X153655000Y-80317000D01*
X158814000Y-80277000D02*
X153606000Y-80277000D01*
X158861000Y-80237000D02*
X153559000Y-80237000D01*
X158906000Y-80197000D02*
X153514000Y-80197000D01*
X158925000Y-73107302D02*
X158125000Y-73107302D01*
X158951000Y-80157000D02*
X153469000Y-80157000D01*
X158994000Y-80117000D02*
X153426000Y-80117000D01*
X159036000Y-80077000D02*
X153384000Y-80077000D01*
X159077000Y-80037000D02*
X153343000Y-80037000D01*
X159116000Y-79997000D02*
X153304000Y-79997000D01*
X159155000Y-79957001D02*
X153265000Y-79957001D01*
X159192000Y-79916999D02*
X153228000Y-79916999D01*
X159229000Y-79877000D02*
X157250000Y-79877001D01*
X159265000Y-79837000D02*
X157250000Y-79837000D01*
X159299000Y-79797000D02*
X157250000Y-79797000D01*
X159333000Y-79757000D02*
X157250000Y-79757000D01*
X159366000Y-79716999D02*
X157250001Y-79717000D01*
X159398000Y-79677000D02*
X157250000Y-79677000D01*
X159429000Y-79637000D02*
X157250000Y-79637000D01*
X159460000Y-79597000D02*
X157250000Y-79597000D01*
X159490000Y-79557000D02*
X157250000Y-79556999D01*
X159519000Y-79517000D02*
X157250000Y-79517000D01*
X159547000Y-79477000D02*
X157250000Y-79477000D01*
X159575000Y-79437000D02*
X157250000Y-79437001D01*
X159602000Y-79397000D02*
X157250000Y-79397000D01*
X159628000Y-79357000D02*
X157250000Y-79357000D01*
X159653000Y-79317000D02*
X157250000Y-79317000D01*
X159678000Y-79277000D02*
X157250001Y-79277000D01*
X159703000Y-79237000D02*
X157250000Y-79237000D01*
X159725999Y-79197000D02*
X157250000Y-79197000D01*
X159749000Y-79157000D02*
X157250000Y-79157000D01*
X159772000Y-79117000D02*
X157250000Y-79116999D01*
X159794000Y-79077000D02*
X157250000Y-79077000D01*
X159815000Y-79037000D02*
X157250000Y-79037000D01*
X159836000Y-78997000D02*
X157250000Y-78997001D01*
X159856000Y-78957000D02*
X157250000Y-78957000D01*
X159876000Y-78917001D02*
X157250000Y-78917000D01*
X159895000Y-78877000D02*
X157250000Y-78877000D01*
X159914000Y-78837000D02*
X157250001Y-78837000D01*
X159932000Y-78797000D02*
X157250000Y-78797000D01*
X159949999Y-78757000D02*
X157250000Y-78757000D01*
X159967000Y-78717000D02*
X157250000Y-78717000D01*
X159982999Y-78677000D02*
X157250000Y-78676999D01*
X159999000Y-78637000D02*
X157250000Y-78637000D01*
X160015000Y-78597000D02*
X157250000Y-78597000D01*
X160030000Y-78557001D02*
X157250000Y-78557001D01*
X160045000Y-78517000D02*
X157250000Y-78516999D01*
X160059000Y-78477000D02*
X157250000Y-78477000D01*
X160073000Y-78437000D02*
X157250000Y-78437000D01*
X160085999Y-78397000D02*
X157250001Y-78397000D01*
X160099000Y-78357000D02*
X157250000Y-78357000D01*
X160111001Y-78317000D02*
X157250000Y-78317000D01*
X160123000Y-78277000D02*
X157250000Y-78277000D01*
X160135001Y-78237000D02*
X157250001Y-78237000D01*
X160146000Y-78197000D02*
X157250000Y-78197000D01*
X160157000Y-78156999D02*
X157250000Y-78157000D01*
X160167000Y-78117000D02*
X157250000Y-78117000D01*
X160177000Y-78077000D02*
X157250000Y-78076999D01*
X160186000Y-78037001D02*
X157250000Y-78037000D01*
X160195000Y-77997000D02*
X157250000Y-77997000D01*
X160203000Y-77957000D02*
X157250000Y-77957001D01*
X160212000Y-77917000D02*
X157250000Y-77917000D01*
X160219000Y-77877000D02*
X157250000Y-77877000D01*
X160227000Y-77837000D02*
X157250000Y-77837000D01*
X160233000Y-77797000D02*
X152187000Y-77797000D01*
X160240000Y-77757000D02*
X152180000Y-77757000D01*
X160246000Y-77717000D02*
X152174000Y-77717000D01*
X160252000Y-77677000D02*
X152168000Y-77677000D01*
X160257001Y-77637000D02*
X152162999Y-77637000D01*
X160262000Y-77597000D02*
X152158000Y-77597000D01*
X160266000Y-77557000D02*
X152154000Y-77557000D01*
X160271000Y-77517000D02*
X152149000Y-77517000D01*
X160274000Y-77477000D02*
X152146000Y-77477000D01*
X160277999Y-77437000D02*
X152142001Y-77437000D01*
X160280000Y-77397000D02*
X152140000Y-77397000D01*
X160282999Y-77357000D02*
X152137001Y-77357000D01*
X160285000Y-77317000D02*
X152135000Y-77317000D01*
X160287000Y-77277000D02*
X152133000Y-77277000D01*
X160288000Y-77237000D02*
X152132000Y-77237000D01*
X160289000Y-77197000D02*
X152131000Y-77197000D01*
X160290000Y-77117000D02*
X152130000Y-77117000D01*
X160290000Y-77157000D02*
X152130000Y-77157000D01*
X160330000Y-77117000D02*
G75*
G02*
X152090000Y-77117000I-4120000J0D01*
G01*
X152090000Y-77117000D02*
G75*
G02*
X160330000Y-77117000I4120000J0D01*
G01*
X159345000Y-88927000D02*
X164585000Y-88927000D01*
X159345000Y-89264000D02*
X159345000Y-88927000D01*
X159345000Y-91667000D02*
X159345000Y-91330000D01*
X164585000Y-88927000D02*
X164585000Y-89264000D01*
X164585000Y-91330000D02*
X164585000Y-91667000D01*
X164585000Y-91667000D02*
X159345000Y-91667000D01*
X145990000Y-102997000D02*
X145990000Y-120837000D01*
X145990000Y-102997000D02*
X148650000Y-102997000D01*
X145990000Y-120837000D02*
X148650000Y-120837000D01*
X147320000Y-100397000D02*
X148650000Y-100397000D01*
X148650000Y-100397000D02*
X148650000Y-101727000D01*
X148650000Y-102997000D02*
X148650000Y-120837000D01*
X160250000Y-103257000D02*
X158069000Y-103257000D01*
X160250000Y-103297000D02*
X158072000Y-103297000D01*
X160250000Y-103337000D02*
X158076000Y-103337000D01*
X160250000Y-103377000D02*
X158080000Y-103377000D01*
X160250000Y-103417000D02*
X158085000Y-103417000D01*
X160250000Y-103457000D02*
X158090000Y-103457000D01*
X160250000Y-103497000D02*
X158095000Y-103497000D01*
X160250000Y-103537000D02*
X158102000Y-103537000D01*
X160250000Y-103577000D02*
X158108000Y-103577000D01*
X160250000Y-103617000D02*
X158116000Y-103617000D01*
X160250000Y-103657000D02*
X158123000Y-103657000D01*
X160250000Y-103697000D02*
X158131000Y-103697000D01*
X160250000Y-103737000D02*
X158140000Y-103737000D01*
X160250000Y-103777000D02*
X158150000Y-103777000D01*
X160250000Y-103817000D02*
X158159000Y-103817000D01*
X160250000Y-103857000D02*
X158170000Y-103857000D01*
X160250000Y-103897000D02*
X158181000Y-103897000D01*
X160250000Y-103937000D02*
X158192000Y-103937000D01*
X160250000Y-103977000D02*
X158204000Y-103977000D01*
X160250000Y-104017000D02*
X158217000Y-104017000D01*
X160250000Y-104057000D02*
X158230000Y-104057000D01*
X160250000Y-104097000D02*
X158243000Y-104097000D01*
X160250000Y-104137000D02*
X158258000Y-104137000D01*
X160250000Y-104177000D02*
X158273000Y-104177000D01*
X160250000Y-104217000D02*
X158288000Y-104217000D01*
X160250000Y-104257000D02*
X158304000Y-104257000D01*
X160250000Y-104297000D02*
X158321000Y-104297000D01*
X160250000Y-104337000D02*
X158338000Y-104337000D01*
X160250000Y-104377000D02*
X158356000Y-104377000D01*
X160250000Y-104417000D02*
X158375000Y-104417000D01*
X160250000Y-104457000D02*
X158394000Y-104457000D01*
X160250000Y-104497000D02*
X158414000Y-104497000D01*
X160250000Y-104537000D02*
X158435000Y-104537000D01*
X160250000Y-104577000D02*
X158456000Y-104577000D01*
X160250000Y-104617000D02*
X158478000Y-104617000D01*
X160250000Y-104657000D02*
X158501000Y-104657000D01*
X160250000Y-104697000D02*
X158525000Y-104697000D01*
X160250000Y-104737000D02*
X158549000Y-104737000D01*
X160250000Y-104777000D02*
X158574000Y-104777000D01*
X160250000Y-104817000D02*
X158600000Y-104817000D01*
X160250000Y-104857000D02*
X158627000Y-104857000D01*
X160250000Y-104897000D02*
X158654000Y-104897000D01*
X160250000Y-104937000D02*
X158683000Y-104937000D01*
X160250000Y-104977000D02*
X158713000Y-104977000D01*
X160250000Y-105017000D02*
X158743000Y-105017000D01*
X160250000Y-105057000D02*
X158774000Y-105057000D01*
X160250000Y-105097000D02*
X158807000Y-105097000D01*
X160250000Y-105137000D02*
X158840000Y-105137000D01*
X160250000Y-105177000D02*
X158875000Y-105177000D01*
X160250000Y-105217000D02*
X158911000Y-105217000D01*
X160250000Y-105257000D02*
X158948000Y-105257000D01*
X160250000Y-105297000D02*
X158986000Y-105297000D01*
X161692000Y-106257000D02*
X160888000Y-106257000D01*
X161923000Y-106217000D02*
X160657000Y-106217000D01*
X162091000Y-106177000D02*
X160489000Y-106177000D01*
X162229000Y-106137000D02*
X160351000Y-106137000D01*
X162348000Y-106097000D02*
X160232000Y-106097000D01*
X162455000Y-106057000D02*
X160125000Y-106057000D01*
X162551000Y-106017000D02*
X160029000Y-106017000D01*
X162640000Y-105977000D02*
X159940000Y-105977000D01*
X162722000Y-105937000D02*
X159858000Y-105937000D01*
X162799000Y-105897000D02*
X159781000Y-105897000D01*
X162871000Y-105857000D02*
X159709000Y-105857000D01*
X162939000Y-105817000D02*
X159641000Y-105817000D01*
X163004000Y-105777000D02*
X159576000Y-105777000D01*
X163065000Y-105737000D02*
X159515000Y-105737000D01*
X163124000Y-105697000D02*
X159456000Y-105697000D01*
X163129000Y-99516759D02*
X163129000Y-100146759D01*
X163180000Y-105657000D02*
X159400000Y-105657000D01*
X163233000Y-105617000D02*
X159347000Y-105617000D01*
X163285000Y-105577000D02*
X159295000Y-105577000D01*
X163334000Y-105537000D02*
X159246000Y-105537000D01*
X163381000Y-105497000D02*
X159199000Y-105497000D01*
X163427000Y-105457000D02*
X159153000Y-105457000D01*
X163444000Y-99831759D02*
X162814000Y-99831759D01*
X163471000Y-105417000D02*
X159109000Y-105417000D01*
X163513000Y-105377000D02*
X159067000Y-105377000D01*
X163554000Y-105337000D02*
X159026000Y-105337000D01*
X163594000Y-105297000D02*
X162330000Y-105297000D01*
X163632000Y-105257000D02*
X162330000Y-105257000D01*
X163669000Y-105217000D02*
X162330000Y-105217000D01*
X163705000Y-105177000D02*
X162330000Y-105177000D01*
X163740000Y-105137000D02*
X162330000Y-105137000D01*
X163773000Y-105097000D02*
X162330000Y-105097000D01*
X163806000Y-105057000D02*
X162330000Y-105057000D01*
X163837000Y-105017000D02*
X162330000Y-105017000D01*
X163867000Y-104977000D02*
X162330000Y-104977000D01*
X163897000Y-104937000D02*
X162330000Y-104937000D01*
X163926000Y-104897000D02*
X162330000Y-104897000D01*
X163953000Y-104857000D02*
X162330000Y-104857000D01*
X163980000Y-104817000D02*
X162330000Y-104817000D01*
X164006000Y-104777000D02*
X162330000Y-104777000D01*
X164031000Y-104737000D02*
X162330000Y-104737000D01*
X164055000Y-104697000D02*
X162330000Y-104697000D01*
X164079000Y-104657000D02*
X162330000Y-104657000D01*
X164102000Y-104617000D02*
X162330000Y-104617000D01*
X164124000Y-104577000D02*
X162330000Y-104577000D01*
X164145000Y-104537000D02*
X162330000Y-104537000D01*
X164166000Y-104497000D02*
X162330000Y-104497000D01*
X164186000Y-104457000D02*
X162330000Y-104457000D01*
X164205000Y-104417000D02*
X162330000Y-104417000D01*
X164224000Y-104377000D02*
X162330000Y-104377000D01*
X164242000Y-104337000D02*
X162330000Y-104337000D01*
X164259000Y-104297000D02*
X162330000Y-104297000D01*
X164276000Y-104257000D02*
X162330000Y-104257000D01*
X164292000Y-104217000D02*
X162330000Y-104217000D01*
X164307000Y-104177000D02*
X162330000Y-104177000D01*
X164322000Y-104137000D02*
X162330000Y-104137000D01*
X164337000Y-104097000D02*
X162330000Y-104097000D01*
X164350000Y-104057000D02*
X162330000Y-104057000D01*
X164363000Y-104017000D02*
X162330000Y-104017000D01*
X164376000Y-103977000D02*
X162330000Y-103977000D01*
X164388000Y-103937000D02*
X162330000Y-103937000D01*
X164399000Y-103897000D02*
X162330000Y-103897000D01*
X164410000Y-103857000D02*
X162330000Y-103857000D01*
X164421000Y-103817000D02*
X162330000Y-103817000D01*
X164430000Y-103777000D02*
X162330000Y-103777000D01*
X164440000Y-103737000D02*
X162330000Y-103737000D01*
X164449000Y-103697000D02*
X162330000Y-103697000D01*
X164457000Y-103657000D02*
X162330000Y-103657000D01*
X164464000Y-103617000D02*
X162330000Y-103617000D01*
X164472000Y-103577000D02*
X162330000Y-103577000D01*
X164478000Y-103537000D02*
X162330000Y-103537000D01*
X164485000Y-103497000D02*
X162330000Y-103497000D01*
X164490000Y-103457000D02*
X162330000Y-103457000D01*
X164495000Y-103417000D02*
X162330000Y-103417000D01*
X164500000Y-103377000D02*
X162330000Y-103377000D01*
X164504000Y-103337000D02*
X162330000Y-103337000D01*
X164508000Y-103297000D02*
X162330000Y-103297000D01*
X164511000Y-103257000D02*
X162330000Y-103257000D01*
X164514000Y-103217000D02*
X158066000Y-103217000D01*
X164516000Y-103177000D02*
X158064000Y-103177000D01*
X164518000Y-103137000D02*
X158062000Y-103137000D01*
X164519000Y-103097000D02*
X158061000Y-103097000D01*
X164520000Y-103017000D02*
X158060000Y-103017000D01*
X164520000Y-103057000D02*
X158060000Y-103057000D01*
X164560000Y-103017000D02*
G75*
G02*
X158020000Y-103017000I-3270000J0D01*
G01*
X158020000Y-103017000D02*
G75*
G02*
X164560000Y-103017000I3270000J0D01*
G01*
X120798025Y-83131503D02*
X121031370Y-83364848D01*
X122735497Y-85068975D02*
X122502152Y-84835630D01*
X125422503Y-78507024D02*
X120798025Y-83131503D01*
X125655848Y-78740370D02*
X125422503Y-78507024D01*
X127126630Y-80211152D02*
X127359976Y-80444497D01*
X127359976Y-80444497D02*
X122735497Y-85068975D01*
X167545000Y-94007000D02*
X174085000Y-94007000D01*
X167545000Y-94337000D02*
X167545000Y-94007000D01*
X167545000Y-96417000D02*
X167545000Y-96747000D01*
X167545000Y-96747000D02*
X174085000Y-96747000D01*
X174085000Y-94007000D02*
X174085000Y-94337000D01*
X174085000Y-96747000D02*
X174085000Y-96417000D01*
X149800000Y-68012000D02*
X151130000Y-68012000D01*
X149800000Y-69342000D02*
X149800000Y-68012000D01*
X152340000Y-68012000D02*
X152460000Y-68012000D01*
X152340000Y-70672000D02*
X152460000Y-70672000D01*
X152460000Y-70672000D02*
X152460000Y-68012000D01*
X157385000Y-94007000D02*
X163925000Y-94007000D01*
X157385000Y-94337000D02*
X157385000Y-94007000D01*
X157385000Y-96417000D02*
X157385000Y-96747000D01*
X157385000Y-96747000D02*
X163925000Y-96747000D01*
X163925000Y-94007000D02*
X163925000Y-94337000D01*
X163925000Y-96747000D02*
X163925000Y-96417000D01*
X164024000Y-126940000D02*
X164024000Y-127060000D01*
X164024000Y-127060000D02*
X166684000Y-127060000D01*
X165354000Y-124400000D02*
X166684000Y-124400000D01*
X166684000Y-124400000D02*
X166684000Y-125730000D01*
X166684000Y-126940000D02*
X166684000Y-127060000D01*
X121892644Y-86354884D02*
X125597883Y-82649644D01*
X122130939Y-86593179D02*
X121892644Y-86354884D01*
X123830116Y-88292356D02*
X123591821Y-88054061D01*
X125597883Y-82649644D02*
X125836178Y-82887939D01*
X127297061Y-84348822D02*
X127535356Y-84587117D01*
X127535356Y-84587117D02*
X123830116Y-88292356D01*
X173930000Y-78927000D02*
X173930000Y-78807000D01*
X173930000Y-81467000D02*
X173930000Y-80137000D01*
X175260000Y-81467000D02*
X173930000Y-81467000D01*
X176590000Y-78807000D02*
X173930000Y-78807000D01*
X176590000Y-78927000D02*
X176590000Y-78807000D01*
X116145000Y-94107000D02*
X116145000Y-71187000D01*
X116145000Y-96707000D02*
X116145000Y-95377000D01*
X117475000Y-96707000D02*
X116145000Y-96707000D01*
X118805000Y-71187000D02*
X116145000Y-71187000D01*
X118805000Y-94107000D02*
X116145000Y-94107000D01*
X118805000Y-94107000D02*
X118805000Y-71187000D01*
X139930000Y-103257000D02*
X137749000Y-103257000D01*
X139930000Y-103297000D02*
X137752000Y-103297000D01*
X139930000Y-103337000D02*
X137756000Y-103337000D01*
X139930000Y-103377000D02*
X137760000Y-103377000D01*
X139930000Y-103417000D02*
X137765000Y-103417000D01*
X139930000Y-103457000D02*
X137770000Y-103457000D01*
X139930000Y-103497000D02*
X137775000Y-103497000D01*
X139930000Y-103537000D02*
X137782000Y-103537000D01*
X139930000Y-103577000D02*
X137788000Y-103577000D01*
X139930000Y-103617000D02*
X137796000Y-103617000D01*
X139930000Y-103657000D02*
X137803000Y-103657000D01*
X139930000Y-103697000D02*
X137811000Y-103697000D01*
X139930000Y-103737000D02*
X137820000Y-103737000D01*
X139930000Y-103777000D02*
X137830000Y-103777000D01*
X139930000Y-103817000D02*
X137839000Y-103817000D01*
X139930000Y-103857000D02*
X137850000Y-103857000D01*
X139930000Y-103897000D02*
X137861000Y-103897000D01*
X139930000Y-103937000D02*
X137872000Y-103937000D01*
X139930000Y-103977000D02*
X137884000Y-103977000D01*
X139930000Y-104017000D02*
X137897000Y-104017000D01*
X139930000Y-104057000D02*
X137910000Y-104057000D01*
X139930000Y-104097000D02*
X137923000Y-104097000D01*
X139930000Y-104137000D02*
X137938000Y-104137000D01*
X139930000Y-104177000D02*
X137953000Y-104177000D01*
X139930000Y-104217000D02*
X137968000Y-104217000D01*
X139930000Y-104257000D02*
X137984000Y-104257000D01*
X139930000Y-104297000D02*
X138001000Y-104297000D01*
X139930000Y-104337000D02*
X138018000Y-104337000D01*
X139930000Y-104377000D02*
X138036000Y-104377000D01*
X139930000Y-104417000D02*
X138055000Y-104417000D01*
X139930000Y-104457000D02*
X138074000Y-104457000D01*
X139930000Y-104497000D02*
X138094000Y-104497000D01*
X139930000Y-104537000D02*
X138115000Y-104537000D01*
X139930000Y-104577000D02*
X138136000Y-104577000D01*
X139930000Y-104617000D02*
X138158000Y-104617000D01*
X139930000Y-104657000D02*
X138181000Y-104657000D01*
X139930000Y-104697000D02*
X138205000Y-104697000D01*
X139930000Y-104737000D02*
X138229000Y-104737000D01*
X139930000Y-104777000D02*
X138254000Y-104777000D01*
X139930000Y-104817000D02*
X138280000Y-104817000D01*
X139930000Y-104857000D02*
X138307000Y-104857000D01*
X139930000Y-104897000D02*
X138334000Y-104897000D01*
X139930000Y-104937000D02*
X138363000Y-104937000D01*
X139930000Y-104977000D02*
X138393000Y-104977000D01*
X139930000Y-105017000D02*
X138423000Y-105017000D01*
X139930000Y-105057000D02*
X138454000Y-105057000D01*
X139930000Y-105097000D02*
X138487000Y-105097000D01*
X139930000Y-105137000D02*
X138520000Y-105137000D01*
X139930000Y-105177000D02*
X138555000Y-105177000D01*
X139930000Y-105217000D02*
X138591000Y-105217000D01*
X139930000Y-105257000D02*
X138628000Y-105257000D01*
X139930000Y-105297000D02*
X138666000Y-105297000D01*
X141372000Y-106257000D02*
X140568000Y-106257000D01*
X141603000Y-106217000D02*
X140337000Y-106217000D01*
X141771000Y-106177000D02*
X140169000Y-106177000D01*
X141909000Y-106137000D02*
X140031000Y-106137000D01*
X142028000Y-106097000D02*
X139912000Y-106097000D01*
X142135000Y-106057000D02*
X139805000Y-106057000D01*
X142231000Y-106017000D02*
X139709000Y-106017000D01*
X142320000Y-105977000D02*
X139620000Y-105977000D01*
X142402000Y-105937000D02*
X139538000Y-105937000D01*
X142479000Y-105897000D02*
X139461000Y-105897000D01*
X142551000Y-105857000D02*
X139389000Y-105857000D01*
X142619000Y-105817000D02*
X139321000Y-105817000D01*
X142684000Y-105777000D02*
X139256000Y-105777000D01*
X142745000Y-105737000D02*
X139195000Y-105737000D01*
X142804000Y-105697000D02*
X139136000Y-105697000D01*
X142809000Y-99516759D02*
X142809000Y-100146759D01*
X142860000Y-105657000D02*
X139080000Y-105657000D01*
X142913000Y-105617000D02*
X139027000Y-105617000D01*
X142965000Y-105577000D02*
X138975000Y-105577000D01*
X143014000Y-105537000D02*
X138926000Y-105537000D01*
X143061000Y-105497000D02*
X138879000Y-105497000D01*
X143107000Y-105457000D02*
X138833000Y-105457000D01*
X143124000Y-99831759D02*
X142494000Y-99831759D01*
X143151000Y-105417000D02*
X138789000Y-105417000D01*
X143193000Y-105377000D02*
X138747000Y-105377000D01*
X143234000Y-105337000D02*
X138706000Y-105337000D01*
X143274000Y-105297000D02*
X142010000Y-105297000D01*
X143312000Y-105257000D02*
X142010000Y-105257000D01*
X143349000Y-105217000D02*
X142010000Y-105217000D01*
X143385000Y-105177000D02*
X142010000Y-105177000D01*
X143420000Y-105137000D02*
X142010000Y-105137000D01*
X143453000Y-105097000D02*
X142010000Y-105097000D01*
X143486000Y-105057000D02*
X142010000Y-105057000D01*
X143517000Y-105017000D02*
X142010000Y-105017000D01*
X143547000Y-104977000D02*
X142010000Y-104977000D01*
X143577000Y-104937000D02*
X142010000Y-104937000D01*
X143606000Y-104897000D02*
X142010000Y-104897000D01*
X143633000Y-104857000D02*
X142010000Y-104857000D01*
X143660000Y-104817000D02*
X142010000Y-104817000D01*
X143686000Y-104777000D02*
X142010000Y-104777000D01*
X143711000Y-104737000D02*
X142010000Y-104737000D01*
X143735000Y-104697000D02*
X142010000Y-104697000D01*
X143759000Y-104657000D02*
X142010000Y-104657000D01*
X143782000Y-104617000D02*
X142010000Y-104617000D01*
X143804000Y-104577000D02*
X142010000Y-104577000D01*
X143825000Y-104537000D02*
X142010000Y-104537000D01*
X143846000Y-104497000D02*
X142010000Y-104497000D01*
X143866000Y-104457000D02*
X142010000Y-104457000D01*
X143885000Y-104417000D02*
X142010000Y-104417000D01*
X143904000Y-104377000D02*
X142010000Y-104377000D01*
X143922000Y-104337000D02*
X142010000Y-104337000D01*
X143939000Y-104297000D02*
X142010000Y-104297000D01*
X143956000Y-104257000D02*
X142010000Y-104257000D01*
X143972000Y-104217000D02*
X142010000Y-104217000D01*
X143987000Y-104177000D02*
X142010000Y-104177000D01*
X144002000Y-104137000D02*
X142010000Y-104137000D01*
X144017000Y-104097000D02*
X142010000Y-104097000D01*
X144030000Y-104057000D02*
X142010000Y-104057000D01*
X144043000Y-104017000D02*
X142010000Y-104017000D01*
X144056000Y-103977000D02*
X142010000Y-103977000D01*
X144068000Y-103937000D02*
X142010000Y-103937000D01*
X144079000Y-103897000D02*
X142010000Y-103897000D01*
X144090000Y-103857000D02*
X142010000Y-103857000D01*
X144101000Y-103817000D02*
X142010000Y-103817000D01*
X144110000Y-103777000D02*
X142010000Y-103777000D01*
X144120000Y-103737000D02*
X142010000Y-103737000D01*
X144129000Y-103697000D02*
X142010000Y-103697000D01*
X144137000Y-103657000D02*
X142010000Y-103657000D01*
X144144000Y-103617000D02*
X142010000Y-103617000D01*
X144152000Y-103577000D02*
X142010000Y-103577000D01*
X144158000Y-103537000D02*
X142010000Y-103537000D01*
X144165000Y-103497000D02*
X142010000Y-103497000D01*
X144170000Y-103457000D02*
X142010000Y-103457000D01*
X144175000Y-103417000D02*
X142010000Y-103417000D01*
X144180000Y-103377000D02*
X142010000Y-103377000D01*
X144184000Y-103337000D02*
X142010000Y-103337000D01*
X144188000Y-103297000D02*
X142010000Y-103297000D01*
X144191000Y-103257000D02*
X142010000Y-103257000D01*
X144194000Y-103217000D02*
X137746000Y-103217000D01*
X144196000Y-103177000D02*
X137744000Y-103177000D01*
X144198000Y-103137000D02*
X137742000Y-103137000D01*
X144199000Y-103097000D02*
X137741000Y-103097000D01*
X144200000Y-103017000D02*
X137740000Y-103017000D01*
X144200000Y-103057000D02*
X137740000Y-103057000D01*
X144240000Y-103017000D02*
G75*
G02*
X137700000Y-103017000I-3270000J0D01*
G01*
X137700000Y-103017000D02*
G75*
G02*
X144240000Y-103017000I3270000J0D01*
G01*
X170080000Y-101647000D02*
X170417000Y-101647000D01*
X170080000Y-106887000D02*
X170080000Y-101647000D01*
X170417000Y-106887000D02*
X170080000Y-106887000D01*
X172483000Y-101647000D02*
X172820000Y-101647000D01*
X172820000Y-101647000D02*
X172820000Y-106887000D01*
X172820000Y-106887000D02*
X172483000Y-106887000D01*
X135195000Y-80077000D02*
X135195000Y-80197000D01*
X135195000Y-80197000D02*
X137855000Y-80197000D01*
X136525000Y-77537000D02*
X137855000Y-77537000D01*
X137855000Y-77537000D02*
X137855000Y-78867000D01*
X137855000Y-80077000D02*
X137855000Y-80197000D01*
X149760000Y-101607000D02*
X150097000Y-101607000D01*
X149760000Y-106847000D02*
X149760000Y-101607000D01*
X150097000Y-106847000D02*
X149760000Y-106847000D01*
X152163000Y-101607000D02*
X152500000Y-101607000D01*
X152500000Y-101607000D02*
X152500000Y-106847000D01*
X152500000Y-106847000D02*
X152163000Y-106847000D01*
X147895000Y-80077000D02*
X147895000Y-80197000D01*
X147895000Y-80197000D02*
X150555000Y-80197000D01*
X149225000Y-77537000D02*
X150555000Y-77537000D01*
X150555000Y-77537000D02*
X150555000Y-78867000D01*
X150555000Y-80077000D02*
X150555000Y-80197000D01*
X153610000Y-102997000D02*
X153610000Y-120837000D01*
X153610000Y-102997000D02*
X156270000Y-102997000D01*
X153610000Y-120837000D02*
X156270000Y-120837000D01*
X154940000Y-100397000D02*
X156270000Y-100397000D01*
X156270000Y-100397000D02*
X156270000Y-101727000D01*
X156270000Y-102997000D02*
X156270000Y-120837000D01*
X125670000Y-102997000D02*
X125670000Y-120837000D01*
X125670000Y-102997000D02*
X128330000Y-102997000D01*
X125670000Y-120837000D02*
X128330000Y-120837000D01*
X127000000Y-100397000D02*
X128330000Y-100397000D01*
X128330000Y-100397000D02*
X128330000Y-101727000D01*
X128330000Y-102997000D02*
X128330000Y-120837000D01*
X137065000Y-94007000D02*
X143605000Y-94007000D01*
X137065000Y-94337000D02*
X137065000Y-94007000D01*
X137065000Y-96417000D02*
X137065000Y-96747000D01*
X137065000Y-96747000D02*
X143605000Y-96747000D01*
X143605000Y-94007000D02*
X143605000Y-94337000D01*
X143605000Y-96747000D02*
X143605000Y-96417000D01*
X129440000Y-111807000D02*
X129777000Y-111807000D01*
X129440000Y-117047000D02*
X129440000Y-111807000D01*
X129777000Y-117047000D02*
X129440000Y-117047000D01*
X131843000Y-111807000D02*
X132180000Y-111807000D01*
X132180000Y-111807000D02*
X132180000Y-117047000D01*
X132180000Y-117047000D02*
X131843000Y-117047000D01*
X147225000Y-83847000D02*
X153765000Y-83847000D01*
X147225000Y-84177000D02*
X147225000Y-83847000D01*
X147225000Y-86257000D02*
X147225000Y-86587000D01*
X147225000Y-86587000D02*
X153765000Y-86587000D01*
X153765000Y-83847000D02*
X153765000Y-84177000D01*
X153765000Y-86587000D02*
X153765000Y-86257000D01*
X154880000Y-68012000D02*
X156210000Y-68012000D01*
X154880000Y-69342000D02*
X154880000Y-68012000D01*
X157420000Y-68012000D02*
X157540000Y-68012000D01*
X157420000Y-70672000D02*
X157540000Y-70672000D01*
X157540000Y-70672000D02*
X157540000Y-68012000D01*
X147895000Y-74997000D02*
X147895000Y-75117000D01*
X147895000Y-75117000D02*
X150555000Y-75117000D01*
X149225000Y-72457000D02*
X150555000Y-72457000D01*
X150555000Y-72457000D02*
X150555000Y-73787000D01*
X150555000Y-74997000D02*
X150555000Y-75117000D01*
X159960000Y-68012000D02*
X161290000Y-68012000D01*
X159960000Y-69342000D02*
X159960000Y-68012000D01*
X162500000Y-68012000D02*
X162620000Y-68012000D01*
X162500000Y-70672000D02*
X162620000Y-70672000D01*
X162620000Y-70672000D02*
X162620000Y-68012000D01*
X149185000Y-88927000D02*
X154425000Y-88927000D01*
X149185000Y-89264000D02*
X149185000Y-88927000D01*
X149185000Y-91667000D02*
X149185000Y-91330000D01*
X154425000Y-88927000D02*
X154425000Y-89264000D01*
X154425000Y-91330000D02*
X154425000Y-91667000D01*
X154425000Y-91667000D02*
X149185000Y-91667000D01*
X129440000Y-101647000D02*
X129777000Y-101647000D01*
X129440000Y-106887000D02*
X129440000Y-101647000D01*
X129777000Y-106887000D02*
X129440000Y-106887000D01*
X131843000Y-101647000D02*
X132180000Y-101647000D01*
X132180000Y-101647000D02*
X132180000Y-106887000D01*
X132180000Y-106887000D02*
X131843000Y-106887000D01*
X157385000Y-83847000D02*
X163925000Y-83847000D01*
X157385000Y-84177000D02*
X157385000Y-83847000D01*
X157385000Y-86257000D02*
X157385000Y-86587000D01*
X157385000Y-86587000D02*
X163925000Y-86587000D01*
X163925000Y-83847000D02*
X163925000Y-84177000D01*
X163925000Y-86587000D02*
X163925000Y-86257000D01*
X122475000Y-95277000D02*
X127715000Y-95277000D01*
X122475000Y-95614000D02*
X122475000Y-95277000D01*
X122475000Y-98017000D02*
X122475000Y-97680000D01*
X127715000Y-95277000D02*
X127715000Y-95614000D01*
X127715000Y-97680000D02*
X127715000Y-98017000D01*
X127715000Y-98017000D02*
X122475000Y-98017000D01*
X167453000Y-126940000D02*
X167453000Y-127060000D01*
X167453000Y-127060000D02*
X170113000Y-127060000D01*
X168783000Y-124400000D02*
X170113000Y-124400000D01*
X170113000Y-124400000D02*
X170113000Y-125730000D01*
X170113000Y-126940000D02*
X170113000Y-127060000D01*
X173930000Y-75117000D02*
X173930000Y-74997000D01*
X173930000Y-77657000D02*
X173930000Y-76327000D01*
X175260000Y-77657000D02*
X173930000Y-77657000D01*
X176590000Y-74997000D02*
X173930000Y-74997000D01*
X176590000Y-75117000D02*
X176590000Y-74997000D01*
X122475000Y-92102000D02*
X127715000Y-92102000D01*
X122475000Y-92439000D02*
X122475000Y-92102000D01*
X122475000Y-94842000D02*
X122475000Y-94505000D01*
X127715000Y-92102000D02*
X127715000Y-92439000D01*
X127715000Y-94505000D02*
X127715000Y-94842000D01*
X127715000Y-94842000D02*
X122475000Y-94842000D01*
X169465000Y-87022000D02*
X174705000Y-87022000D01*
X169465000Y-87359000D02*
X169465000Y-87022000D01*
X169465000Y-89762000D02*
X169465000Y-89425000D01*
X174705000Y-87022000D02*
X174705000Y-87359000D01*
X174705000Y-89425000D02*
X174705000Y-89762000D01*
X174705000Y-89762000D02*
X169465000Y-89762000D01*
X112970000Y-102997000D02*
X112970000Y-120837000D01*
X112970000Y-102997000D02*
X115630000Y-102997000D01*
X112970000Y-120837000D02*
X115630000Y-120837000D01*
X114300000Y-100397000D02*
X115630000Y-100397000D01*
X115630000Y-100397000D02*
X115630000Y-101727000D01*
X115630000Y-102997000D02*
X115630000Y-120837000D01*
X135195000Y-74997000D02*
X135195000Y-75117000D01*
X135195000Y-75117000D02*
X137855000Y-75117000D01*
X136525000Y-72457000D02*
X137855000Y-72457000D01*
X137855000Y-72457000D02*
X137855000Y-73787000D01*
X137855000Y-74997000D02*
X137855000Y-75117000D01*
X166310000Y-102997000D02*
X166310000Y-120837000D01*
X166310000Y-102997000D02*
X168970000Y-102997000D01*
X166310000Y-120837000D02*
X168970000Y-120837000D01*
X167640000Y-100397000D02*
X168970000Y-100397000D01*
X168970000Y-100397000D02*
X168970000Y-101727000D01*
X168970000Y-102997000D02*
X168970000Y-120837000D01*
X131385000Y-94107000D02*
X131385000Y-71187000D01*
X131385000Y-96707000D02*
X131385000Y-95377000D01*
X132715000Y-96707000D02*
X131385000Y-96707000D01*
X134045000Y-71187000D02*
X131385000Y-71187000D01*
X134045000Y-94107000D02*
X131385000Y-94107000D01*
X134045000Y-94107000D02*
X134045000Y-71187000D01*
X167870000Y-77837000D02*
X164893000Y-77837000D01*
X167870000Y-77877000D02*
X164901000Y-77877000D01*
X167870000Y-77917000D02*
X164908000Y-77917000D01*
X167870000Y-77957000D02*
X164917000Y-77957000D01*
X167870000Y-77997000D02*
X164925000Y-77997000D01*
X167870000Y-78037000D02*
X164934000Y-78037000D01*
X167870000Y-78077000D02*
X164943000Y-78077000D01*
X167870000Y-78117000D02*
X164953000Y-78117000D01*
X167870000Y-78157000D02*
X164963000Y-78157000D01*
X167870000Y-78197000D02*
X164974000Y-78197000D01*
X167870000Y-78237000D02*
X164985000Y-78237000D01*
X167870000Y-78277000D02*
X164997000Y-78277000D01*
X167870000Y-78317000D02*
X165009000Y-78317000D01*
X167870000Y-78357000D02*
X165021000Y-78357000D01*
X167870000Y-78397000D02*
X165034000Y-78397000D01*
X167870000Y-78437000D02*
X165047000Y-78437000D01*
X167870000Y-78477000D02*
X165061000Y-78477000D01*
X167870000Y-78517000D02*
X165075000Y-78517000D01*
X167870000Y-78557000D02*
X165090000Y-78557000D01*
X167870000Y-78597000D02*
X165105000Y-78597000D01*
X167870000Y-78637000D02*
X165121000Y-78637000D01*
X167870000Y-78677000D02*
X165137000Y-78677000D01*
X167870000Y-78717000D02*
X165153000Y-78717000D01*
X167870000Y-78757000D02*
X165170000Y-78757000D01*
X167870000Y-78797000D02*
X165188000Y-78797000D01*
X167870000Y-78837000D02*
X165206000Y-78837000D01*
X167870000Y-78877000D02*
X165225000Y-78877000D01*
X167870000Y-78917000D02*
X165244000Y-78917000D01*
X167870000Y-78957000D02*
X165264000Y-78957000D01*
X167870000Y-78997000D02*
X165284000Y-78997000D01*
X167870000Y-79037000D02*
X165305000Y-79037000D01*
X167870000Y-79077000D02*
X165326000Y-79077000D01*
X167870000Y-79117000D02*
X165348000Y-79117000D01*
X167870000Y-79157000D02*
X165371000Y-79157000D01*
X167870000Y-79197000D02*
X165394000Y-79197000D01*
X167870000Y-79237000D02*
X165417000Y-79237000D01*
X167870000Y-79277000D02*
X165442000Y-79277000D01*
X167870000Y-79317000D02*
X165467000Y-79317000D01*
X167870000Y-79357000D02*
X165492000Y-79357000D01*
X167870000Y-79397000D02*
X165518000Y-79397000D01*
X167870000Y-79437000D02*
X165545000Y-79437000D01*
X167870000Y-79477000D02*
X165573000Y-79477000D01*
X167870000Y-79517000D02*
X165601000Y-79517000D01*
X167870000Y-79557000D02*
X165630000Y-79557000D01*
X167870000Y-79597000D02*
X165660000Y-79597000D01*
X167870000Y-79637000D02*
X165691000Y-79637000D01*
X167870000Y-79677000D02*
X165722000Y-79677000D01*
X167870000Y-79717000D02*
X165754000Y-79717000D01*
X167870000Y-79757000D02*
X165787000Y-79757000D01*
X167870000Y-79797000D02*
X165821000Y-79797000D01*
X167870000Y-79837000D02*
X165855000Y-79837000D01*
X167870000Y-79877000D02*
X165891000Y-79877000D01*
X169443000Y-81197000D02*
X168377000Y-81197000D01*
X169678000Y-81157000D02*
X168142000Y-81157000D01*
X169857000Y-81117000D02*
X167963000Y-81117000D01*
X170007000Y-81077000D02*
X167813000Y-81077000D01*
X170138000Y-81037000D02*
X167682000Y-81037000D01*
X170256000Y-80997000D02*
X167564000Y-80997000D01*
X170363000Y-80957000D02*
X167457000Y-80957000D01*
X170462000Y-80917000D02*
X167358000Y-80917000D01*
X170554000Y-80877000D02*
X167266000Y-80877000D01*
X170641000Y-80837000D02*
X167179000Y-80837000D01*
X170723000Y-80797000D02*
X167097000Y-80797000D01*
X170800000Y-80757000D02*
X167020000Y-80757000D01*
X170874000Y-80717000D02*
X166946000Y-80717000D01*
X170944000Y-80677000D02*
X166876000Y-80677000D01*
X171011000Y-80637000D02*
X166809000Y-80637000D01*
X171075000Y-80597000D02*
X166745000Y-80597000D01*
X171137000Y-80557000D02*
X166683000Y-80557000D01*
X171197000Y-80517000D02*
X166623000Y-80517000D01*
X171225000Y-72707302D02*
X171225000Y-73507302D01*
X171254000Y-80477000D02*
X166566000Y-80477000D01*
X171310000Y-80437000D02*
X166510000Y-80437000D01*
X171363000Y-80397000D02*
X166457000Y-80397000D01*
X171415000Y-80357000D02*
X166405000Y-80357000D01*
X171465000Y-80317000D02*
X166355000Y-80317000D01*
X171514000Y-80277000D02*
X166306000Y-80277000D01*
X171561000Y-80237000D02*
X166259000Y-80237000D01*
X171606000Y-80197000D02*
X166214000Y-80197000D01*
X171625000Y-73107302D02*
X170825000Y-73107302D01*
X171651000Y-80157000D02*
X166169000Y-80157000D01*
X171694000Y-80117000D02*
X166126000Y-80117000D01*
X171736000Y-80077000D02*
X166084000Y-80077000D01*
X171777000Y-80037000D02*
X166043000Y-80037000D01*
X171816000Y-79997000D02*
X166004000Y-79997000D01*
X171855000Y-79957000D02*
X165965000Y-79957000D01*
X171892000Y-79917000D02*
X165928000Y-79917000D01*
X171929000Y-79877000D02*
X169950000Y-79877000D01*
X171965000Y-79837000D02*
X169950000Y-79837000D01*
X171999000Y-79797000D02*
X169950000Y-79797000D01*
X172033000Y-79757000D02*
X169950000Y-79757000D01*
X172066000Y-79717000D02*
X169950000Y-79717000D01*
X172098000Y-79677000D02*
X169950000Y-79677000D01*
X172129000Y-79637000D02*
X169950000Y-79637000D01*
X172160000Y-79597000D02*
X169950000Y-79597000D01*
X172190000Y-79557000D02*
X169950000Y-79557000D01*
X172219000Y-79517000D02*
X169950000Y-79517000D01*
X172247000Y-79477000D02*
X169950000Y-79477000D01*
X172275000Y-79437000D02*
X169950000Y-79437000D01*
X172302000Y-79397000D02*
X169950000Y-79397000D01*
X172328000Y-79357000D02*
X169950000Y-79357000D01*
X172353000Y-79317000D02*
X169950000Y-79317000D01*
X172378000Y-79277000D02*
X169950000Y-79277000D01*
X172403000Y-79237000D02*
X169950000Y-79237000D01*
X172426000Y-79197000D02*
X169950000Y-79197000D01*
X172449000Y-79157000D02*
X169950000Y-79157000D01*
X172472000Y-79117000D02*
X169950000Y-79117000D01*
X172494000Y-79077000D02*
X169950000Y-79077000D01*
X172515000Y-79037000D02*
X169950000Y-79037000D01*
X172536000Y-78997000D02*
X169950000Y-78997000D01*
X172556000Y-78957000D02*
X169950000Y-78957000D01*
X172576000Y-78917000D02*
X169950000Y-78917000D01*
X172595000Y-78877000D02*
X169950000Y-78877000D01*
X172614000Y-78837000D02*
X169950000Y-78837000D01*
X172632000Y-78797000D02*
X169950000Y-78797000D01*
X172650000Y-78757000D02*
X169950000Y-78757000D01*
X172667000Y-78717000D02*
X169950000Y-78717000D01*
X172683000Y-78677000D02*
X169950000Y-78677000D01*
X172699000Y-78637000D02*
X169950000Y-78637000D01*
X172715000Y-78597000D02*
X169950000Y-78597000D01*
X172730000Y-78557000D02*
X169950000Y-78557000D01*
X172745000Y-78517000D02*
X169950000Y-78517000D01*
X172759000Y-78477000D02*
X169950000Y-78477000D01*
X172773000Y-78437000D02*
X169950000Y-78437000D01*
X172786000Y-78397000D02*
X169950000Y-78397000D01*
X172799000Y-78357000D02*
X169950000Y-78357000D01*
X172811000Y-78317000D02*
X169950000Y-78317000D01*
X172823000Y-78277000D02*
X169950000Y-78277000D01*
X172835000Y-78237000D02*
X169950000Y-78237000D01*
X172846000Y-78197000D02*
X169950000Y-78197000D01*
X172857000Y-78157000D02*
X169950000Y-78157000D01*
X172867000Y-78117000D02*
X169950000Y-78117000D01*
X172877000Y-78077000D02*
X169950000Y-78077000D01*
X172886000Y-78037000D02*
X169950000Y-78037000D01*
X172895000Y-77997000D02*
X169950000Y-77997000D01*
X172903000Y-77957000D02*
X169950000Y-77957000D01*
X172912000Y-77917000D02*
X169950000Y-77917000D01*
X172919000Y-77877000D02*
X169950000Y-77877000D01*
X172927000Y-77837000D02*
X169950000Y-77837000D01*
X172933000Y-77797000D02*
X164887000Y-77797000D01*
X172940000Y-77757000D02*
X164880000Y-77757000D01*
X172946000Y-77717000D02*
X164874000Y-77717000D01*
X172952000Y-77677000D02*
X164868000Y-77677000D01*
X172957000Y-77637000D02*
X164863000Y-77637000D01*
X172962000Y-77597000D02*
X164858000Y-77597000D01*
X172966000Y-77557000D02*
X164854000Y-77557000D01*
X172971000Y-77517000D02*
X164849000Y-77517000D01*
X172974000Y-77477000D02*
X164846000Y-77477000D01*
X172978000Y-77437000D02*
X164842000Y-77437000D01*
X172980000Y-77397000D02*
X164840000Y-77397000D01*
X172983000Y-77357000D02*
X164837000Y-77357000D01*
X172985000Y-77317000D02*
X164835000Y-77317000D01*
X172987000Y-77277000D02*
X164833000Y-77277000D01*
X172988000Y-77237000D02*
X164832000Y-77237000D01*
X172989000Y-77197000D02*
X164831000Y-77197000D01*
X172990000Y-77117000D02*
X164830000Y-77117000D01*
X172990000Y-77157000D02*
X164830000Y-77157000D01*
X173030000Y-77117000D02*
G75*
G02*
X164790000Y-77117000I-4120000J0D01*
G01*
X164790000Y-77117000D02*
G75*
G02*
X173030000Y-77117000I4120000J0D01*
G01*
X147225000Y-94007000D02*
X153765000Y-94007000D01*
X147225000Y-94337000D02*
X147225000Y-94007000D01*
X147225000Y-96417000D02*
X147225000Y-96747000D01*
X147225000Y-96747000D02*
X153765000Y-96747000D01*
X153765000Y-94007000D02*
X153765000Y-94337000D01*
X153765000Y-96747000D02*
X153765000Y-96417000D01*
X128210000Y-126432000D02*
X129540000Y-126432000D01*
X128210000Y-127762000D02*
X128210000Y-126432000D01*
X128210000Y-129032000D02*
X130810000Y-129032000D01*
X128210000Y-131632000D02*
X128210000Y-129032000D01*
X128210000Y-131632000D02*
X153730000Y-131632000D01*
X130810000Y-126432000D02*
X153730000Y-126432000D01*
X130810000Y-129032000D02*
X130810000Y-126432000D01*
X153730000Y-131632000D02*
X153730000Y-126432000D01*
X149760000Y-111807000D02*
X150097000Y-111807000D01*
X149760000Y-117047000D02*
X149760000Y-111807000D01*
X150097000Y-117047000D02*
X149760000Y-117047000D01*
X152163000Y-111807000D02*
X152500000Y-111807000D01*
X152500000Y-111807000D02*
X152500000Y-117047000D01*
X152500000Y-117047000D02*
X152163000Y-117047000D01*
X133290000Y-102997000D02*
X133290000Y-120837000D01*
X133290000Y-102997000D02*
X135950000Y-102997000D01*
X133290000Y-120837000D02*
X135950000Y-120837000D01*
X134620000Y-100397000D02*
X135950000Y-100397000D01*
X135950000Y-100397000D02*
X135950000Y-101727000D01*
X135950000Y-102997000D02*
X135950000Y-120837000D01*
X137065000Y-85244000D02*
X143605000Y-85244000D01*
X137065000Y-85574000D02*
X137065000Y-85244000D01*
X137065000Y-87654000D02*
X137065000Y-87984000D01*
X137065000Y-87984000D02*
X143605000Y-87984000D01*
X143605000Y-85244000D02*
X143605000Y-85574000D01*
X143605000Y-87984000D02*
X143605000Y-87654000D01*
X161190000Y-74977000D02*
X161527000Y-74977000D01*
X161190000Y-80217000D02*
X161190000Y-74977000D01*
X161527000Y-80217000D02*
X161190000Y-80217000D01*
X163593000Y-74977000D02*
X163930000Y-74977000D01*
X163930000Y-74977000D02*
X163930000Y-80217000D01*
X163930000Y-80217000D02*
X163593000Y-80217000D01*
X116145000Y-67631000D02*
X117475000Y-67631000D01*
X116145000Y-68961000D02*
X116145000Y-67631000D01*
X118745001Y-67631000D02*
X126425000Y-67631000D01*
X118745001Y-70291000D02*
X118745001Y-67631000D01*
X118745001Y-70291000D02*
X126425000Y-70291000D01*
X126425000Y-70291000D02*
X126425000Y-67631000D01*
X170080000Y-111807000D02*
X170417000Y-111807000D01*
X170080000Y-117047000D02*
X170080000Y-111807000D01*
X170417000Y-117047000D02*
X170080000Y-117047000D01*
X172483000Y-111807000D02*
X172820000Y-111807000D01*
X172820000Y-111807000D02*
X172820000Y-117047000D01*
X172820000Y-117047000D02*
X172483000Y-117047000D01*
X139025000Y-88927000D02*
X144265000Y-88927000D01*
X139025000Y-89264000D02*
X139025000Y-88927000D01*
X139025000Y-91667000D02*
X139025000Y-91330000D01*
X144265000Y-88927000D02*
X144265000Y-89264000D01*
X144265000Y-91330000D02*
X144265000Y-91667000D01*
X144265000Y-91667000D02*
X139025000Y-91667000D01*
X167545000Y-83847000D02*
X174085000Y-83847000D01*
X167545000Y-84177000D02*
X167545000Y-83847000D01*
X167545000Y-86257000D02*
X167545000Y-86587000D01*
X167545000Y-86587000D02*
X174085000Y-86587000D01*
X174085000Y-83847000D02*
X174085000Y-84177000D01*
X174085000Y-86587000D02*
X174085000Y-86257000D01*
X119610000Y-103257000D02*
X117429000Y-103257000D01*
X119610000Y-103297000D02*
X117432000Y-103297000D01*
X119610000Y-103337000D02*
X117436000Y-103337000D01*
X119610000Y-103377000D02*
X117440000Y-103377000D01*
X119610000Y-103417000D02*
X117445000Y-103417000D01*
X119610000Y-103457000D02*
X117450000Y-103457000D01*
X119610000Y-103497000D02*
X117455000Y-103497000D01*
X119610000Y-103537000D02*
X117462000Y-103537000D01*
X119610000Y-103577000D02*
X117468000Y-103577000D01*
X119610000Y-103617000D02*
X117476000Y-103617000D01*
X119610000Y-103657000D02*
X117483000Y-103657000D01*
X119610000Y-103697000D02*
X117491000Y-103697000D01*
X119610000Y-103737000D02*
X117500000Y-103737000D01*
X119610000Y-103777000D02*
X117510000Y-103777000D01*
X119610000Y-103817000D02*
X117519000Y-103817000D01*
X119610000Y-103857000D02*
X117530000Y-103857000D01*
X119610000Y-103897000D02*
X117541000Y-103897000D01*
X119610000Y-103937000D02*
X117552000Y-103937000D01*
X119610000Y-103977000D02*
X117564000Y-103977000D01*
X119610000Y-104017000D02*
X117577000Y-104017000D01*
X119610000Y-104057000D02*
X117590000Y-104057000D01*
X119610000Y-104097000D02*
X117603000Y-104097000D01*
X119610000Y-104137000D02*
X117618000Y-104137000D01*
X119610000Y-104177000D02*
X117633000Y-104177000D01*
X119610000Y-104217000D02*
X117648000Y-104217000D01*
X119610000Y-104257000D02*
X117664000Y-104257000D01*
X119610000Y-104297000D02*
X117681000Y-104297000D01*
X119610000Y-104337000D02*
X117698000Y-104337000D01*
X119610000Y-104377000D02*
X117716000Y-104377000D01*
X119610000Y-104417000D02*
X117735000Y-104417000D01*
X119610000Y-104457000D02*
X117754000Y-104457000D01*
X119610000Y-104497000D02*
X117774000Y-104497000D01*
X119610000Y-104537000D02*
X117795000Y-104537000D01*
X119610000Y-104577000D02*
X117816000Y-104577000D01*
X119610000Y-104617000D02*
X117838000Y-104617000D01*
X119610000Y-104657000D02*
X117861000Y-104657000D01*
X119610000Y-104697000D02*
X117885000Y-104697000D01*
X119610000Y-104737000D02*
X117909000Y-104737000D01*
X119610000Y-104777000D02*
X117934000Y-104777000D01*
X119610000Y-104817000D02*
X117960000Y-104817000D01*
X119610000Y-104857000D02*
X117987000Y-104857000D01*
X119610000Y-104897000D02*
X118014000Y-104897000D01*
X119610000Y-104937000D02*
X118043000Y-104937000D01*
X119610000Y-104977000D02*
X118073000Y-104977000D01*
X119610000Y-105017000D02*
X118103000Y-105017000D01*
X119610000Y-105057000D02*
X118134000Y-105057000D01*
X119610000Y-105097000D02*
X118167000Y-105097000D01*
X119610000Y-105137000D02*
X118200000Y-105137000D01*
X119610000Y-105177000D02*
X118235000Y-105177000D01*
X119610000Y-105217000D02*
X118271000Y-105217000D01*
X119610000Y-105257000D02*
X118308000Y-105257000D01*
X119610000Y-105297000D02*
X118346000Y-105297000D01*
X121052000Y-106257000D02*
X120248000Y-106257000D01*
X121283000Y-106217000D02*
X120017000Y-106217000D01*
X121451000Y-106177000D02*
X119849000Y-106177000D01*
X121589000Y-106137000D02*
X119711000Y-106137000D01*
X121708000Y-106097000D02*
X119592000Y-106097000D01*
X121815000Y-106057000D02*
X119485000Y-106057000D01*
X121911000Y-106017000D02*
X119389000Y-106017000D01*
X122000000Y-105977000D02*
X119300000Y-105977000D01*
X122082000Y-105937000D02*
X119218000Y-105937000D01*
X122159000Y-105897000D02*
X119141000Y-105897000D01*
X122231000Y-105857000D02*
X119069000Y-105857000D01*
X122299000Y-105817000D02*
X119001000Y-105817000D01*
X122364000Y-105777000D02*
X118936000Y-105777000D01*
X122425000Y-105737000D02*
X118875000Y-105737000D01*
X122484000Y-105697000D02*
X118816000Y-105697000D01*
X122489000Y-99516759D02*
X122489000Y-100146759D01*
X122540000Y-105657000D02*
X118760000Y-105657000D01*
X122593000Y-105617000D02*
X118707000Y-105617000D01*
X122645000Y-105577000D02*
X118655000Y-105577000D01*
X122694000Y-105537000D02*
X118606000Y-105537000D01*
X122741000Y-105497000D02*
X118559000Y-105497000D01*
X122787000Y-105457000D02*
X118513000Y-105457000D01*
X122804000Y-99831759D02*
X122174000Y-99831759D01*
X122831000Y-105417000D02*
X118469000Y-105417000D01*
X122873000Y-105377000D02*
X118427000Y-105377000D01*
X122914000Y-105337000D02*
X118386000Y-105337000D01*
X122954000Y-105297000D02*
X121690000Y-105297000D01*
X122992000Y-105257000D02*
X121690000Y-105257000D01*
X123029000Y-105217000D02*
X121690000Y-105217000D01*
X123065000Y-105177000D02*
X121690000Y-105177000D01*
X123100000Y-105137000D02*
X121690000Y-105137000D01*
X123133000Y-105097000D02*
X121690000Y-105097000D01*
X123166000Y-105057000D02*
X121690000Y-105057000D01*
X123197000Y-105017000D02*
X121690000Y-105017000D01*
X123227000Y-104977000D02*
X121690000Y-104977000D01*
X123257000Y-104937000D02*
X121690000Y-104937000D01*
X123286000Y-104897000D02*
X121690000Y-104897000D01*
X123313000Y-104857000D02*
X121690000Y-104857000D01*
X123340000Y-104817000D02*
X121690000Y-104817000D01*
X123366000Y-104777000D02*
X121690000Y-104777000D01*
X123391000Y-104737000D02*
X121690000Y-104737000D01*
X123415000Y-104697000D02*
X121690000Y-104697000D01*
X123439000Y-104657000D02*
X121690000Y-104657000D01*
X123462000Y-104617000D02*
X121690000Y-104617000D01*
X123484000Y-104577000D02*
X121690000Y-104577000D01*
X123505000Y-104537000D02*
X121690000Y-104537000D01*
X123526000Y-104497000D02*
X121690000Y-104497000D01*
X123546000Y-104457000D02*
X121690000Y-104457000D01*
X123565000Y-104417000D02*
X121690000Y-104417000D01*
X123584000Y-104377000D02*
X121690000Y-104377000D01*
X123602000Y-104337000D02*
X121690000Y-104337000D01*
X123619000Y-104297000D02*
X121690000Y-104297000D01*
X123636000Y-104257000D02*
X121690000Y-104257000D01*
X123652000Y-104217000D02*
X121690000Y-104217000D01*
X123667000Y-104177000D02*
X121690000Y-104177000D01*
X123682000Y-104137000D02*
X121690000Y-104137000D01*
X123697000Y-104097000D02*
X121690000Y-104097000D01*
X123710000Y-104057000D02*
X121690000Y-104057000D01*
X123723000Y-104017000D02*
X121690000Y-104017000D01*
X123736000Y-103977000D02*
X121690000Y-103977000D01*
X123748000Y-103937000D02*
X121690000Y-103937000D01*
X123759000Y-103897000D02*
X121690000Y-103897000D01*
X123770000Y-103857000D02*
X121690000Y-103857000D01*
X123781000Y-103817000D02*
X121690000Y-103817000D01*
X123790000Y-103777000D02*
X121690000Y-103777000D01*
X123800000Y-103737000D02*
X121690000Y-103737000D01*
X123809000Y-103697000D02*
X121690000Y-103697000D01*
X123817000Y-103657000D02*
X121690000Y-103657000D01*
X123824000Y-103617000D02*
X121690000Y-103617000D01*
X123832000Y-103577000D02*
X121690000Y-103577000D01*
X123838000Y-103537000D02*
X121690000Y-103537000D01*
X123845000Y-103497000D02*
X121690000Y-103497000D01*
X123850000Y-103457000D02*
X121690000Y-103457000D01*
X123855000Y-103417000D02*
X121690000Y-103417000D01*
X123860000Y-103377000D02*
X121690000Y-103377000D01*
X123864000Y-103337000D02*
X121690000Y-103337000D01*
X123868000Y-103297000D02*
X121690000Y-103297000D01*
X123871000Y-103257000D02*
X121690000Y-103257000D01*
X123874000Y-103217000D02*
X117426000Y-103217000D01*
X123876000Y-103177000D02*
X117424000Y-103177000D01*
X123878000Y-103137000D02*
X117422000Y-103137000D01*
X123879000Y-103097000D02*
X117421000Y-103097000D01*
X123880000Y-103017000D02*
X117420000Y-103017000D01*
X123880000Y-103057000D02*
X117420000Y-103057000D01*
X123920000Y-103017000D02*
G75*
G02*
X117380000Y-103017000I-3270000J0D01*
G01*
X117380000Y-103017000D02*
G75*
G02*
X123920000Y-103017000I3270000J0D01*
G01*
M02*
