M48
; DRILL file KiCad 10.0.0 date 2026-04-13T19:07:54
; FORMAT={-:-/ absolute / metric / decimal}
; #@! TF.CreationDate,2026-04-13T19:07:54+08:00
; #@! TF.GenerationSoftware,Kicad,Pcbnew,10.0.0
; #@! TF.FileFunction,Plated,1,2,PTH
FMAT,2
METRIC
; #@! TA.AperFunction,Plated,PTH,ComponentDrill
T1C0.800
; #@! TA.AperFunction,Plated,PTH,ComponentDrill
T2C1.000
; #@! TA.AperFunction,Plated,PTH,ComponentDrill
T3C1.550
; #@! TA.AperFunction,Plated,PTH,ComponentDrill
T4C1.600
%
G90
G05
T1
X120.65Y-101.767
X120.65Y-104.267
X121.258Y-80.291
X121.385Y-84.482
X122.595Y-93.472
X122.595Y-96.647
X122.946Y-87.239
X126.482Y-83.703
X126.646Y-74.903
X126.773Y-79.094
X127.595Y-93.472
X127.595Y-96.647
X130.81Y-101.767
X130.81Y-106.767
X130.81Y-111.927
X130.81Y-116.927
X136.525Y-86.614
X136.525Y-95.377
X139.145Y-90.297
X140.97Y-101.767
X140.97Y-104.267
X144.145Y-86.614
X144.145Y-90.297
X144.145Y-95.377
X146.685Y-85.217
X146.685Y-95.377
X149.305Y-90.297
X151.13Y-101.727
X151.13Y-106.727
X151.13Y-111.927
X151.13Y-116.927
X154.305Y-85.217
X154.305Y-90.297
X154.305Y-95.377
X156.21Y-75.367
X156.21Y-78.867
X156.845Y-85.217
X156.845Y-95.377
X159.465Y-90.297
X161.29Y-101.767
X161.29Y-104.267
X162.56Y-75.097
X162.56Y-80.097
X164.465Y-85.217
X164.465Y-90.297
X164.465Y-95.377
X167.005Y-85.217
X167.005Y-95.377
X168.91Y-75.367
X168.91Y-78.867
X169.585Y-88.392
X171.45Y-101.767
X171.45Y-106.767
X171.45Y-111.927
X171.45Y-116.927
X174.585Y-88.392
X174.625Y-85.217
X174.625Y-95.377
T2
X114.173Y-70.866
X114.3Y-101.727
X114.3Y-104.267
X114.3Y-106.807
X114.3Y-109.347
X114.3Y-111.887
X114.3Y-114.427
X114.3Y-116.967
X114.3Y-119.507
X117.475Y-68.961
X117.475Y-72.517
X117.475Y-75.057
X117.475Y-77.597
X117.475Y-80.137
X117.475Y-82.677
X117.475Y-85.217
X117.475Y-87.757
X117.475Y-90.297
X117.475Y-92.837
X117.475Y-95.377
X118.237Y-118.491
X118.237Y-122.555
X120.015Y-68.961
X121.031Y-90.424
X122.555Y-68.961
X122.555Y-71.755
X125.095Y-68.961
X125.095Y-71.755
X127.0Y-101.727
X127.0Y-104.267
X127.0Y-106.807
X127.0Y-109.347
X127.0Y-111.887
X127.0Y-114.427
X127.0Y-116.967
X127.0Y-119.507
X127.254Y-90.297
X129.54Y-127.762
X129.54Y-130.302
X132.08Y-127.762
X132.08Y-130.302
X132.715Y-72.517
X132.715Y-75.057
X132.715Y-77.597
X132.715Y-80.137
X132.715Y-82.677
X132.715Y-85.217
X132.715Y-87.757
X132.715Y-90.297
X132.715Y-92.837
X132.715Y-95.377
X134.62Y-101.727
X134.62Y-104.267
X134.62Y-106.807
X134.62Y-109.347
X134.62Y-111.887
X134.62Y-114.427
X134.62Y-116.967
X134.62Y-119.507
X134.62Y-127.762
X134.62Y-130.302
X137.16Y-127.762
X137.16Y-130.302
X139.7Y-127.762
X139.7Y-130.302
X142.24Y-127.762
X142.24Y-130.302
X144.78Y-127.762
X144.78Y-130.302
X147.32Y-101.727
X147.32Y-104.267
X147.32Y-106.807
X147.32Y-109.347
X147.32Y-111.887
X147.32Y-114.427
X147.32Y-116.967
X147.32Y-119.507
X147.32Y-127.762
X147.32Y-130.302
X149.86Y-127.762
X149.86Y-130.302
X152.4Y-127.762
X152.4Y-130.302
X154.94Y-101.727
X154.94Y-104.267
X154.94Y-106.807
X154.94Y-109.347
X154.94Y-111.887
X154.94Y-114.427
X154.94Y-116.967
X154.94Y-119.507
X157.607Y-116.967
X157.607Y-119.38
X165.354Y-125.73
X167.64Y-101.727
X167.64Y-104.267
X167.64Y-106.807
X167.64Y-109.347
X167.64Y-111.887
X167.64Y-114.427
X167.64Y-116.967
X167.64Y-119.507
X168.783Y-125.73
X171.323Y-109.474
X172.085Y-91.948
X175.26Y-76.327
X175.26Y-80.137
X177.038Y-91.948
X177.419Y-109.474
T3
X136.525Y-73.787
X136.525Y-78.867
X149.225Y-73.787
X149.225Y-78.867
T4
X151.13Y-69.342
X156.21Y-69.342
X161.29Y-69.342
M30
