M48
; DRILL file KiCad 10.0.0 date 2026-04-09T13:45:42
; FORMAT={-:-/ absolute / metric / decimal}
; #@! TF.CreationDate,2026-04-09T13:45:42+08:00
; #@! TF.GenerationSoftware,Kicad,Pcbnew,10.0.0
; #@! TF.FileFunction,Plated,1,2,PTH
FMAT,2
METRIC
; #@! TA.AperFunction,Plated,PTH,ComponentDrill
T1C0.800
; #@! TA.AperFunction,Plated,PTH,ComponentDrill
T2C1.000
; #@! TA.AperFunction,Plated,PTH,ComponentDrill
T3C1.450
; #@! TA.AperFunction,Plated,PTH,ComponentDrill
T4C1.550
%
G90
G05
T1
X112.395Y-80.05
X112.395Y-82.55
X113.07Y-70.485
X113.07Y-73.66
X115.67Y-57.431
X115.797Y-61.622
X117.358Y-64.379
X118.07Y-70.485
X118.07Y-73.66
X120.894Y-60.843
X121.058Y-52.043
X121.185Y-56.234
X122.555Y-80.05
X122.555Y-85.05
X122.555Y-90.21
X122.555Y-95.21
X128.27Y-64.897
X128.27Y-73.66
X130.89Y-68.58
X132.715Y-80.05
X132.715Y-82.55
X135.89Y-64.897
X135.89Y-68.58
X135.89Y-73.66
X138.43Y-63.5
X138.43Y-73.66
X141.05Y-68.58
X142.875Y-80.01
X142.875Y-85.01
X142.875Y-90.21
X142.875Y-95.21
X146.05Y-63.5
X146.05Y-68.58
X146.05Y-73.66
X147.955Y-53.65
X147.955Y-57.15
X148.59Y-63.5
X148.59Y-73.66
X151.21Y-68.58
X153.035Y-80.05
X153.035Y-82.55
X154.305Y-53.38
X154.305Y-58.38
X156.21Y-63.5
X156.21Y-68.58
X156.21Y-73.66
X158.75Y-63.5
X158.75Y-73.66
X160.655Y-53.65
X160.655Y-57.15
X161.33Y-66.675
X163.195Y-80.05
X163.195Y-85.05
X163.195Y-90.21
X163.195Y-95.21
X166.33Y-66.675
X166.37Y-63.5
X166.37Y-73.66
T2
X105.41Y-50.8
X105.41Y-53.34
X105.41Y-55.88
X105.41Y-58.42
X106.045Y-80.01
X106.045Y-82.55
X106.045Y-85.09
X106.045Y-87.63
X106.045Y-90.17
X106.045Y-92.71
X106.045Y-95.25
X106.045Y-97.79
X109.22Y-50.8
X109.22Y-53.34
X109.22Y-55.88
X109.22Y-58.42
X109.22Y-60.96
X109.22Y-63.5
X109.22Y-66.04
X109.22Y-68.58
X109.22Y-71.12
X109.22Y-73.66
X109.982Y-96.774
X109.982Y-100.838
X116.205Y-51.181
X118.745Y-80.01
X118.745Y-82.55
X118.745Y-85.09
X118.745Y-87.63
X118.745Y-90.17
X118.745Y-92.71
X118.745Y-95.25
X118.745Y-97.79
X121.285Y-106.045
X121.285Y-108.585
X123.825Y-106.045
X123.825Y-108.585
X124.46Y-50.8
X124.46Y-53.34
X124.46Y-55.88
X124.46Y-58.42
X124.46Y-60.96
X124.46Y-63.5
X124.46Y-66.04
X124.46Y-68.58
X124.46Y-71.12
X124.46Y-73.66
X126.365Y-80.01
X126.365Y-82.55
X126.365Y-85.09
X126.365Y-87.63
X126.365Y-90.17
X126.365Y-92.71
X126.365Y-95.25
X126.365Y-97.79
X126.365Y-106.045
X126.365Y-108.585
X128.905Y-106.045
X128.905Y-108.585
X131.445Y-106.045
X131.445Y-108.585
X133.985Y-106.045
X133.985Y-108.585
X136.525Y-106.045
X136.525Y-108.585
X139.065Y-80.01
X139.065Y-82.55
X139.065Y-85.09
X139.065Y-87.63
X139.065Y-90.17
X139.065Y-92.71
X139.065Y-95.25
X139.065Y-97.79
X139.065Y-106.045
X139.065Y-108.585
X141.605Y-106.045
X141.605Y-108.585
X144.145Y-106.045
X144.145Y-108.585
X146.685Y-80.01
X146.685Y-82.55
X146.685Y-85.09
X146.685Y-87.63
X146.685Y-90.17
X146.685Y-92.71
X146.685Y-95.25
X146.685Y-97.79
X149.352Y-95.25
X149.352Y-97.663
X157.099Y-104.013
X159.385Y-80.01
X159.385Y-82.55
X159.385Y-85.09
X159.385Y-87.63
X159.385Y-90.17
X159.385Y-92.71
X159.385Y-95.25
X159.385Y-97.79
X160.528Y-104.013
X163.068Y-87.757
X163.83Y-70.231
X167.005Y-54.61
X167.005Y-58.42
X168.783Y-70.231
X169.164Y-87.757
T3
X142.875Y-47.625
X147.955Y-47.625
X153.035Y-47.625
T4
X128.27Y-52.07
X128.27Y-57.15
X140.97Y-52.07
X140.97Y-57.15
M30
