G04 #@! TF.GenerationSoftware,KiCad,Pcbnew,10.0.0*
G04 #@! TF.CreationDate,2026-04-21T10:37:04+08:00*
G04 #@! TF.ProjectId,insole,696e736f-6c65-42e6-9b69-6361645f7063,rev?*
G04 #@! TF.SameCoordinates,Original*
G04 #@! TF.FileFunction,Copper,L2,Bot*
G04 #@! TF.FilePolarity,Positive*
%FSLAX46Y46*%
G04 Gerber Fmt 4.6, Leading zero omitted, Abs format (unit mm)*
G04 Created by KiCad (PCBNEW 10.0.0) date 2026-04-21 10:37:04*
%MOMM*%
%LPD*%
G01*
G04 APERTURE LIST*
G04 #@! TA.AperFunction,ComponentPad*
%ADD10C,1.600000*%
G04 #@! TD*
G04 #@! TA.AperFunction,ComponentPad*
%ADD11C,1.700000*%
G04 #@! TD*
G04 #@! TA.AperFunction,ComponentPad*
%ADD12R,1.700000X1.700000*%
G04 #@! TD*
G04 #@! TA.AperFunction,Conductor*
%ADD13C,1.800000*%
G04 #@! TD*
G04 #@! TA.AperFunction,Conductor*
%ADD14C,1.200000*%
G04 #@! TD*
G04 #@! TA.AperFunction,Conductor*
%ADD15C,0.300000*%
G04 #@! TD*
G04 APERTURE END LIST*
D10*
X133096000Y-102997000D03*
X140716000Y-102997000D03*
D11*
X133731000Y-110236000D03*
X136271000Y-110236000D03*
X138810999Y-110236000D03*
X141351000Y-110236000D03*
X143891000Y-110236000D03*
X146431000Y-110236000D03*
X148971000Y-110236000D03*
X151511001Y-110236000D03*
X154051000Y-110236000D03*
X156591000Y-110236000D03*
X159131000Y-110236000D03*
X161670999Y-110236000D03*
X159258000Y-105537000D03*
D12*
X161798000Y-105537000D03*
D11*
X161798000Y-102997000D03*
X156718000Y-102997000D03*
X156718001Y-105537000D03*
X154178000Y-105537000D03*
X154178000Y-102997000D03*
X159258000Y-102997000D03*
X133731000Y-115189000D03*
X136271000Y-115189000D03*
X154051000Y-115189000D03*
X136271000Y-117729000D03*
X138811000Y-115189000D03*
X141351000Y-117729000D03*
X143891000Y-115189000D03*
X143891000Y-117729000D03*
X146431000Y-115189000D03*
X146431000Y-117729000D03*
X148971000Y-117729000D03*
X151511000Y-115189000D03*
X151511000Y-117729000D03*
X154051000Y-117729000D03*
X156591000Y-115189000D03*
X156591000Y-117729000D03*
X138811000Y-117729000D03*
X133731000Y-117729000D03*
X141351000Y-115189000D03*
X148971000Y-115189000D03*
D13*
X133731000Y-117729000D02*
X132972000Y-117729000D01*
X136271000Y-117729000D02*
X136271000Y-119126000D01*
X133731000Y-117729000D02*
X136271000Y-117729000D01*
D14*
X161670999Y-115951001D02*
X158243000Y-119379000D01*
X155701000Y-119379000D02*
X154051000Y-117729000D01*
X161670999Y-110236000D02*
X161670999Y-115951001D01*
X158243000Y-119379000D02*
X155701000Y-119379000D01*
D13*
X133731000Y-117729000D02*
X133731000Y-119253000D01*
D15*
X158877000Y-100076000D02*
X161798000Y-102997000D01*
X145231000Y-107372000D02*
X152527000Y-100076000D01*
X145231000Y-116389000D02*
X145231000Y-107372000D01*
X152527000Y-100076000D02*
X158877000Y-100076000D01*
X143891000Y-117729000D02*
X145231000Y-116389000D01*
X153035000Y-100838000D02*
X157099000Y-100838000D01*
X147701000Y-106172000D02*
X153035000Y-100838000D01*
X157099000Y-100838000D02*
X159258000Y-102997000D01*
X147701000Y-116459000D02*
X147701000Y-106172000D01*
X146431000Y-117729000D02*
X147701000Y-116459000D01*
X155194000Y-101473000D02*
X156718000Y-102997000D01*
X150311000Y-104832000D02*
X153670000Y-101473000D01*
X153670000Y-101473000D02*
X155194000Y-101473000D01*
X150311000Y-116389000D02*
X150311000Y-104832000D01*
X148971000Y-117729000D02*
X150311000Y-116389000D01*
X152851000Y-118226057D02*
X152851000Y-117231943D01*
X155251000Y-106610000D02*
X154178000Y-105537000D01*
X153693943Y-116389000D02*
X154548057Y-116389000D01*
X154548057Y-116389000D02*
X155251000Y-115686057D01*
X161798000Y-105537000D02*
X159258000Y-105537000D01*
X140011000Y-118929000D02*
X152148057Y-118929000D01*
X155251000Y-115686057D02*
X155251000Y-106610000D01*
X156718001Y-105537000D02*
X154178000Y-105537000D01*
X138811000Y-117729000D02*
X140011000Y-118929000D01*
X152851000Y-117231943D02*
X153693943Y-116389000D01*
X159258000Y-105537000D02*
X156718001Y-105537000D01*
X138811000Y-117729000D02*
X137610999Y-116528999D01*
X152148057Y-118929000D02*
X152851000Y-118226057D01*
X137610999Y-107511999D02*
X133096000Y-102997000D01*
X137610999Y-116528999D02*
X137610999Y-107511999D01*
X142691000Y-116389000D02*
X142691000Y-104972000D01*
X142691000Y-104972000D02*
X140716000Y-102997000D01*
X141351000Y-117729000D02*
X142691000Y-116389000D01*
D14*
X133731000Y-115189000D02*
X133731000Y-110236000D01*
X136271000Y-110236000D02*
X136271000Y-115189000D01*
X138810999Y-110236000D02*
X138811000Y-115189000D01*
X141351000Y-110236000D02*
X141351000Y-115189000D01*
X143891000Y-110236000D02*
X143891000Y-115189000D01*
X146431000Y-110236000D02*
X146431000Y-115189000D01*
X148971000Y-110236000D02*
X148971000Y-115189000D01*
X151511001Y-110236000D02*
X151511000Y-115189000D01*
X154051000Y-110236000D02*
X154051000Y-115189000D01*
X156591000Y-110236000D02*
X156591000Y-115189000D01*
X159131000Y-110236000D02*
X159131000Y-115189000D01*
X159131000Y-115189000D02*
X156591000Y-117729000D01*
D15*
X152781000Y-116459000D02*
X152781000Y-104394000D01*
X152781000Y-104394000D02*
X154178000Y-102997000D01*
X151511000Y-117729000D02*
X152781000Y-116459000D01*
G04 #@! TA.AperFunction,Conductor*
G36*
X163780539Y-98564185D02*
G01*
X163826294Y-98616989D01*
X163837500Y-98668500D01*
X163837500Y-120914500D01*
X163817815Y-120981539D01*
X163765011Y-121027294D01*
X163713500Y-121038500D01*
X132196500Y-121038500D01*
X132129461Y-121018815D01*
X132083706Y-120966011D01*
X132072500Y-120914500D01*
X132072500Y-115865776D01*
X132092185Y-115798737D01*
X132144989Y-115752982D01*
X132214147Y-115743038D01*
X132277703Y-115772063D01*
X132306985Y-115809481D01*
X132404896Y-116001642D01*
X132548339Y-116199076D01*
X132548343Y-116199081D01*
X132720918Y-116371656D01*
X132720923Y-116371660D01*
X132917688Y-116514618D01*
X132960354Y-116569948D01*
X132966380Y-116610826D01*
X133601591Y-117246037D01*
X133538007Y-117263075D01*
X133423993Y-117328901D01*
X133330901Y-117421993D01*
X133265075Y-117536007D01*
X133248037Y-117599591D01*
X132615728Y-116967282D01*
X132615727Y-116967282D01*
X132576380Y-117021439D01*
X132479904Y-117210782D01*
X132414242Y-117412869D01*
X132414242Y-117412872D01*
X132381000Y-117622753D01*
X132381000Y-117835246D01*
X132414242Y-118045127D01*
X132414242Y-118045130D01*
X132479904Y-118247217D01*
X132576375Y-118436550D01*
X132615728Y-118490716D01*
X133248037Y-117858408D01*
X133265075Y-117921993D01*
X133330901Y-118036007D01*
X133423993Y-118129099D01*
X133538007Y-118194925D01*
X133601590Y-118211962D01*
X132969282Y-118844269D01*
X132969282Y-118844270D01*
X133023449Y-118883624D01*
X133212782Y-118980095D01*
X133414870Y-119045757D01*
X133624754Y-119079000D01*
X133837246Y-119079000D01*
X134047127Y-119045757D01*
X134047130Y-119045757D01*
X134249217Y-118980095D01*
X134438554Y-118883622D01*
X134492716Y-118844270D01*
X134492717Y-118844270D01*
X133860408Y-118211962D01*
X133923993Y-118194925D01*
X134038007Y-118129099D01*
X134131099Y-118036007D01*
X134196925Y-117921993D01*
X134213962Y-117858408D01*
X134846270Y-118490717D01*
X134846270Y-118490716D01*
X134885622Y-118436554D01*
X134890514Y-118426954D01*
X134938488Y-118376157D01*
X135006308Y-118359361D01*
X135072444Y-118381897D01*
X135111486Y-118426954D01*
X135116375Y-118436550D01*
X135155728Y-118490716D01*
X135788037Y-117858408D01*
X135805075Y-117921993D01*
X135870901Y-118036007D01*
X135963993Y-118129099D01*
X136078007Y-118194925D01*
X136141590Y-118211962D01*
X135509282Y-118844269D01*
X135509282Y-118844270D01*
X135563449Y-118883624D01*
X135752782Y-118980095D01*
X135954870Y-119045757D01*
X136164754Y-119079000D01*
X136377246Y-119079000D01*
X136587127Y-119045757D01*
X136587130Y-119045757D01*
X136789217Y-118980095D01*
X136978554Y-118883622D01*
X137032716Y-118844270D01*
X137032717Y-118844270D01*
X136400408Y-118211962D01*
X136463993Y-118194925D01*
X136578007Y-118129099D01*
X136671099Y-118036007D01*
X136736925Y-117921993D01*
X136753962Y-117858408D01*
X137390267Y-118494714D01*
X137443710Y-118505940D01*
X137485381Y-118542310D01*
X137628339Y-118739076D01*
X137628343Y-118739081D01*
X137800918Y-118911656D01*
X137800923Y-118911660D01*
X137973136Y-119036779D01*
X137998361Y-119055106D01*
X138215815Y-119165904D01*
X138447924Y-119241321D01*
X138688973Y-119279500D01*
X138688974Y-119279500D01*
X138933026Y-119279500D01*
X138933027Y-119279500D01*
X139065450Y-119258525D01*
X139134743Y-119267479D01*
X139172529Y-119293317D01*
X139468831Y-119589620D01*
X139468834Y-119589622D01*
X139468838Y-119589626D01*
X139608137Y-119682704D01*
X139685525Y-119714758D01*
X139685526Y-119714759D01*
X139717575Y-119728034D01*
X139762918Y-119746816D01*
X139927228Y-119779499D01*
X139927232Y-119779500D01*
X139927233Y-119779500D01*
X152231825Y-119779500D01*
X152231826Y-119779499D01*
X152286595Y-119768605D01*
X152396131Y-119746818D01*
X152396135Y-119746816D01*
X152396139Y-119746816D01*
X152441472Y-119728037D01*
X152550920Y-119682704D01*
X152690219Y-119589627D01*
X153165635Y-119114209D01*
X153226955Y-119080727D01*
X153296646Y-119085711D01*
X153309607Y-119091407D01*
X153455815Y-119165904D01*
X153635419Y-119224261D01*
X153687920Y-119241320D01*
X153687924Y-119241321D01*
X153691156Y-119241833D01*
X153692282Y-119242367D01*
X153692653Y-119242456D01*
X153692634Y-119242533D01*
X153754291Y-119271762D01*
X153759440Y-119276625D01*
X154853786Y-120370971D01*
X155008749Y-120483556D01*
X155019390Y-120491287D01*
X155110585Y-120537753D01*
X155201776Y-120584218D01*
X155201778Y-120584218D01*
X155201781Y-120584220D01*
X155299122Y-120615848D01*
X155396465Y-120647477D01*
X155497557Y-120663488D01*
X155598648Y-120679500D01*
X155598649Y-120679500D01*
X158345351Y-120679500D01*
X158345352Y-120679500D01*
X158547535Y-120647477D01*
X158644876Y-120615848D01*
X158742219Y-120584220D01*
X158833414Y-120537753D01*
X158924611Y-120491287D01*
X159090219Y-120370966D01*
X162511149Y-116950033D01*
X162511156Y-116950028D01*
X162518216Y-116942968D01*
X162518218Y-116942967D01*
X162662965Y-116798220D01*
X162662967Y-116798216D01*
X162662970Y-116798214D01*
X162715731Y-116725591D01*
X162783286Y-116632611D01*
X162832228Y-116536557D01*
X162876220Y-116450219D01*
X162939476Y-116255535D01*
X162971499Y-116053352D01*
X162971499Y-115848649D01*
X162971499Y-111124171D01*
X162991184Y-111057132D01*
X162995166Y-111051307D01*
X162997105Y-111048639D01*
X163107903Y-110831185D01*
X163183320Y-110599076D01*
X163221499Y-110358027D01*
X163221499Y-110113973D01*
X163183320Y-109872924D01*
X163107903Y-109640815D01*
X162997105Y-109423361D01*
X162978778Y-109398136D01*
X162853659Y-109225923D01*
X162853655Y-109225918D01*
X162681080Y-109053343D01*
X162681075Y-109053339D01*
X162483641Y-108909896D01*
X162483640Y-108909895D01*
X162483638Y-108909894D01*
X162266184Y-108799096D01*
X162034075Y-108723679D01*
X162034073Y-108723678D01*
X162034071Y-108723678D01*
X161865768Y-108697021D01*
X161793026Y-108685500D01*
X161548972Y-108685500D01*
X161493092Y-108694350D01*
X161307926Y-108723678D01*
X161075811Y-108799097D01*
X160858356Y-108909896D01*
X160660922Y-109053339D01*
X160660917Y-109053343D01*
X160488680Y-109225580D01*
X160427357Y-109259065D01*
X160357665Y-109254081D01*
X160313318Y-109225580D01*
X160141081Y-109053343D01*
X160141076Y-109053339D01*
X159943642Y-108909896D01*
X159943641Y-108909895D01*
X159943639Y-108909894D01*
X159726185Y-108799096D01*
X159494076Y-108723679D01*
X159494074Y-108723678D01*
X159494072Y-108723678D01*
X159325769Y-108697021D01*
X159253027Y-108685500D01*
X159008973Y-108685500D01*
X158953093Y-108694350D01*
X158767927Y-108723678D01*
X158535812Y-108799097D01*
X158318357Y-108909896D01*
X158120923Y-109053339D01*
X158120918Y-109053343D01*
X157948681Y-109225581D01*
X157887358Y-109259066D01*
X157817666Y-109254082D01*
X157773319Y-109225581D01*
X157601081Y-109053343D01*
X157601076Y-109053339D01*
X157403642Y-108909896D01*
X157403641Y-108909895D01*
X157403639Y-108909894D01*
X157186185Y-108799096D01*
X156954076Y-108723679D01*
X156954074Y-108723678D01*
X156954072Y-108723678D01*
X156785769Y-108697021D01*
X156713027Y-108685500D01*
X156468973Y-108685500D01*
X156418230Y-108693536D01*
X156244898Y-108720990D01*
X156175604Y-108712035D01*
X156122152Y-108667039D01*
X156101513Y-108600288D01*
X156101500Y-108598517D01*
X156101500Y-107137649D01*
X156121185Y-107070610D01*
X156173989Y-107024855D01*
X156243147Y-107014911D01*
X156263813Y-107019716D01*
X156354925Y-107049321D01*
X156595974Y-107087500D01*
X156595975Y-107087500D01*
X156840027Y-107087500D01*
X156840028Y-107087500D01*
X157081077Y-107049321D01*
X157313186Y-106973904D01*
X157530640Y-106863106D01*
X157728084Y-106719655D01*
X157900321Y-106547417D01*
X157961642Y-106513934D01*
X158031333Y-106518918D01*
X158075681Y-106547419D01*
X158247918Y-106719656D01*
X158247923Y-106719660D01*
X158363478Y-106803615D01*
X158445361Y-106863106D01*
X158662815Y-106973904D01*
X158894924Y-107049321D01*
X159135973Y-107087500D01*
X159135974Y-107087500D01*
X159380026Y-107087500D01*
X159380027Y-107087500D01*
X159621076Y-107049321D01*
X159853185Y-106973904D01*
X160070639Y-106863106D01*
X160202302Y-106767447D01*
X160268107Y-106743968D01*
X160336161Y-106759793D01*
X160381302Y-106803615D01*
X160392528Y-106822185D01*
X160392531Y-106822189D01*
X160512811Y-106942469D01*
X160512813Y-106942470D01*
X160512815Y-106942472D01*
X160658394Y-107030478D01*
X160820804Y-107081086D01*
X160891384Y-107087500D01*
X160891387Y-107087500D01*
X162704613Y-107087500D01*
X162704616Y-107087500D01*
X162775196Y-107081086D01*
X162937606Y-107030478D01*
X163083185Y-106942472D01*
X163203472Y-106822185D01*
X163291478Y-106676606D01*
X163342086Y-106514196D01*
X163348500Y-106443616D01*
X163348500Y-104630384D01*
X163342086Y-104559804D01*
X163291478Y-104397394D01*
X163203472Y-104251815D01*
X163203470Y-104251813D01*
X163203469Y-104251811D01*
X163083189Y-104131531D01*
X163083185Y-104131528D01*
X163064615Y-104120302D01*
X163017428Y-104068774D01*
X163005590Y-103999915D01*
X163028446Y-103941302D01*
X163124106Y-103809639D01*
X163234904Y-103592185D01*
X163310321Y-103360076D01*
X163348500Y-103119027D01*
X163348500Y-102874973D01*
X163310321Y-102633924D01*
X163234904Y-102401815D01*
X163124106Y-102184361D01*
X163004321Y-102019490D01*
X162980660Y-101986923D01*
X162980656Y-101986918D01*
X162808081Y-101814343D01*
X162808076Y-101814339D01*
X162610642Y-101670896D01*
X162610641Y-101670895D01*
X162610639Y-101670894D01*
X162393185Y-101560096D01*
X162161076Y-101484679D01*
X162161074Y-101484678D01*
X162161072Y-101484678D01*
X161992769Y-101458021D01*
X161920027Y-101446500D01*
X161675973Y-101446500D01*
X161675968Y-101446500D01*
X161543549Y-101467473D01*
X161474255Y-101458518D01*
X161436470Y-101432681D01*
X159419165Y-99415375D01*
X159419161Y-99415372D01*
X159279866Y-99322297D01*
X159279863Y-99322296D01*
X159170416Y-99276962D01*
X159170414Y-99276961D01*
X159125086Y-99258185D01*
X159125074Y-99258182D01*
X158960771Y-99225500D01*
X158960767Y-99225500D01*
X152443233Y-99225500D01*
X152443228Y-99225500D01*
X152278925Y-99258182D01*
X152278913Y-99258185D01*
X152233583Y-99276962D01*
X152124143Y-99322292D01*
X152124137Y-99322295D01*
X152124137Y-99322296D01*
X151984840Y-99415373D01*
X151984831Y-99415379D01*
X151984830Y-99415380D01*
X144570375Y-106829834D01*
X144570372Y-106829838D01*
X144477299Y-106969131D01*
X144477294Y-106969141D01*
X144455192Y-107022501D01*
X144413185Y-107123913D01*
X144413182Y-107123925D01*
X144380500Y-107288228D01*
X144380500Y-108598517D01*
X144360815Y-108665556D01*
X144308011Y-108711311D01*
X144238853Y-108721255D01*
X144237102Y-108720990D01*
X144063769Y-108693536D01*
X144013027Y-108685500D01*
X143768973Y-108685500D01*
X143768966Y-108685500D01*
X143684897Y-108698815D01*
X143615604Y-108689860D01*
X143562152Y-108644864D01*
X143541513Y-108578112D01*
X143541500Y-108576342D01*
X143541500Y-104888232D01*
X143541499Y-104888228D01*
X143508817Y-104723925D01*
X143508816Y-104723918D01*
X143466314Y-104621310D01*
X143454789Y-104593484D01*
X143444707Y-104569143D01*
X143444705Y-104569139D01*
X143444704Y-104569137D01*
X143351627Y-104429838D01*
X143351624Y-104429834D01*
X142236616Y-103314827D01*
X142203131Y-103253504D01*
X142201824Y-103207751D01*
X142215877Y-103119026D01*
X142216500Y-103115094D01*
X142216500Y-102878902D01*
X142179553Y-102645631D01*
X142106566Y-102421003D01*
X141999342Y-102210566D01*
X141980300Y-102184357D01*
X141860517Y-102019490D01*
X141693510Y-101852483D01*
X141502433Y-101713657D01*
X141476411Y-101700398D01*
X141291996Y-101606433D01*
X141067368Y-101533446D01*
X140834097Y-101496500D01*
X140834092Y-101496500D01*
X140597908Y-101496500D01*
X140597903Y-101496500D01*
X140364631Y-101533446D01*
X140140003Y-101606433D01*
X139929566Y-101713657D01*
X139857069Y-101766330D01*
X139738490Y-101852483D01*
X139738488Y-101852485D01*
X139738487Y-101852485D01*
X139571485Y-102019487D01*
X139571485Y-102019488D01*
X139571483Y-102019490D01*
X139511862Y-102101550D01*
X139432657Y-102210566D01*
X139325433Y-102421003D01*
X139252446Y-102645631D01*
X139215500Y-102878902D01*
X139215500Y-103115097D01*
X139252446Y-103348368D01*
X139325433Y-103572996D01*
X139432657Y-103783433D01*
X139571483Y-103974510D01*
X139738490Y-104141517D01*
X139929567Y-104280343D01*
X139988428Y-104310334D01*
X140140003Y-104387566D01*
X140140005Y-104387566D01*
X140140008Y-104387568D01*
X140225321Y-104415288D01*
X140364631Y-104460553D01*
X140597903Y-104497500D01*
X140597908Y-104497500D01*
X140834095Y-104497500D01*
X140870219Y-104491778D01*
X140926749Y-104482824D01*
X140996040Y-104491778D01*
X141033827Y-104517616D01*
X141804181Y-105287970D01*
X141837666Y-105349293D01*
X141840500Y-105375651D01*
X141840500Y-108598517D01*
X141820815Y-108665556D01*
X141768011Y-108711311D01*
X141698853Y-108721255D01*
X141697102Y-108720990D01*
X141523769Y-108693536D01*
X141473027Y-108685500D01*
X141228973Y-108685500D01*
X141173093Y-108694350D01*
X140987927Y-108723678D01*
X140755812Y-108799097D01*
X140538357Y-108909896D01*
X140340923Y-109053339D01*
X140340918Y-109053343D01*
X140168680Y-109225581D01*
X140107357Y-109259066D01*
X140037665Y-109254082D01*
X139993318Y-109225581D01*
X139821080Y-109053343D01*
X139821075Y-109053339D01*
X139623641Y-108909896D01*
X139623640Y-108909895D01*
X139623638Y-108909894D01*
X139406184Y-108799096D01*
X139174075Y-108723679D01*
X139174073Y-108723678D01*
X139174071Y-108723678D01*
X139005768Y-108697021D01*
X138933026Y-108685500D01*
X138688972Y-108685500D01*
X138688965Y-108685500D01*
X138604896Y-108698815D01*
X138535603Y-108689860D01*
X138482151Y-108644864D01*
X138461512Y-108578112D01*
X138461499Y-108576342D01*
X138461499Y-107428231D01*
X138461498Y-107428227D01*
X138428816Y-107263923D01*
X138428815Y-107263917D01*
X138410036Y-107218583D01*
X138364703Y-107109136D01*
X138271626Y-106969837D01*
X138271623Y-106969833D01*
X134616616Y-103314827D01*
X134583131Y-103253504D01*
X134581824Y-103207751D01*
X134595877Y-103119026D01*
X134596500Y-103115094D01*
X134596500Y-102878902D01*
X134559553Y-102645631D01*
X134486566Y-102421003D01*
X134379342Y-102210566D01*
X134360300Y-102184357D01*
X134240517Y-102019490D01*
X134073510Y-101852483D01*
X133882433Y-101713657D01*
X133856411Y-101700398D01*
X133671996Y-101606433D01*
X133447368Y-101533446D01*
X133214097Y-101496500D01*
X133214092Y-101496500D01*
X132977908Y-101496500D01*
X132977903Y-101496500D01*
X132744631Y-101533446D01*
X132520003Y-101606433D01*
X132309563Y-101713659D01*
X132269385Y-101742850D01*
X132203579Y-101766330D01*
X132135525Y-101750504D01*
X132086830Y-101700398D01*
X132072500Y-101642532D01*
X132072500Y-98668500D01*
X132092185Y-98601461D01*
X132144989Y-98555706D01*
X132196500Y-98544500D01*
X163713500Y-98544500D01*
X163780539Y-98564185D01*
G37*
G04 #@! TD.AperFunction*
G04 #@! TA.AperFunction,Conductor*
G36*
X135044334Y-116170918D02*
G01*
X135088681Y-116199419D01*
X135260918Y-116371656D01*
X135260923Y-116371660D01*
X135457688Y-116514618D01*
X135500354Y-116569948D01*
X135506380Y-116610826D01*
X136141591Y-117246037D01*
X136078007Y-117263075D01*
X135963993Y-117328901D01*
X135870901Y-117421993D01*
X135805075Y-117536007D01*
X135788037Y-117599591D01*
X135155728Y-116967282D01*
X135155727Y-116967282D01*
X135116380Y-117021440D01*
X135111483Y-117031051D01*
X135063506Y-117081845D01*
X134995684Y-117098638D01*
X134929550Y-117076098D01*
X134890516Y-117031048D01*
X134885626Y-117021452D01*
X134846270Y-116967282D01*
X134846269Y-116967282D01*
X134213962Y-117599590D01*
X134196925Y-117536007D01*
X134131099Y-117421993D01*
X134038007Y-117328901D01*
X133923993Y-117263075D01*
X133860409Y-117246037D01*
X134496714Y-116609730D01*
X134507940Y-116556289D01*
X134544306Y-116514621D01*
X134741083Y-116371655D01*
X134913319Y-116199419D01*
X134974642Y-116165934D01*
X135044334Y-116170918D01*
G37*
G04 #@! TD.AperFunction*
G04 #@! TA.AperFunction,Conductor*
G36*
X132269385Y-104251149D02*
G01*
X132270302Y-104251815D01*
X132309565Y-104280342D01*
X132520003Y-104387566D01*
X132520005Y-104387566D01*
X132520008Y-104387568D01*
X132605321Y-104415288D01*
X132744631Y-104460553D01*
X132977903Y-104497500D01*
X132977908Y-104497500D01*
X133214095Y-104497500D01*
X133250219Y-104491778D01*
X133306749Y-104482824D01*
X133376040Y-104491778D01*
X133413827Y-104517616D01*
X136724180Y-107827969D01*
X136757665Y-107889292D01*
X136760499Y-107915650D01*
X136760499Y-108598517D01*
X136740814Y-108665556D01*
X136688010Y-108711311D01*
X136618852Y-108721255D01*
X136617101Y-108720990D01*
X136458623Y-108695889D01*
X136393027Y-108685500D01*
X136148973Y-108685500D01*
X136093093Y-108694350D01*
X135907927Y-108723678D01*
X135675812Y-108799097D01*
X135458357Y-108909896D01*
X135260923Y-109053339D01*
X135260918Y-109053343D01*
X135088681Y-109225581D01*
X135027358Y-109259066D01*
X134957666Y-109254082D01*
X134913319Y-109225581D01*
X134741081Y-109053343D01*
X134741076Y-109053339D01*
X134543642Y-108909896D01*
X134543641Y-108909895D01*
X134543639Y-108909894D01*
X134326185Y-108799096D01*
X134094076Y-108723679D01*
X134094074Y-108723678D01*
X134094072Y-108723678D01*
X133925769Y-108697021D01*
X133853027Y-108685500D01*
X133608973Y-108685500D01*
X133553093Y-108694350D01*
X133367927Y-108723678D01*
X133135812Y-108799097D01*
X132918357Y-108909896D01*
X132720923Y-109053339D01*
X132720918Y-109053343D01*
X132548343Y-109225918D01*
X132548339Y-109225923D01*
X132404896Y-109423357D01*
X132306985Y-109615518D01*
X132259010Y-109666314D01*
X132191189Y-109683109D01*
X132125054Y-109660572D01*
X132081603Y-109605856D01*
X132072500Y-109559223D01*
X132072500Y-104351467D01*
X132092185Y-104284428D01*
X132144989Y-104238673D01*
X132214147Y-104228729D01*
X132269385Y-104251149D01*
G37*
G04 #@! TD.AperFunction*
M02*
