M48
; DRILL file KiCad 10.0.0 date 2026-04-08T14:10:47
; FORMAT={-:-/ absolute / metric / decimal}
; #@! TF.CreationDate,2026-04-08T14:10:47+08:00
; #@! TF.GenerationSoftware,Kicad,Pcbnew,10.0.0
; #@! TF.FileFunction,Plated,1,2,PTH
FMAT,2
METRIC
; #@! TA.AperFunction,Plated,PTH,ComponentDrill
T1C0.800
; #@! TA.AperFunction,Plated,PTH,ComponentDrill
T2C1.000
; #@! TA.AperFunction,Plated,PTH,ComponentDrill
T3C1.100
%
G90
G05
T1
X86.36Y-111.76
X86.36Y-121.92
X88.9Y-67.31
X88.9Y-74.93
X88.98Y-116.84
X93.98Y-67.31
X93.98Y-74.93
X93.98Y-111.76
X93.98Y-116.84
X93.98Y-121.92
X96.52Y-111.76
X96.52Y-121.92
X99.06Y-69.93
X99.06Y-74.93
X99.14Y-116.84
X104.14Y-111.76
X104.14Y-116.84
X104.14Y-121.92
X106.68Y-111.76
X106.68Y-121.92
X109.3Y-116.84
X114.3Y-111.76
X114.3Y-116.84
X114.3Y-121.92
X116.84Y-111.76
X116.84Y-121.92
X119.46Y-116.84
X121.92Y-55.92
X121.92Y-58.42
X124.46Y-111.76
X124.46Y-116.84
X124.46Y-121.92
X134.62Y-77.51
X134.62Y-82.51
X137.795Y-77.51
X137.795Y-82.51
X157.48Y-96.6
X157.48Y-101.6
X157.48Y-122.0
X157.48Y-127.0
X157.48Y-147.4
X157.48Y-152.4
X162.56Y-99.1
X162.56Y-101.6
X162.56Y-124.5
X162.56Y-127.0
X163.5Y-149.9
X163.5Y-152.4
X165.1Y-81.36
X165.1Y-86.36
X165.1Y-106.76
X165.1Y-111.76
X165.1Y-132.08
X165.1Y-137.08
X181.92Y-50.8
X181.92Y-58.42
X181.92Y-66.04
X185.42Y-50.8
X185.42Y-66.04
X186.92Y-58.42
T2
X88.9Y-86.36
X88.9Y-106.68
X91.44Y-86.36
X91.44Y-106.68
X93.98Y-86.36
X93.98Y-106.68
X96.52Y-86.36
X96.52Y-106.68
X99.06Y-86.36
X99.06Y-106.68
X101.6Y-86.36
X101.6Y-106.68
X104.14Y-86.36
X104.14Y-106.68
X106.68Y-86.36
X106.68Y-106.68
X109.22Y-48.26
X109.22Y-60.96
X109.22Y-86.36
X109.22Y-106.68
X111.76Y-86.36
X111.76Y-106.68
X114.3Y-136.525
X114.3Y-139.065
X116.84Y-48.26
X116.84Y-136.525
X116.84Y-139.065
X119.38Y-136.525
X119.38Y-139.065
X121.92Y-48.26
X121.92Y-136.525
X121.92Y-139.065
X124.46Y-136.525
X124.46Y-139.065
X127.0Y-48.26
X127.0Y-136.525
X127.0Y-139.065
X127.635Y-114.3
X129.54Y-136.525
X129.54Y-139.065
X132.08Y-86.36
X132.08Y-136.525
X132.08Y-139.065
X134.62Y-48.26
X134.62Y-66.04
X134.62Y-86.36
X134.62Y-136.525
X134.62Y-139.065
X137.16Y-86.36
X137.16Y-136.525
X137.16Y-139.065
X139.7Y-86.36
X142.24Y-81.28
X147.32Y-76.2
X160.02Y-81.28
X160.02Y-86.36
X160.02Y-109.22
X160.02Y-111.76
X160.02Y-137.16
X170.18Y-83.82
X170.18Y-86.36
X170.18Y-88.9
X170.18Y-91.44
X170.18Y-93.98
X170.18Y-96.52
X170.18Y-99.06
X170.18Y-101.6
X170.18Y-109.22
X170.18Y-111.76
X170.18Y-114.3
X170.18Y-116.84
X170.18Y-119.38
X170.18Y-121.92
X170.18Y-124.46
X170.18Y-127.0
X170.18Y-134.62
X170.18Y-137.16
X170.18Y-139.7
X170.18Y-142.24
X170.18Y-144.78
X170.18Y-147.32
X170.18Y-149.86
X170.18Y-152.4
X175.26Y-48.26
X175.26Y-66.04
X175.26Y-73.66
X175.26Y-99.06
X175.26Y-101.6
X175.26Y-124.46
X175.26Y-127.0
X175.26Y-152.4
X182.88Y-83.82
X182.88Y-86.36
X182.88Y-88.9
X182.88Y-91.44
X182.88Y-93.98
X182.88Y-96.52
X182.88Y-99.06
X182.88Y-101.6
X182.88Y-109.22
X182.88Y-111.76
X182.88Y-114.3
X182.88Y-116.84
X182.88Y-119.38
X182.88Y-121.92
X182.88Y-124.46
X182.88Y-127.0
X182.88Y-134.62
X182.88Y-137.16
X182.88Y-139.7
X182.88Y-142.24
X182.88Y-144.78
X182.88Y-147.32
X182.88Y-149.86
X182.88Y-152.4
T3
X132.08Y-114.59
X132.08Y-119.09
X138.58Y-114.59
X138.58Y-119.09
M30
