G04 #@! TF.GenerationSoftware,KiCad,Pcbnew,10.0.0*
G04 #@! TF.CreationDate,2026-04-08T14:16:14+08:00*
G04 #@! TF.ProjectId,EPD 3D G6,45504420-3344-4204-9736-2e6b69636164,rev?*
G04 #@! TF.SameCoordinates,Original*
G04 #@! TF.FileFunction,Copper,L1,Top*
G04 #@! TF.FilePolarity,Positive*
%FSLAX46Y46*%
G04 Gerber Fmt 4.6, Leading zero omitted, Abs format (unit mm)*
G04 Created by KiCad (PCBNEW 10.0.0) date 2026-04-08 14:16:14*
%MOMM*%
%LPD*%
G01*
G04 APERTURE LIST*
G04 Aperture macros list*
%AMRoundRect*
0 Rectangle with rounded corners*
0 $1 Rounding radius*
0 $2 $3 $4 $5 $6 $7 $8 $9 X,Y pos of 4 corners*
0 Add a 4 corners polygon primitive as box body*
4,1,4,$2,$3,$4,$5,$6,$7,$8,$9,$2,$3,0*
0 Add four circle primitives for the rounded corners*
1,1,$1+$1,$2,$3*
1,1,$1+$1,$4,$5*
1,1,$1+$1,$6,$7*
1,1,$1+$1,$8,$9*
0 Add four rect primitives between the rounded corners*
20,1,$1+$1,$2,$3,$4,$5,0*
20,1,$1+$1,$4,$5,$6,$7,0*
20,1,$1+$1,$6,$7,$8,$9,0*
20,1,$1+$1,$8,$9,$2,$3,0*%
G04 Aperture macros list end*
G04 #@! TA.AperFunction,ComponentPad*
%ADD10R,1.700000X1.700000*%
G04 #@! TD*
G04 #@! TA.AperFunction,ComponentPad*
%ADD11C,1.700000*%
G04 #@! TD*
G04 #@! TA.AperFunction,ComponentPad*
%ADD12C,1.600000*%
G04 #@! TD*
G04 #@! TA.AperFunction,ComponentPad*
%ADD13RoundRect,0.250000X-0.550000X-0.550000X0.550000X-0.550000X0.550000X0.550000X-0.550000X0.550000X0*%
G04 #@! TD*
G04 #@! TA.AperFunction,ComponentPad*
%ADD14RoundRect,0.250000X0.550000X-0.550000X0.550000X0.550000X-0.550000X0.550000X-0.550000X-0.550000X0*%
G04 #@! TD*
G04 #@! TA.AperFunction,ComponentPad*
%ADD15RoundRect,0.250000X-0.550000X0.550000X-0.550000X-0.550000X0.550000X-0.550000X0.550000X0.550000X0*%
G04 #@! TD*
G04 #@! TA.AperFunction,ComponentPad*
%ADD16C,2.000000*%
G04 #@! TD*
G04 #@! TA.AperFunction,Conductor*
%ADD17C,1.500000*%
G04 #@! TD*
G04 APERTURE END LIST*
D10*
X182880000Y-127000000D03*
D11*
X182880000Y-124460000D03*
X182880000Y-121920000D03*
X182880000Y-119380000D03*
X182880000Y-116840000D03*
X182880000Y-114300000D03*
X182880000Y-111760000D03*
X182880000Y-109220000D03*
D12*
X165100000Y-106760000D03*
X165100000Y-111760000D03*
D13*
X181920000Y-50800000D03*
D12*
X185420000Y-50800000D03*
D10*
X114300000Y-136525000D03*
D11*
X114300000Y-139065000D03*
X116840000Y-136525000D03*
X116840000Y-139065000D03*
X119380000Y-136525000D03*
X119380000Y-139065000D03*
X121920000Y-136525000D03*
X121920000Y-139065000D03*
X124460000Y-136525000D03*
X124460000Y-139065000D03*
X127000000Y-136525000D03*
X127000000Y-139065000D03*
X129540000Y-136525000D03*
X129540000Y-139065000D03*
X132080000Y-136525000D03*
X132080000Y-139065000D03*
X134620000Y-136525000D03*
X134620000Y-139065000D03*
X137160000Y-136525000D03*
X137160000Y-139065000D03*
D10*
X182880000Y-101600000D03*
D11*
X182880000Y-99060000D03*
X182880000Y-96520000D03*
X182880000Y-93980000D03*
X182880000Y-91440000D03*
X182880000Y-88900000D03*
X182880000Y-86360000D03*
X182880000Y-83820000D03*
D10*
X170180000Y-152400000D03*
D11*
X170180000Y-149860000D03*
X170180000Y-147320000D03*
X170180000Y-144780000D03*
X170180000Y-142240000D03*
X170180000Y-139700000D03*
X170180000Y-137160000D03*
X170180000Y-134620000D03*
D10*
X88900000Y-106680000D03*
D11*
X91440000Y-106680000D03*
X93980000Y-106680000D03*
X96520000Y-106680000D03*
X99060000Y-106680000D03*
X101600000Y-106680000D03*
X104140000Y-106680000D03*
X106680000Y-106680000D03*
X109220000Y-106680000D03*
X111760000Y-106680000D03*
D12*
X96520000Y-121920000D03*
X104140000Y-121920000D03*
X186920000Y-58420000D03*
X181920000Y-58420000D03*
D11*
X139700000Y-86360000D03*
X137160000Y-86360000D03*
X134620000Y-86360000D03*
D10*
X132080000Y-86360000D03*
D12*
X162560000Y-99100000D03*
D14*
X162560000Y-101600000D03*
D10*
X109220000Y-60960000D03*
D12*
X116840000Y-111760000D03*
X124460000Y-111760000D03*
X86360000Y-111760000D03*
X93980000Y-111760000D03*
X165100000Y-132080000D03*
X165100000Y-137080000D03*
X93980000Y-116840000D03*
X88980000Y-116840000D03*
D10*
X170180000Y-127000000D03*
D11*
X170180000Y-124460000D03*
X170180000Y-121920000D03*
X170180000Y-119380000D03*
X170180000Y-116840000D03*
X170180000Y-114300000D03*
X170180000Y-111760000D03*
X170180000Y-109220000D03*
D12*
X163500000Y-149900000D03*
D14*
X163500000Y-152400000D03*
D15*
X121920000Y-55920000D03*
D12*
X121920000Y-58420000D03*
D10*
X134620000Y-48260000D03*
D12*
X185420000Y-66040000D03*
D13*
X181920000Y-66040000D03*
D12*
X109300000Y-116840000D03*
X114300000Y-116840000D03*
D16*
X138580000Y-119090000D03*
X132080000Y-119090000D03*
X138580000Y-114590000D03*
X132080000Y-114590000D03*
D10*
X175260000Y-66040000D03*
X88900000Y-86360000D03*
D11*
X91440000Y-86360000D03*
X93980000Y-86360000D03*
X96520000Y-86360000D03*
X99060000Y-86360000D03*
X101600000Y-86360000D03*
X104140000Y-86360000D03*
X106680000Y-86360000D03*
X109220000Y-86360000D03*
X111760000Y-86360000D03*
D12*
X106680000Y-121920000D03*
X114300000Y-121920000D03*
D11*
X170180000Y-83820000D03*
X170180000Y-86360000D03*
X170180000Y-88900000D03*
X170180000Y-91440000D03*
X170180000Y-93980000D03*
X170180000Y-96520000D03*
X170180000Y-99060000D03*
D10*
X170180000Y-101600000D03*
D12*
X93980000Y-74930000D03*
X93980000Y-67310000D03*
X116840000Y-121920000D03*
X124460000Y-121920000D03*
X99060000Y-69930000D03*
X99060000Y-74930000D03*
X162560000Y-124500000D03*
D14*
X162560000Y-127000000D03*
D12*
X157480000Y-147400000D03*
X157480000Y-152400000D03*
X157480000Y-127000000D03*
X157480000Y-122000000D03*
D10*
X182880000Y-152400000D03*
D11*
X182880000Y-149860000D03*
X182880000Y-147320000D03*
X182880000Y-144780000D03*
X182880000Y-142240000D03*
X182880000Y-139700000D03*
X182880000Y-137160000D03*
X182880000Y-134620000D03*
D12*
X157480000Y-101600000D03*
X157480000Y-96600000D03*
X134620000Y-82510000D03*
X134620000Y-77510000D03*
X96520000Y-111760000D03*
X104140000Y-111760000D03*
X99140000Y-116840000D03*
X104140000Y-116840000D03*
X88900000Y-67310000D03*
X88900000Y-74930000D03*
X93980000Y-121920000D03*
X86360000Y-121920000D03*
X165100000Y-86360000D03*
X165100000Y-81360000D03*
D10*
X109220000Y-48260000D03*
D12*
X114300000Y-111760000D03*
X106680000Y-111760000D03*
D10*
X175260000Y-48260000D03*
D12*
X137795000Y-82510000D03*
X137795000Y-77510000D03*
X119460000Y-116840000D03*
X124460000Y-116840000D03*
D10*
X175260000Y-127000000D03*
X175260000Y-99060000D03*
X175260000Y-124460000D03*
X175260000Y-73660000D03*
X175260000Y-101600000D03*
X147320000Y-76200000D03*
X127635000Y-114300000D03*
X160020000Y-86360000D03*
X160020000Y-111760000D03*
X175260000Y-152400000D03*
X142240000Y-81280000D03*
X160020000Y-81280000D03*
X160020000Y-109220000D03*
X160020000Y-137160000D03*
X127000000Y-48260000D03*
X116840000Y-48260000D03*
X121920000Y-48260000D03*
X134620000Y-66040000D03*
D17*
X170140000Y-149900000D02*
X170180000Y-149860000D01*
X165180000Y-137160000D02*
X165100000Y-137080000D01*
X162600000Y-124460000D02*
X162560000Y-124500000D01*
X162600000Y-99060000D02*
X162560000Y-99100000D01*
X181920000Y-66040000D02*
X181920000Y-67000000D01*
X170185585Y-149860000D02*
X170180000Y-149860000D01*
X170185585Y-99060000D02*
X170180000Y-99060000D01*
X134620000Y-66040000D02*
X132820000Y-66040000D01*
M02*
