G04 #@! TF.GenerationSoftware,KiCad,Pcbnew,10.0.0*
G04 #@! TF.CreationDate,2026-04-20T09:16:12+08:00*
G04 #@! TF.ProjectId,insole,696e736f-6c65-42e6-9b69-6361645f7063,rev?*
G04 #@! TF.SameCoordinates,Original*
G04 #@! TF.FileFunction,Soldermask,Top*
G04 #@! TF.FilePolarity,Negative*
%FSLAX46Y46*%
G04 Gerber Fmt 4.6, Leading zero omitted, Abs format (unit mm)*
G04 Created by KiCad (PCBNEW 10.0.0) date 2026-04-20 09:16:12*
%MOMM*%
%LPD*%
G01*
G04 APERTURE LIST*
%ADD10C,1.700000*%
%ADD11R,1.700000X1.700000*%
%ADD12C,1.600000*%
G04 APERTURE END LIST*
D10*
X161670999Y-110236000D03*
X159131000Y-110236000D03*
X156591000Y-110236000D03*
X154051000Y-110236000D03*
X151511001Y-110236000D03*
X148971000Y-110236000D03*
X146431000Y-110236000D03*
X143891000Y-110236000D03*
X141351000Y-110236000D03*
X138810999Y-110236000D03*
X136271000Y-110236000D03*
D11*
X133731000Y-110236000D03*
D12*
X133096000Y-102997000D03*
X140716000Y-102997000D03*
D10*
X148971000Y-115189000D03*
X141351000Y-115189000D03*
X133731000Y-117729000D03*
X138811000Y-117729000D03*
X156591000Y-117729000D03*
X156591000Y-115189000D03*
X154051000Y-117729000D03*
X151511000Y-117729000D03*
X151511000Y-115189000D03*
X148971000Y-117729000D03*
X146431000Y-117729000D03*
X146431000Y-115189000D03*
X143891000Y-117729000D03*
X143891000Y-115189000D03*
X141351000Y-117729000D03*
X138811000Y-115189000D03*
X136271000Y-117729000D03*
X154051000Y-115189000D03*
X136271000Y-115189000D03*
D11*
X133731000Y-115189000D03*
D10*
X159258000Y-102997000D03*
X154178000Y-102997000D03*
X154178000Y-105537000D03*
X156718001Y-105537000D03*
X156718000Y-102997000D03*
X161798000Y-102997000D03*
D11*
X161798000Y-105537000D03*
D10*
X159258000Y-105537000D03*
M02*
