G04 #@! TF.GenerationSoftware,KiCad,Pcbnew,10.0.0*
G04 #@! TF.CreationDate,2026-04-20T09:16:12+08:00*
G04 #@! TF.ProjectId,insole,696e736f-6c65-42e6-9b69-6361645f7063,rev?*
G04 #@! TF.SameCoordinates,Original*
G04 #@! TF.FileFunction,Legend,Top*
G04 #@! TF.FilePolarity,Positive*
%FSLAX46Y46*%
G04 Gerber Fmt 4.6, Leading zero omitted, Abs format (unit mm)*
G04 Created by KiCad (PCBNEW 10.0.0) date 2026-04-20 09:16:12*
%MOMM*%
%LPD*%
G01*
G04 APERTURE LIST*
%ADD10C,0.150000*%
%ADD11C,0.120000*%
G04 APERTURE END LIST*
D10*
X131415819Y-111569333D02*
X130939628Y-111902666D01*
X131415819Y-112140761D02*
X130415819Y-112140761D01*
X130415819Y-112140761D02*
X130415819Y-111759809D01*
X130415819Y-111759809D02*
X130463438Y-111664571D01*
X130463438Y-111664571D02*
X130511057Y-111616952D01*
X130511057Y-111616952D02*
X130606295Y-111569333D01*
X130606295Y-111569333D02*
X130749152Y-111569333D01*
X130749152Y-111569333D02*
X130844390Y-111616952D01*
X130844390Y-111616952D02*
X130892009Y-111664571D01*
X130892009Y-111664571D02*
X130939628Y-111759809D01*
X130939628Y-111759809D02*
X130939628Y-112140761D01*
X130892009Y-111140761D02*
X130892009Y-110807428D01*
X131415819Y-110664571D02*
X131415819Y-111140761D01*
X131415819Y-111140761D02*
X130415819Y-111140761D01*
X130415819Y-111140761D02*
X130415819Y-110664571D01*
X130892009Y-109902666D02*
X130892009Y-110235999D01*
X131415819Y-110235999D02*
X130415819Y-110235999D01*
X130415819Y-110235999D02*
X130415819Y-109759809D01*
X130415819Y-109235999D02*
X130653914Y-109235999D01*
X130558676Y-109474094D02*
X130653914Y-109235999D01*
X130653914Y-109235999D02*
X130558676Y-108997904D01*
X130844390Y-109378856D02*
X130653914Y-109235999D01*
X130653914Y-109235999D02*
X130844390Y-109093142D01*
X130415819Y-108474094D02*
X130653914Y-108474094D01*
X130558676Y-108712189D02*
X130653914Y-108474094D01*
X130653914Y-108474094D02*
X130558676Y-108235999D01*
X130844390Y-108616951D02*
X130653914Y-108474094D01*
X130653914Y-108474094D02*
X130844390Y-108331237D01*
X135572666Y-105821819D02*
X135239333Y-105345628D01*
X135001238Y-105821819D02*
X135001238Y-104821819D01*
X135001238Y-104821819D02*
X135382190Y-104821819D01*
X135382190Y-104821819D02*
X135477428Y-104869438D01*
X135477428Y-104869438D02*
X135525047Y-104917057D01*
X135525047Y-104917057D02*
X135572666Y-105012295D01*
X135572666Y-105012295D02*
X135572666Y-105155152D01*
X135572666Y-105155152D02*
X135525047Y-105250390D01*
X135525047Y-105250390D02*
X135477428Y-105298009D01*
X135477428Y-105298009D02*
X135382190Y-105345628D01*
X135382190Y-105345628D02*
X135001238Y-105345628D01*
X136001238Y-105298009D02*
X136334571Y-105298009D01*
X136477428Y-105821819D02*
X136001238Y-105821819D01*
X136001238Y-105821819D02*
X136001238Y-104821819D01*
X136001238Y-104821819D02*
X136477428Y-104821819D01*
X137239333Y-105298009D02*
X136906000Y-105298009D01*
X136906000Y-105821819D02*
X136906000Y-104821819D01*
X136906000Y-104821819D02*
X137382190Y-104821819D01*
X137906000Y-104821819D02*
X137906000Y-105059914D01*
X137667905Y-104964676D02*
X137906000Y-105059914D01*
X137906000Y-105059914D02*
X138144095Y-104964676D01*
X137763143Y-105250390D02*
X137906000Y-105059914D01*
X137906000Y-105059914D02*
X138048857Y-105250390D01*
X138667905Y-104821819D02*
X138667905Y-105059914D01*
X138429810Y-104964676D02*
X138667905Y-105059914D01*
X138667905Y-105059914D02*
X138906000Y-104964676D01*
X138525048Y-105250390D02*
X138667905Y-105059914D01*
X138667905Y-105059914D02*
X138810762Y-105250390D01*
X130415819Y-116792333D02*
X131130104Y-116792333D01*
X131130104Y-116792333D02*
X131272961Y-116839952D01*
X131272961Y-116839952D02*
X131368200Y-116935190D01*
X131368200Y-116935190D02*
X131415819Y-117078047D01*
X131415819Y-117078047D02*
X131415819Y-117173285D01*
X131415819Y-116268523D02*
X131415819Y-116078047D01*
X131415819Y-116078047D02*
X131368200Y-115982809D01*
X131368200Y-115982809D02*
X131320580Y-115935190D01*
X131320580Y-115935190D02*
X131177723Y-115839952D01*
X131177723Y-115839952D02*
X130987247Y-115792333D01*
X130987247Y-115792333D02*
X130606295Y-115792333D01*
X130606295Y-115792333D02*
X130511057Y-115839952D01*
X130511057Y-115839952D02*
X130463438Y-115887571D01*
X130463438Y-115887571D02*
X130415819Y-115982809D01*
X130415819Y-115982809D02*
X130415819Y-116173285D01*
X130415819Y-116173285D02*
X130463438Y-116268523D01*
X130463438Y-116268523D02*
X130511057Y-116316142D01*
X130511057Y-116316142D02*
X130606295Y-116363761D01*
X130606295Y-116363761D02*
X130844390Y-116363761D01*
X130844390Y-116363761D02*
X130939628Y-116316142D01*
X130939628Y-116316142D02*
X130987247Y-116268523D01*
X130987247Y-116268523D02*
X131034866Y-116173285D01*
X131034866Y-116173285D02*
X131034866Y-115982809D01*
X131034866Y-115982809D02*
X130987247Y-115887571D01*
X130987247Y-115887571D02*
X130939628Y-115839952D01*
X130939628Y-115839952D02*
X130844390Y-115792333D01*
X165022819Y-105600333D02*
X164546628Y-105933666D01*
X165022819Y-106171761D02*
X164022819Y-106171761D01*
X164022819Y-106171761D02*
X164022819Y-105790809D01*
X164022819Y-105790809D02*
X164070438Y-105695571D01*
X164070438Y-105695571D02*
X164118057Y-105647952D01*
X164118057Y-105647952D02*
X164213295Y-105600333D01*
X164213295Y-105600333D02*
X164356152Y-105600333D01*
X164356152Y-105600333D02*
X164451390Y-105647952D01*
X164451390Y-105647952D02*
X164499009Y-105695571D01*
X164499009Y-105695571D02*
X164546628Y-105790809D01*
X164546628Y-105790809D02*
X164546628Y-106171761D01*
X164499009Y-105171761D02*
X164499009Y-104838428D01*
X165022819Y-104695571D02*
X165022819Y-105171761D01*
X165022819Y-105171761D02*
X164022819Y-105171761D01*
X164022819Y-105171761D02*
X164022819Y-104695571D01*
X164499009Y-103933666D02*
X164499009Y-104266999D01*
X165022819Y-104266999D02*
X164022819Y-104266999D01*
X164022819Y-104266999D02*
X164022819Y-103790809D01*
X164022819Y-103266999D02*
X164260914Y-103266999D01*
X164165676Y-103505094D02*
X164260914Y-103266999D01*
X164260914Y-103266999D02*
X164165676Y-103028904D01*
X164451390Y-103409856D02*
X164260914Y-103266999D01*
X164260914Y-103266999D02*
X164451390Y-103124142D01*
X164022819Y-102505094D02*
X164260914Y-102505094D01*
X164165676Y-102743189D02*
X164260914Y-102505094D01*
X164260914Y-102505094D02*
X164165676Y-102266999D01*
X164451390Y-102647951D02*
X164260914Y-102505094D01*
X164260914Y-102505094D02*
X164451390Y-102362237D01*
D11*
X163001000Y-111566001D02*
X163001000Y-108905999D01*
X135001001Y-111566000D02*
X163001000Y-111566001D01*
X135001001Y-111566000D02*
X135001001Y-108906000D01*
X135001001Y-108906000D02*
X163001000Y-108905999D01*
X132401000Y-110236000D02*
X132401000Y-108906000D01*
X132401000Y-108906000D02*
X133731000Y-108906000D01*
X133636000Y-101627000D02*
X133636000Y-101957000D01*
X133636000Y-104367000D02*
X133636000Y-104037000D01*
X140176000Y-101627000D02*
X133636000Y-101627000D01*
X140176000Y-101957000D02*
X140176000Y-101627000D01*
X140176000Y-104037000D02*
X140176000Y-104367000D01*
X140176000Y-104367000D02*
X133636000Y-104367000D01*
X157921000Y-119059000D02*
X157921000Y-113859000D01*
X135001000Y-116459000D02*
X135001000Y-113859000D01*
X135001000Y-113859000D02*
X157921000Y-113859000D01*
X132401000Y-119059000D02*
X157921000Y-119059000D01*
X132401000Y-119059000D02*
X132401000Y-116459000D01*
X132401000Y-116459000D02*
X135001000Y-116459000D01*
X132401000Y-115189000D02*
X132401000Y-113859000D01*
X132401000Y-113859000D02*
X133731000Y-113859000D01*
X163128000Y-106867000D02*
X161798000Y-106867000D01*
X163128000Y-105537000D02*
X163128000Y-106867000D01*
X163128000Y-104266999D02*
X160528000Y-104267000D01*
X163128000Y-101667000D02*
X163128000Y-104266999D01*
X163128000Y-101667000D02*
X152848000Y-101667000D01*
X160528000Y-104267000D02*
X160527999Y-106867000D01*
X160527999Y-106867000D02*
X152848000Y-106867000D01*
X152848000Y-101667000D02*
X152848000Y-106867000D01*
M02*
