M48
; DRILL file KiCad 10.0.0 date 2026-04-20T09:16:18
; FORMAT={-:-/ absolute / metric / decimal}
; #@! TF.CreationDate,2026-04-20T09:16:18+08:00
; #@! TF.GenerationSoftware,Kicad,Pcbnew,10.0.0
; #@! TF.FileFunction,Plated,1,2,PTH
FMAT,2
METRIC
; #@! TA.AperFunction,Plated,PTH,ComponentDrill
T1C0.800
; #@! TA.AperFunction,Plated,PTH,ComponentDrill
T2C1.000
%
G90
G05
T1
X133.096Y-102.997
X140.716Y-102.997
T2
X133.731Y-110.236
X133.731Y-115.189
X133.731Y-117.729
X136.271Y-110.236
X136.271Y-115.189
X136.271Y-117.729
X138.811Y-110.236
X138.811Y-115.189
X138.811Y-117.729
X141.351Y-110.236
X141.351Y-115.189
X141.351Y-117.729
X143.891Y-110.236
X143.891Y-115.189
X143.891Y-117.729
X146.431Y-110.236
X146.431Y-115.189
X146.431Y-117.729
X148.971Y-110.236
X148.971Y-115.189
X148.971Y-117.729
X151.511Y-115.189
X151.511Y-117.729
X151.511Y-110.236
X154.051Y-110.236
X154.051Y-115.189
X154.051Y-117.729
X154.178Y-102.997
X154.178Y-105.537
X156.591Y-110.236
X156.591Y-115.189
X156.591Y-117.729
X156.718Y-102.997
X156.718Y-105.537
X159.131Y-110.236
X159.258Y-102.997
X159.258Y-105.537
X161.671Y-110.236
X161.798Y-102.997
X161.798Y-105.537
M30
